<?xml version="1.0" encoding="utf-8"?>
<!-- Generated by IcoMoon.io -->
<!DOCTYPE svg PUBLIC "-//W3C//DTD SVG 1.1//EN" "http://www.w3.org/Graphics/SVG/1.1/DTD/svg11.dtd">
<svg version="1.1" xmlns="http://www.w3.org/2000/svg" xmlns:xlink="http://www.w3.org/1999/xlink" width="32" height="32" viewBox="0 0 32 32">
<path fill="#444" d="M15.989-0.001c-8.823 0-15.987 7.159-15.987 16.001s7.163 16.001 15.987 16.001c8.844 0 16.009-7.159 16.009-16.001s-7.164-16.001-16.009-16.001zM19.821 21.751v1.254h-4.79v-14.027h1.607v12.773h3.183zM25.471 25.468c-2.528 2.533-5.893 3.921-9.482 3.921-3.566 0-6.933-1.388-9.458-3.921-2.528-2.532-3.924-5.893-3.924-9.473 0.001-7.388 6.009-13.396 13.382-13.396 0.161 0 0.484 0.002 0.65 0.009v1.25c-0.153-0.002-0.503-0.004-0.645-0.004-3.236 0-6.284 1.265-8.585 3.556-2.289 2.286-3.553 5.34-3.553 8.586 0 3.243 1.264 6.298 3.553 8.583 2.3 2.297 5.349 3.564 8.585 3.564 6.426 0 11.694-5.014 12.118-11.328 0.002-0.026 0.005-0.158 0.005-0.186h-8.286v-1.652l9.561-0.002v1.020c0 3.578-1.394 6.942-3.921 9.472zM12.811 10.892c0 1.055-0.863 1.914-1.922 1.914-1.052 0-1.916-0.858-1.916-1.914 0-1.063 0.864-1.922 1.916-1.922 1.060 0 1.922 0.858 1.922 1.922z"></path>
</svg>
