<?xml version="1.0" encoding="utf-8"?>
<!-- Generated by IcoMoon.io -->
<!DOCTYPE svg PUBLIC "-//W3C//DTD SVG 1.1//EN" "http://www.w3.org/Graphics/SVG/1.1/DTD/svg11.dtd">
<svg version="1.1" xmlns="http://www.w3.org/2000/svg" xmlns:xlink="http://www.w3.org/1999/xlink" width="32" height="32" viewBox="0 0 32 32">
<path fill="#444" d="M7.221 2.826c-0.016 0.012-0.028 0.026-0.043 0.038 0.090-0.095 0.219-0.197 0.304-0.252 2.479-1.611 5.343-2.473 8.521-2.473 2.972 0 5.756 0.821 8.133 2.249 0.172 0.102 0.642 0.425 0.885 0.717v0.001c-2.293-2.528-9.033 2.896-9.033 2.896-2.331-1.797-4.475-3.022-6.071-3.457-1.334-0.366-2.257-0.060-2.695 0.281zM27.617 5.216c-0.070-0.077-0.146-0.15-0.217-0.23-0.58-0.636-1.292-0.79-1.935-0.748-0.585 0.183-3.286 1.157-6.615 4.3 0 0 3.748 3.644 6.043 7.37 2.293 3.726 3.664 6.654 2.821 10.718 2.559-2.812 4.119-6.549 4.119-10.652 0-4.153-1.599-7.932-4.217-10.757zM21.897 17.499c-1.017-1.141-2.529-2.775-4.527-4.762-0.437-0.434-0.898-0.887-1.383-1.356 0 0-0.73 0.73-1.68 1.69v-0.001c-1.216 1.228-2.793 2.831-3.668 3.766-1.558 1.663-6.022 6.885-6.273 9.813 0 0-0.993-2.322 1.186-7.679 1.424-3.502 5.727-8.759 7.524-10.473 0 0-1.642-1.807-3.702-3.055l-0.012-0.004c0 0-0.023-0.019-0.060-0.042-0.991-0.591-2.073-1.046-3.114-1.106-1.063 0.075-1.737 0.853-1.737 0.853-2.657 2.833-4.283 6.641-4.283 10.831 0 8.745 7.089 15.835 15.835 15.835 4.641 0 8.817-2.001 11.715-5.183-0.001-0.005-0.334-2.092-2.464-5.087-0.501-0.701-2.331-2.891-3.356-4.041z"></path>
</svg>
