<?xml version="1.0" encoding="utf-8"?>
<!-- Generated by IcoMoon.io -->
<!DOCTYPE svg PUBLIC "-//W3C//DTD SVG 1.1//EN" "http://www.w3.org/Graphics/SVG/1.1/DTD/svg11.dtd">
<svg version="1.1" xmlns="http://www.w3.org/2000/svg" xmlns:xlink="http://www.w3.org/1999/xlink" width="32" height="32" viewBox="0 0 32 32">
<path fill="#444" d="M19.335 29.71h-17.063c0-3.764-0.303-5.838 3.632-6.745 3.851-0.888 7.652-1.682 5.825-5.048-5.415-9.973-1.544-15.627 4.271-15.627 5.703 0 10.112 5.625 4.271 15.627-1.419 2.429-2.937 4.518-2.937 6.752 0 1.948 0.761 3.722 2 5.041z"></path>
<path fill="#444" d="M30.357 30.462l-3.018-3.018c0.568-0.781 0.903-1.741 0.903-2.778 0-2.61-2.123-4.733-4.733-4.733s-4.733 2.123-4.733 4.733c0 2.61 2.123 4.733 4.733 4.733 0.989 0 1.908-0.305 2.669-0.826l3.034 3.034 1.145-1.145zM20.164 24.666c0-1.844 1.501-3.345 3.345-3.345s3.345 1.501 3.345 3.345c0 1.844-1.501 3.345-3.345 3.345s-3.345-1.501-3.345-3.345z"></path>
</svg>
