<?xml version="1.0" encoding="utf-8"?>
<!-- Generated by IcoMoon.io -->
<!DOCTYPE svg PUBLIC "-//W3C//DTD SVG 1.1//EN" "http://www.w3.org/Graphics/SVG/1.1/DTD/svg11.dtd">
<svg version="1.1" xmlns="http://www.w3.org/2000/svg" xmlns:xlink="http://www.w3.org/1999/xlink" width="32" height="32" viewBox="0 0 32 32">
<path fill="#444" d="M31.622 26.435h-8.070c-0-8.784-4.391-4.609-4.391-12.306 0-2.778 1.819-4.286 4.155-4.286 3.451 0 5.853 3.295 2.585 9.456-1.074 2.024 1.143 2.505 3.525 3.054s2.197 1.804 2.197 4.081zM18.512 21.301c-2.996-0.691-5.784-1.296-4.434-3.842 4.111-7.75 1.090-11.894-3.251-11.894-4.426 0-7.373 4.304-3.251 11.894 1.391 2.562-1.503 3.166-4.434 3.842-2.994 0.691-2.764 2.269-2.764 5.134h20.898c-0-2.865 0.23-4.443-2.764-5.134z"></path>
</svg>
