<?xml version="1.0" encoding="utf-8"?>
<!-- Generated by IcoMoon.io -->
<!DOCTYPE svg PUBLIC "-//W3C//DTD SVG 1.1//EN" "http://www.w3.org/Graphics/SVG/1.1/DTD/svg11.dtd">
<svg version="1.1" xmlns="http://www.w3.org/2000/svg" xmlns:xlink="http://www.w3.org/1999/xlink" width="32" height="32" viewBox="0 0 32 32">
<path fill="#444" d="M23.529 13.092c-0.082 0.862-0.255 1.762-0.516 2.696h1.599c0.915 0 1.657-0.742 1.657-1.658v-4.096c0-0.915-0.742-1.657-1.657-1.657h-1.713c0.587 1.356 0.799 2.938 0.63 4.716zM15.853 3.204c2.832-0.006 5.513 1.382 6.651 3.894h1.422c-1.018-3.691-4.049-6.315-8.073-6.315s-7.055 2.624-8.073 6.315h1.421c1.138-2.512 3.819-3.9 6.651-3.894zM5.437 14.13c0 0.915 0.742 1.658 1.657 1.658h1.611c-0.255-0.903-0.425-1.778-0.509-2.619-0.179-1.806 0.037-3.412 0.641-4.792h-1.743c-0.915 0-1.657 0.742-1.657 1.658v4.096h0zM25.316 24.693c-3.68-0.849-7.106-1.592-5.447-4.72 0.429-0.808 0.792-1.583 1.099-2.326-0.926 0.53-1.962 0.94-2.524 1.080l-0.24-1.139c1.23-0.35 2.556-1.003 3.48-1.963 1.964-6.714-1.357-10.264-5.809-10.264-5.438 0-9.058 5.287-3.994 14.613 1.709 3.147-1.846 3.889-5.447 4.72-3.679 0.849-3.396 2.788-3.396 6.307h25.674c0-3.519 0.283-5.459-3.396-6.307zM15.883 19.59c-0.472 0.097-0.934-0.207-1.031-0.679s0.207-0.934 0.679-1.031l1.876-0.416 0.352 1.71-1.876 0.416z"></path>
</svg>
