<?xml version="1.0" encoding="utf-8"?>
<!-- Generated by IcoMoon.io -->
<!DOCTYPE svg PUBLIC "-//W3C//DTD SVG 1.1//EN" "http://www.w3.org/Graphics/SVG/1.1/DTD/svg11.dtd">
<svg version="1.1" xmlns="http://www.w3.org/2000/svg" xmlns:xlink="http://www.w3.org/1999/xlink" width="32" height="32" viewBox="0 0 32 32">
<path fill="#444" d="M19.14 15.984l11.656-11.656c0.854-0.854 0.854-2.239 0-3.094s-2.239-0.854-3.094 0l-11.656 11.656-11.656-11.656c-0.854-0.854-2.239-0.854-3.094 0s-0.854 2.239 0 3.094l11.656 11.656-11.656 11.656c-0.854 0.854-0.854 2.239 0 3.094 0.427 0.427 0.987 0.641 1.547 0.641s1.12-0.214 1.547-0.641l11.656-11.656 11.656 11.656c0.427 0.427 0.987 0.641 1.547 0.641s1.12-0.214 1.547-0.641c0.854-0.854 0.854-2.239 0-3.094l-11.656-11.656z"></path>
</svg>
