<?xml version="1.0" encoding="utf-8"?>
<!-- Generated by IcoMoon.io -->
<!DOCTYPE svg PUBLIC "-//W3C//DTD SVG 1.1//EN" "http://www.w3.org/Graphics/SVG/1.1/DTD/svg11.dtd">
<svg version="1.1" xmlns="http://www.w3.org/2000/svg" xmlns:xlink="http://www.w3.org/1999/xlink" width="32" height="32" viewBox="0 0 32 32">
<path fill="#444" d="M29.087 5.35c-3.044-2.793-7.979-2.793-11.023 0l-2.064 1.897-2.066-1.897c-3.044-2.793-7.977-2.793-11.021 0-3.424 3.144-3.424 8.236 0 11.38l13.087 12.013 13.087-12.013c3.424-3.142 3.424-8.236 0-11.38zM27.15 14.862l-11.15 10.402-11.148-10.402c-1.125-1.030-1.56-2.388-1.56-3.823 0-1.431 0.251-2.607 1.376-3.639 0.992-0.912 2.327-1.413 3.754-1.413 1.429 0 2.763 0.867 3.756 1.779l3.823 3.324 3.823-3.324c0.992-0.912 2.325-1.779 3.754-1.779s2.763 0.501 3.757 1.413c1.123 1.032 1.373 2.208 1.376 3.639 0 1.433-0.437 2.793-1.56 3.823z"></path>
</svg>
