<?xml version="1.0" encoding="utf-8"?>
<!-- Generated by IcoMoon.io -->
<!DOCTYPE svg PUBLIC "-//W3C//DTD SVG 1.1//EN" "http://www.w3.org/Graphics/SVG/1.1/DTD/svg11.dtd">
<svg version="1.1" xmlns="http://www.w3.org/2000/svg" xmlns:xlink="http://www.w3.org/1999/xlink" width="32" height="32" viewBox="0 0 32 32">
<path fill="#444" d="M24.533 0.64h-17.067c-1.877 0-3.413 1.536-3.413 3.413v23.893c0 1.877 1.536 3.413 3.413 3.413h17.067c1.879 0 3.413-1.536 3.413-3.413v-23.893c0-1.877-1.534-3.413-3.413-3.413zM20.772 16.889c-0.404 0.631-0.62 0.362-0.498 0 0.321-0.952 0.309-3.835-2.376-4.256v8.897c0 1.659-0.956 2.7-2.987 3.352-1.973 0.631-4.181-0.026-4.698-1.444-0.515-1.417 0.645-3.14 2.592-3.85 1.087-0.394 2.19-0.391 3.040-0.061v-12.551h2.053c0 2.156 5.77 5.408 2.874 9.914z"></path>
</svg>
