<?xml version="1.0" encoding="utf-8"?>
<!-- Generated by IcoMoon.io -->
<!DOCTYPE svg PUBLIC "-//W3C//DTD SVG 1.1//EN" "http://www.w3.org/Graphics/SVG/1.1/DTD/svg11.dtd">
<svg version="1.1" xmlns="http://www.w3.org/2000/svg" xmlns:xlink="http://www.w3.org/1999/xlink" width="32" height="32" viewBox="0 0 32 32">
<path fill="#444" d="M18.071 14.117l2.168-2.191-2.98-0.432-1.312-2.846-1.312 2.846-2.98 0.432 2.169 2.191-0.528 3.114 2.651-1.493 2.652 1.493-0.528-3.114zM7.9 18.965c-0.929-1.483-1.474-3.231-1.474-5.111 0-5.333 4.323-9.656 9.656-9.656s9.656 4.323 9.656 9.656c0 1.923-0.569 3.71-1.537 5.215-0.652-0.332-1.317-0.628-1.998-0.879 0.872-1.226 1.389-2.721 1.389-4.337 0-4.141-3.37-7.51-7.51-7.51s-7.51 3.369-7.51 7.51c0 1.583 0.496 3.052 1.335 4.264-0.683 0.242-1.353 0.523-2.006 0.847zM24.322 21.593l-2.504 3.564c-1.719-0.991-3.7-1.571-5.818-1.58-2.119 0.009-4.099 0.589-5.818 1.58l-2.504-3.564c2.431-1.487 5.27-2.362 8.322-2.372 3.052 0.010 5.892 0.885 8.322 2.372zM28.875 24.583h-2.531l-0.608 3.219c-0.658-1.086-1.489-2.051-2.443-2.876l2.514-3.578c1.168 0.944 2.203 1.983 3.069 3.235zM6.194 21.348l2.514 3.578c-0.955 0.825-1.785 1.79-2.443 2.876l-0.608-3.219h-2.531c0.865-1.252 1.901-2.291 3.069-3.235z"></path>
</svg>
