<?xml version="1.0" encoding="utf-8"?>
<!-- Generated by IcoMoon.io -->
<!DOCTYPE svg PUBLIC "-//W3C//DTD SVG 1.1//EN" "http://www.w3.org/Graphics/SVG/1.1/DTD/svg11.dtd">
<svg version="1.1" xmlns="http://www.w3.org/2000/svg" xmlns:xlink="http://www.w3.org/1999/xlink" width="32" height="32" viewBox="0 0 32 32">
<path fill="#444" d="M11.248 1.351h6.013v3.132h-6.013v-3.132z"></path>
<path fill="#444" d="M24.026 6.049v2.037h3.132v-3.604c0-1.73-1.402-3.132-3.132-3.132h-3.633v3.132h2.067c0.865 0 1.566 0.701 1.566 1.566z"></path>
<path fill="#444" d="M1.351 11.218h3.132v6.013h-3.132v-6.013z"></path>
<path fill="#444" d="M4.483 22.46v-2.097h-3.132v3.663c0 1.73 1.402 3.132 3.132 3.132h3.633v-3.132h-2.067c-0.865 0-1.566-0.701-1.566-1.566z"></path>
<path fill="#444" d="M1.351 4.483v3.603h3.132v-2.037c0-0.865 0.701-1.566 1.566-1.566h2.067v-3.132h-3.633c-1.73 0-3.132 1.402-3.132 3.132z"></path>
<path fill="#444" d="M28.305 10.246h-15.511c-1.373 0-2.486 1.113-2.486 2.486v15.511c0 1.373 1.113 2.486 2.486 2.486h15.511c1.373 0 2.486-1.113 2.486-2.486v-15.511c0-1.373-1.113-2.486-2.486-2.486z"></path>
</svg>
