<?xml version="1.0" encoding="utf-8"?>
<!-- Generated by IcoMoon.io -->
<!DOCTYPE svg PUBLIC "-//W3C//DTD SVG 1.1//EN" "http://www.w3.org/Graphics/SVG/1.1/DTD/svg11.dtd">
<svg version="1.1" xmlns="http://www.w3.org/2000/svg" xmlns:xlink="http://www.w3.org/1999/xlink" width="32" height="32" viewBox="0 0 32 32">
<path fill="#444" d="M28.321 0l-6.863 6.863c-0.004-0.001-0.008-0.002-0.011-0.004l-15.793 15.793c0.003 0.002 0.006 0.004 0.009 0.006l-5.662 5.662v1.679h1.679l28.321-28.321v-1.679h-1.679z"></path>
<path fill="#444" d="M15.969 12.142c-1.205 0-2.186 0.981-2.186 2.186 0 0.956 0.617 1.77 1.473 2.066l2.779-2.779c-0.296-0.856-1.11-1.473-2.066-1.473z"></path>
<path fill="#444" d="M9.573 22.077l3.831-3.831c-1.275-0.838-2.12-2.28-2.12-3.917 0-2.583 2.101-4.684 4.684-4.684 1.637 0 3.079 0.844 3.917 2.12l3.654-3.654c0.004 0.001 0.008 0.002 0.011 0.004l0.172-0.172c-1.843-2.235-4.633-3.659-7.755-3.659-5.549 0-10.047 4.498-10.047 10.047 0 3.119 1.421 5.906 3.651 7.748z"></path>
<path fill="#444" d="M21.668 24.801c-3.544 1.929-7.84 1.931-11.388 0l-2.508 2.846c-0.959 1.087 0.009 2.555 1.382 2.368 1.713-0.234 3.088-1.624 6.82-1.624s5.107 1.39 6.82 1.624c1.373 0.187 2.341-1.28 1.382-2.368l-2.508-2.846z"></path>
<path fill="#444" d="M20.652 14.371c-0.023 2.549-2.092 4.618-4.641 4.641l-4.381 4.381c1.313 0.63 2.785 0.983 4.338 0.983 5.549 0 10.047-4.498 10.047-10.047 0-1.554-0.353-3.025-0.983-4.338l-4.381 4.381z"></path>
</svg>
