<?xml version="1.0" encoding="utf-8"?>
<!-- Generated by IcoMoon.io -->
<!DOCTYPE svg PUBLIC "-//W3C//DTD SVG 1.1//EN" "http://www.w3.org/Graphics/SVG/1.1/DTD/svg11.dtd">
<svg version="1.1" xmlns="http://www.w3.org/2000/svg" xmlns:xlink="http://www.w3.org/1999/xlink" width="32" height="32" viewBox="0 0 32 32">
<path fill="#000" d="M16 4.8c6.186 0 11.2 5.014 11.2 11.2s-5.014 11.2-11.2 11.2c-6.186 0-11.2-5.014-11.2-11.2 0.007-6.183 5.017-11.193 11.199-11.2zM16 4c-6.627 0-12 5.373-12 12s5.373 12 12 12c6.627 0 12-5.373 12-12s-5.373-12-12-12zM15.718 20.242l-0.284-0.282 1.766-1.76 0.28 0.28zM18.066 17.892l-0.282-0.282 1.762-1.762 0.282 0.282zM20.416 15.542l-0.282-0.282 1.762-1.762 0.282 0.282zM15.13 20.83l-0.282-0.282-0.708 0.708-0.708-0.708-0.282 0.282 0.99 0.99zM12.73 20.406l-1.274-1.276 0.282-0.282 1.262 1.274zM11.030 18.706l-1.274-1.274 0.282-0.282 1.274 1.274zM9.6 16.722l-0.708-0.708 0.708-0.706-0.282-0.282-0.99 0.99 0.99 1zM11.73 14.6l-0.99-1-0.99 1 0.282 0.282 0.708-0.708 0.706 0.708zM13.092 15.962l-1.022-1.022-0.282 0.282 1.012 1.024zM15.13 16.586l-0.282-0.282-0.708 0.708-0.708-0.708-0.282 0.282 0.99 1zM15.742 15.974l-0.282-0.282 1.838-1.838 0.282 0.282zM18.2 13.524l-0.29-0.284 1.84-1.84 0.282 0.282zM22.348 10.79l-0.99-1-1 0.99 0.282 0.282 0.708-0.708 0.706 0.708zM23.62 12.062l-0.848-0.848-0.282 0.282 0.71 0.704-0.708 0.708 0.274 0.292 0.99-1z"></path>
</svg>
