<svg id="Слой_1" data-name="Слой 1" xmlns="http://www.w3.org/2000/svg" viewBox="0 0 160 160"><defs><style>.cls-1{fill:#303030;}</style></defs><title>ic_checkbox-off</title><path class="cls-1" d="M80,24A56,56,0,1,1,24,80,56.06,56.06,0,0,1,80,24m0-4a60,60,0,1,0,60,60A60,60,0,0,0,80,20Zm-1.41,81.21L77.17,99.8,86,91,87.4,92.4ZM90.33,89.46l-1.41-1.41,8.81-8.81,1.41,1.41Zm11.75-11.75-1.41-1.41,8.81-8.81,1.41,1.41ZM75.65,104.15l-1.41-1.41-3.54,3.54-3.54-3.54-1.41,1.41,4.95,4.95Zm-12-2.12-6.37-6.38,1.41-1.41L65,100.61Zm-8.5-8.5-6.37-6.37,1.41-1.41,6.37,6.37ZM48,83.61l-3.54-3.54L48,76.54l-1.41-1.41-4.95,4.95,4.95,5ZM58.65,73l-4.95-5-4.95,5,1.41,1.41,3.54-3.54,3.53,3.54Zm6.81,6.81-5.11-5.11-1.41,1.41L64,81.23Zm10.19,3.12-1.41-1.41L70.7,85.06l-3.54-3.54-1.41,1.41,4.95,5Zm3.06-3.06L77.3,78.46l9.19-9.19,1.41,1.41ZM91,67.62,89.55,66.2,98.75,57l1.41,1.41Zm20.74-13.67-4.95-5-5,4.95,1.41,1.41,3.54-3.54,3.53,3.54Zm6.36,6.36-4.24-4.24-1.41,1.41L116,61l-3.54,3.54L113.83,66l4.95-5Z"/></svg>