<?xml version="1.0" encoding="utf-8"?>
<!-- Generated by IcoMoon.io -->
<!DOCTYPE svg PUBLIC "-//W3C//DTD SVG 1.1//EN" "http://www.w3.org/Graphics/SVG/1.1/DTD/svg11.dtd">
<svg version="1.1" xmlns="http://www.w3.org/2000/svg" xmlns:xlink="http://www.w3.org/1999/xlink" width="32" height="32" viewBox="0 0 32 32">
<path fill="#444" d="M17.195 23.087l-5.073-5.074v-6.801h3.081v5.525l4.171 4.171-2.179 2.179zM13.663 5.050c-6.807 0-12.326 5.518-12.326 12.326s5.518 12.326 12.326 12.326 12.326-5.519 12.326-12.326c-0-6.808-5.519-12.326-12.326-12.326v0zM13.663 26.62c-5.106 0-9.244-4.139-9.244-9.244s4.139-9.244 9.244-9.244c5.106 0 9.244 4.139 9.244 9.244s-4.138 9.244-9.244 9.244v0zM28.408 27.835c0-1.084 0.753-1.867 1.807-1.867s1.747 0.783 1.747 1.867c0 1.054-0.693 1.867-1.807 1.867-1.024 0-1.747-0.813-1.747-1.867zM29.161 23.559l-0.422-14.484h2.891l-0.422 14.484h-2.048zM0.039 8.684l8.603-6.385 1.937 2.61-8.603 6.385-1.937-2.61zM18.529 2.298l8.602 6.385-1.937 2.61-8.603-6.385 1.937-2.61z"></path>
</svg>
