<?xml version="1.0" encoding="utf-8"?>
<!-- Generated by IcoMoon.io -->
<!DOCTYPE svg PUBLIC "-//W3C//DTD SVG 1.1//EN" "http://www.w3.org/Graphics/SVG/1.1/DTD/svg11.dtd">
<svg version="1.1" xmlns="http://www.w3.org/2000/svg" xmlns:xlink="http://www.w3.org/1999/xlink" width="32" height="32" viewBox="0 0 32 32">
<path fill="#444" d="M13.326 21.51l-3.944-3.945v-5.288h2.396v4.295l3.243 3.243-1.694 1.694zM10.579 7.487c-5.292 0-9.583 4.29-9.583 9.583s4.29 9.583 9.583 9.583c5.292 0 9.583-4.29 9.583-9.583s-4.29-9.583-9.583-9.583v0zM10.579 24.257c-3.969 0-7.187-3.218-7.187-7.187s3.218-7.187 7.187-7.187c3.969 0 7.187 3.218 7.187 7.187s-3.217 7.187-7.187 7.187v0zM22.043 25.201c0-0.843 0.585-1.452 1.405-1.452s1.358 0.609 1.358 1.452c0 0.819-0.538 1.451-1.405 1.451-0.796-0-1.358-0.632-1.358-1.451zM22.628 21.877l-0.328-11.261h2.247l-0.328 11.261h-1.592zM25.693 25.201c0-0.843 0.585-1.452 1.404-1.452s1.358 0.609 1.358 1.452c0 0.819-0.538 1.451-1.405 1.451-0.796-0-1.358-0.632-1.358-1.451zM26.278 21.877l-0.328-11.261h2.248l-0.328 11.261h-1.592zM29.238 25.201c0-0.843 0.585-1.452 1.405-1.452s1.358 0.609 1.358 1.452c0 0.819-0.538 1.451-1.405 1.451-0.796-0-1.358-0.632-1.358-1.451zM29.823 21.877l-0.328-11.261h2.248l-0.328 11.261h-1.592zM-0.013 10.313l6.688-4.964 1.506 2.029-6.688 4.964-1.506-2.029zM14.363 5.347l6.688 4.964-1.506 2.029-6.688-4.964 1.506-2.029z"></path>
</svg>
