<?xml version="1.0" encoding="utf-8"?>
<!-- Generated by IcoMoon.io -->
<!DOCTYPE svg PUBLIC "-//W3C//DTD SVG 1.1//EN" "http://www.w3.org/Graphics/SVG/1.1/DTD/svg11.dtd">
<svg version="1.1" xmlns="http://www.w3.org/2000/svg" xmlns:xlink="http://www.w3.org/1999/xlink" width="32" height="32" viewBox="0 0 32 32">
<path fill="#444" d="M18.56 9.376c0-0.406-0.436-0.736-0.843-0.736h-0.981c-0.406 0-0.736 0.33-0.736 0.736v6.624h-4.171c-0.405 0-0.629 0.331-0.629 0.736v0.982c0 0.405 0.224 0.843 0.629 0.843h5.888c0.404 0 0.843-0.438 0.843-0.843l-0-8.342zM16 1.28c-8.13 0-14.72 6.59-14.72 14.72s6.59 14.72 14.72 14.72 14.72-6.59 14.72-14.72c0-8.13-6.59-14.72-14.72-14.72zM16 26.549c-5.826 0-10.549-4.723-10.549-10.549s4.723-10.549 10.549-10.549 10.549 4.723 10.549 10.549-4.723 10.549-10.549 10.549z"></path>
</svg>
