<?xml version="1.0" encoding="utf-8"?>
<!-- Generated by IcoMoon.io -->
<!DOCTYPE svg PUBLIC "-//W3C//DTD SVG 1.1//EN" "http://www.w3.org/Graphics/SVG/1.1/DTD/svg11.dtd">
<svg version="1.1" xmlns="http://www.w3.org/2000/svg" xmlns:xlink="http://www.w3.org/1999/xlink" width="32" height="32" viewBox="0 0 32 32">
<path fill="#444" d="M16 3.409c6.959 0 12.591 5.631 12.591 12.591 0 6.959-5.631 12.591-12.591 12.591-6.959 0-12.591-5.631-12.591-12.591 0-6.959 5.632-12.591 12.591-12.591zM16 0.374c-8.63 0-15.626 6.996-15.626 15.626s6.996 15.626 15.626 15.626c8.63 0 15.626-6.996 15.626-15.626s-6.996-15.626-15.626-15.626v0zM17.372 22.958v1.731h-2.476v-1.548c-1.188-0.102-2.758-0.533-3.914-1.17l0.819-2.854c1.309 0.511 3.22 1.153 4.633 0.845 1.236-0.27 1.547-1.379 0.093-2.006-1.228-0.552-5.456-1.128-5.456-4.664 0-1.465 1.098-3.478 3.825-4.073v-1.756h2.476v1.612c1.061 0.073 2.144 0.269 3.394 0.66-0.125 0.546-0.665 2.916-0.665 2.916-0.863-0.294-2.274-0.807-3.629-0.731-1.674 0.094-1.794 1.316-0.665 1.881 2.315 1.047 5.667 1.937 5.667 5.059 0.003 2.412-1.876 3.786-4.101 4.099z"></path>
</svg>
