<?xml version="1.0" encoding="utf-8"?>
<!-- Generated by IcoMoon.io -->
<!DOCTYPE svg PUBLIC "-//W3C//DTD SVG 1.1//EN" "http://www.w3.org/Graphics/SVG/1.1/DTD/svg11.dtd">
<svg version="1.1" xmlns="http://www.w3.org/2000/svg" xmlns:xlink="http://www.w3.org/1999/xlink" width="32" height="32" viewBox="0 0 32 32">
<path fill="#444" d="M15.284 12.13c-1.919-0.96-1.715-3.038 1.131-3.198 2.304-0.13 4.704 0.744 6.172 1.243 0 0 0.919-4.031 1.132-4.96-2.126-0.665-3.967-0.998-5.772-1.122v-2.741h-4.212v2.988c-4.639 1.013-6.506 4.436-6.506 6.928 0 6.013 7.19 6.994 9.279 7.932 2.473 1.066 1.944 2.953-0.158 3.412-2.403 0.524-5.652-0.568-7.879-1.437l-1.393 4.853c1.967 1.084 4.636 1.816 6.657 1.989v2.633h4.212v-2.943c3.784-0.532 6.981-2.869 6.975-6.972 0-5.309-5.701-6.823-9.638-8.604z"></path>
</svg>
