<?xml version="1.0" encoding="utf-8"?>
<!-- Generated by IcoMoon.io -->
<!DOCTYPE svg PUBLIC "-//W3C//DTD SVG 1.1//EN" "http://www.w3.org/Graphics/SVG/1.1/DTD/svg11.dtd">
<svg version="1.1" xmlns="http://www.w3.org/2000/svg" xmlns:xlink="http://www.w3.org/1999/xlink" width="32" height="32" viewBox="0 0 32 32">
<path fill="#444" d="M16 6.472c-6.578 0-12.196 3.95-14.472 9.528 2.276 5.578 7.894 9.528 14.472 9.528s12.195-3.95 14.472-9.528c-2.277-5.578-7.893-9.528-14.472-9.528zM16 22.987c-4.988 0-9.434-2.711-11.598-6.987 2.165-4.277 6.611-6.987 11.598-6.987s9.432 2.711 11.598 6.987c-2.166 4.277-6.611 6.987-11.598 6.987zM16 12.189c-2.184 0-3.947 1.702-3.947 3.811s1.762 3.812 3.947 3.812 3.947-1.702 3.947-3.812c0-2.109-1.762-3.811-3.947-3.811z"></path>
</svg>
