<?xml version="1.0" encoding="utf-8"?>
<!-- Generated by IcoMoon.io -->
<!DOCTYPE svg PUBLIC "-//W3C//DTD SVG 1.1//EN" "http://www.w3.org/Graphics/SVG/1.1/DTD/svg11.dtd">
<svg version="1.1" xmlns="http://www.w3.org/2000/svg" xmlns:xlink="http://www.w3.org/1999/xlink" width="32" height="32" viewBox="0 0 32 32">
<path fill="#444" d="M16.033 24.009c-5.44 0-10.537-3.73-13.766-8.463 3.592-5.036 8.893-7.556 13.766-7.556 4.893 0 10.234 2.493 13.7 7.527-2.972 4.952-8.066 8.492-13.7 8.492zM5.173 15.585c2.652 3.276 6.569 6.091 10.86 6.091 5.845 0 9.628-4.38 10.867-6.066-2.638-3.104-6.518-5.286-10.867-5.286-5.654 0-9.508 3.722-10.86 5.261zM16.157 16.006l-3.893-2.515c-0.469 0.724-0.741 1.588-0.741 2.515 0 2.559 2.075 4.634 4.634 4.634s4.634-2.075 4.634-4.634-2.075-4.634-4.634-4.634c-0.86 0-1.665 0.234-2.355 0.642l2.355 3.992z"></path>
</svg>
