<?xml version="1.0" encoding="utf-8"?>
<!-- Generated by IcoMoon.io -->
<!DOCTYPE svg PUBLIC "-//W3C//DTD SVG 1.1//EN" "http://www.w3.org/Graphics/SVG/1.1/DTD/svg11.dtd">
<svg version="1.1" xmlns="http://www.w3.org/2000/svg" xmlns:xlink="http://www.w3.org/1999/xlink" width="32" height="32" viewBox="0 0 32 32">
<path fill="#444" d="M2.162 18.787h2.008v9.512c0 0.568 0.467 1.033 1.038 1.033h7.506c0.571 0 1.369-0.466 1.369-1.033v-7.253h4.562v7.253c0 0.568 0.467 1.033 1.038 1.033h7.105c0.571 0 1.038-0.466 1.038-1.033v-9.512h2.012c0.415 0 0.796-0.524 0.952-0.904s0.069-0.96-0.225-1.253l-13.526-13.658c-0.398-0.396-1.055-0.414-1.453-0.018l-14.133 13.659c-0.312 0.293-0.398 0.874-0.242 1.27s0.536 0.903 0.952 0.903zM16.277 5.426l11.070 11.161h-0.78c-0.571 0-1.038 0.465-1.038 1.033v9.427h-4.582v-7.253c0-0.568-0.467-1.033-1.038-1.033h-7.088c-0.571 0-1.038 0.465-1.038 1.033v7.253h-5.346v-9.427c0-0.568-0.467-1.033-1.038-1.033h-0.679l11.555-11.161z"></path>
</svg>
