<?xml version="1.0" encoding="utf-8"?>
<!-- Generated by IcoMoon.io -->
<!DOCTYPE svg PUBLIC "-//W3C//DTD SVG 1.1//EN" "http://www.w3.org/Graphics/SVG/1.1/DTD/svg11.dtd">
<svg version="1.1" xmlns="http://www.w3.org/2000/svg" xmlns:xlink="http://www.w3.org/1999/xlink" width="32" height="32" viewBox="0 0 32 32">
<path fill="#000" d="M28.688 5.003h-18.814c-0.883 0-1.507 0.364-2.010 1.098l-6.773 9.899 6.773 9.9c0.504 0.608 1.128 1.097 2.010 1.097h18.814c1.377 0 2.504-1.097 2.504-2.44v-17.108c0-1.349-1.127-2.448-2.504-2.448v0zM24.92 20.398l-1.758 1.712-4.514-4.398-4.514 4.398-1.758-1.712 4.513-4.398-4.514-4.398 1.758-1.713 4.514 4.398 4.514-4.398 1.758 1.713-4.513 4.398 4.514 4.398z"></path>
</svg>
