<?xml version="1.0" encoding="utf-8"?>
<!-- Generated by IcoMoon.io -->
<!DOCTYPE svg PUBLIC "-//W3C//DTD SVG 1.1//EN" "http://www.w3.org/Graphics/SVG/1.1/DTD/svg11.dtd">
<svg version="1.1" xmlns="http://www.w3.org/2000/svg" xmlns:xlink="http://www.w3.org/1999/xlink" width="32" height="32" viewBox="0 0 32 32">
<path fill="#444" d="M28.689 5h-18.816c-0.883 0-1.507 0.364-2.011 1.099l-6.774 9.901 6.774 9.903c0.504 0.608 1.128 1.097 2.011 1.097h18.816c1.377 0 2.505-1.097 2.505-2.44v-17.112c0-1.349-1.128-2.448-2.505-2.448zM30.035 24.56c0 0.707-0.604 1.282-1.347 1.282h-18.816c-0.283 0-0.611-0.079-1.086-0.639l-6.295-9.202 6.326-9.247c0.301-0.439 0.577-0.595 1.055-0.595h18.816c0.743 0 1.347 0.578 1.347 1.29v17.112zM22.235 11.146l-3.586 3.494-3.585-3.494-1.396 1.361 3.586 3.494-3.586 3.494 1.396 1.361 3.585-3.494 3.586 3.494 1.396-1.361-3.585-3.494 3.585-3.494-1.396-1.361z"></path>
</svg>
