<?xml version="1.0" encoding="utf-8"?>
<!-- Generator: Adobe Illustrator 20.1.0, SVG Export Plug-In . SVG Version: 6.00 Build 0)  -->
<!DOCTYPE svg PUBLIC "-//W3C//DTD SVG 1.1//EN" "http://www.w3.org/Graphics/SVG/1.1/DTD/svg11.dtd">
<svg version="1.1" xmlns="http://www.w3.org/2000/svg" xmlns:xlink="http://www.w3.org/1999/xlink" x="0px" y="0px"
	 viewBox="0 0 51.999 38" enable-background="new 0 0 51.999 38" xml:space="preserve">
<path fill="#303030" d="M47.672-0.315H15.171c-1.525,0-2.603,0.628-3.473,1.898l-11.7,17.102l11.7,17.105
	c0.87,1.05,1.948,1.895,3.473,1.895h32.501c2.378,0,4.326-1.895,4.326-4.215V3.913C51.998,1.582,50.05-0.315,47.672-0.315z
	 M49.997,33.47c0,1.221-1.043,2.214-2.326,2.214H15.171c-0.489,0-1.055-0.136-1.876-1.104L2.421,18.685L13.348,2.713
	c0.52-0.759,0.997-1.028,1.822-1.028h32.501c1.283,0,2.326,0.999,2.326,2.228V33.47z M36.524,10.3l-6.194,6.035L24.137,10.3
	l-2.412,2.35l6.194,6.035l-6.194,6.035l2.412,2.35l6.193-6.035l6.194,6.035l2.411-2.35l-6.193-6.035l6.193-6.035L36.524,10.3z"/>
</svg>
