<?xml version="1.0" encoding="utf-8"?>
<!-- Generated by IcoMoon.io -->
<!DOCTYPE svg PUBLIC "-//W3C//DTD SVG 1.1//EN" "http://www.w3.org/Graphics/SVG/1.1/DTD/svg11.dtd">
<svg version="1.1" xmlns="http://www.w3.org/2000/svg" xmlns:xlink="http://www.w3.org/1999/xlink" width="32" height="32" viewBox="0 0 32 32">
<path fill="#444" d="M6.888 10.938h-2.025v2.025h2.025v-2.025zM10.938 10.938h-2.025v2.025h2.025v-2.025zM14.988 10.938h-2.025v2.025h2.025v-2.025zM19.038 10.938h-2.025v2.025h2.025v-2.025zM23.088 10.938h-2.025v2.025h2.025v-2.025zM27.137 10.938h-2.025v2.025h2.025v-2.025zM6.888 14.988h-2.025v2.025h2.025v-2.025zM10.938 14.988h-2.025v2.025h2.025v-2.025zM14.988 14.988h-2.025v2.025h2.025v-2.025zM19.038 14.988h-2.025v2.025h2.025v-2.025zM23.088 14.988h-2.025v2.025h2.025v-2.025zM27.137 19.038h-2.025v2.025h2.025v-2.025zM6.888 19.038h-2.025v2.025h2.025v-2.025zM23.088 19.038h-14.175v2.025h14.175v-2.025zM29.163 6.888h-26.325c-1.118 0-2.025 0.907-2.025 2.025v14.175c0 1.118 0.907 2.025 2.025 2.025h26.325c1.118 0 2.025-0.907 2.025-2.025v-14.175c0-1.118-0.907-2.025-2.025-2.025zM29.163 23.088h-26.325v-14.175h26.325v14.175zM27.137 14.988h-2.025v2.025h2.025v-2.025z"></path>
</svg>
