<?xml version="1.0" encoding="utf-8"?>
<!-- Generated by IcoMoon.io -->
<!DOCTYPE svg PUBLIC "-//W3C//DTD SVG 1.1//EN" "http://www.w3.org/Graphics/SVG/1.1/DTD/svg11.dtd">
<svg version="1.1" xmlns="http://www.w3.org/2000/svg" xmlns:xlink="http://www.w3.org/1999/xlink" width="32" height="32" viewBox="0 0 32 32">
<path fill="#444" d="M11.398 13.522h-3.793v-4.753c0-4.629 3.766-8.394 8.394-8.394s8.394 3.766 8.394 8.394v4.753h-3.793v-4.753c0-2.537-2.064-4.602-4.602-4.602s-4.602 2.064-4.602 4.602v4.753zM27.226 15.798v15.828h-22.452v-15.828h22.452zM18.048 22.447c0-1.131-0.917-2.048-2.048-2.048s-2.048 0.917-2.048 2.048c0 0.592 0.252 1.126 0.654 1.5 0.333 0.309 0.522 0.743 0.522 1.197v1.74h1.745v-1.74c0-0.454 0.189-0.888 0.522-1.197 0.402-0.374 0.654-0.907 0.654-1.5z"></path>
</svg>
