<?xml version="1.0" encoding="utf-8"?>
<!-- Generated by IcoMoon.io -->
<!DOCTYPE svg PUBLIC "-//W3C//DTD SVG 1.1//EN" "http://www.w3.org/Graphics/SVG/1.1/DTD/svg11.dtd">
<svg version="1.1" xmlns="http://www.w3.org/2000/svg" xmlns:xlink="http://www.w3.org/1999/xlink" width="32" height="32" viewBox="0 0 32 32">
<path fill="#444" d="M20.389 3.125c1.79 0 3.58 0.683 4.946 2.049s2.049 3.156 2.049 4.946h-1.448c0-1.42-0.541-2.839-1.625-3.922s-2.503-1.625-3.922-1.625v-1.448zM20.389 7.326c0.715 0 1.43 0.273 1.975 0.818s0.818 1.26 0.818 1.975h1.461c0-1.089-0.415-2.177-1.246-3.008s-1.919-1.246-3.008-1.246v1.46zM7.76 28.875l0.693-0.625c1.211-1.092 3.052-1.092 4.263 0l0.693 0.625h3.144l-5.968-5.384-5.968 5.384h3.144zM16.531 16.566l2.832-4.545c0.167-0.268 0.477-0.412 0.789-0.367 0.491 0.071 1.007-0.111 1.342-0.525 0.508-0.626 0.413-1.545-0.213-2.053s-1.545-0.412-2.053 0.214c-0.267 0.329-0.367 0.739-0.311 1.128 0.045 0.313-0.099 0.623-0.367 0.79l-4.545 2.832c0.559 1.056 1.47 1.968 2.526 2.526zM22.468 21.304c0.313 3.222-5.049 3.378-8.723 1.884-6.218-2.528-8.76-8.904-7.113-13.797 0.764-2.27 1.684-3.493 5.762-0.839 1.001 0.651 2.064 1.499 3.126 2.475l-1.32 0.823c-0.931-0.845-1.853-1.576-2.712-2.144-5.037-3.329-1.551 3.083 1.575 6.508 2.901 3.178 9.621 8.011 7.125 2.986-0.377-0.759-0.948-1.64-1.636-2.56l0.848-1.361c1.427 1.904 2.904 4.328 3.068 6.024z"></path>
</svg>
