<?xml version="1.0" encoding="utf-8"?>
<!-- Generated by IcoMoon.io -->
<!DOCTYPE svg PUBLIC "-//W3C//DTD SVG 1.1//EN" "http://www.w3.org/Graphics/SVG/1.1/DTD/svg11.dtd">
<svg version="1.1" xmlns="http://www.w3.org/2000/svg" xmlns:xlink="http://www.w3.org/1999/xlink" width="32" height="32" viewBox="0 0 32 32">
<path fill="#444" d="M21.562 19.34h-1.17l-0.414-0.4c1.452-1.688 2.325-3.88 2.325-6.265 0-5.317-4.31-9.627-9.627-9.627s-9.627 4.31-9.627 9.627c0 5.317 4.31 9.627 9.627 9.627 2.385 0 4.577-0.874 6.265-2.325l0.4 0.414v1.17l7.406 7.391 2.207-2.207-7.391-7.406zM12.675 19.34c-3.688 0-6.665-2.978-6.665-6.665s2.978-6.665 6.665-6.665c3.688 0 6.665 2.978 6.665 6.665s-2.978 6.665-6.665 6.665z"></path>
</svg>
