<?xml version="1.0" encoding="utf-8"?>
<!-- Generated by IcoMoon.io -->
<!DOCTYPE svg PUBLIC "-//W3C//DTD SVG 1.1//EN" "http://www.w3.org/Graphics/SVG/1.1/DTD/svg11.dtd">
<svg version="1.1" xmlns="http://www.w3.org/2000/svg" xmlns:xlink="http://www.w3.org/1999/xlink" width="32" height="32" viewBox="0 0 32 32">
<path fill="#444" d="M15.044 9.199l16.365-3.244-0.011-0.055-1.095-5.525-27.565 5.464c-1.372 0.272-2.363 1.475-2.363 2.874 0 3.615 0 12.796 0 18.378 0 2.505 2.030 4.535 4.535 4.535h22.181c2.505 0 4.535-2.031 4.535-4.535v-17.892h-16.582zM26.56 2.663l3.12 2.088-3.898 0.775-3.123-2.090 3.901-0.773zM18.881 4.185l3.125 2.091-3.898 0.775-3.127-2.093 3.901-0.773zM11.193 5.709l3.129 2.094-3.898 0.775-3.132-2.096 3.901-0.773zM7.866 13.371l2.655-2.655h3.977l-2.655 2.655h-3.977zM13.952 26.33v-9.166l7.475 4.583-7.475 4.583zM19.681 13.371h-3.977l2.655-2.655h3.977l-2.655 2.655zM27.51 13.371h-3.977l2.655-2.655h3.977l-2.655 2.655z"></path>
</svg>
