<?xml version="1.0" encoding="utf-8"?>
<!-- Generated by IcoMoon.io -->
<!DOCTYPE svg PUBLIC "-//W3C//DTD SVG 1.1//EN" "http://www.w3.org/Graphics/SVG/1.1/DTD/svg11.dtd">
<svg version="1.1" xmlns="http://www.w3.org/2000/svg" xmlns:xlink="http://www.w3.org/1999/xlink" width="32" height="32" viewBox="0 0 32 32">
<path fill="#444" d="M19.879 24.896c-0.854-0.854-2.036-1.296-3.241-1.212-2.172 0.151-4.396-0.603-6.056-2.264-2.182-2.182-2.799-5.334-1.855-8.067l4.96 4.96c1.935 0.114 4.927-2.878 4.813-4.813l-4.96-4.961c2.732-0.945 5.885-0.327 8.067 1.855 1.661 1.661 2.415 3.884 2.264 6.056-0.084 1.204 0.359 2.388 1.212 3.241l4.329 4.329c1.405-2.345 2.214-5.088 2.214-8.020 0-8.63-6.996-15.626-15.625-15.626s-15.626 6.996-15.626 15.626 6.996 15.625 15.626 15.625c3.030 0 5.858-0.863 8.253-2.356l-4.374-4.374z"></path>
</svg>
