<?xml version="1.0" encoding="utf-8"?>
<!-- Generated by IcoMoon.io -->
<!DOCTYPE svg PUBLIC "-//W3C//DTD SVG 1.1//EN" "http://www.w3.org/Graphics/SVG/1.1/DTD/svg11.dtd">
<svg version="1.1" xmlns="http://www.w3.org/2000/svg" xmlns:xlink="http://www.w3.org/1999/xlink" width="32" height="32" viewBox="0 0 32 32">
<path fill="#444" d="M25.316 17.487c0.013-0.015 0.025-0.029 0.038-0.044 0.011-0.014 0.022-0.028 0.032-0.042 0.012-0.015 0.024-0.030 0.035-0.046 0.010-0.014 0.020-0.029 0.030-0.043 0.011-0.016 0.022-0.031 0.033-0.047s0.019-0.030 0.028-0.045c0.010-0.016 0.020-0.031 0.029-0.047s0.017-0.031 0.026-0.047c0.009-0.016 0.018-0.031 0.026-0.047s0.016-0.032 0.024-0.048c0.008-0.016 0.016-0.032 0.024-0.048s0.015-0.034 0.022-0.050c0.007-0.016 0.014-0.032 0.021-0.048 0.007-0.017 0.013-0.035 0.020-0.052 0.006-0.016 0.012-0.032 0.018-0.048 0.006-0.017 0.011-0.035 0.017-0.052 0.005-0.016 0.011-0.032 0.016-0.049 0.005-0.017 0.010-0.035 0.014-0.053 0.004-0.016 0.009-0.033 0.013-0.049 0.004-0.018 0.008-0.036 0.012-0.054 0.004-0.016 0.008-0.033 0.011-0.049 0.004-0.018 0.006-0.036 0.009-0.054 0.003-0.017 0.006-0.033 0.008-0.049 0.003-0.018 0.004-0.036 0.006-0.054 0.002-0.017 0.004-0.034 0.006-0.050s0.003-0.036 0.004-0.053c0.001-0.017 0.003-0.034 0.004-0.051s0.001-0.035 0.001-0.053c0-0.017 0.001-0.035 0.001-0.052s-0.001-0.035-0.001-0.052c-0-0.018-0-0.035-0.001-0.053s-0.002-0.034-0.004-0.051c-0.001-0.018-0.002-0.036-0.004-0.053s-0.004-0.034-0.006-0.050c-0.002-0.018-0.004-0.036-0.006-0.054-0.002-0.016-0.006-0.033-0.008-0.049-0.003-0.018-0.006-0.037-0.009-0.055-0.003-0.016-0.007-0.032-0.011-0.049-0.004-0.018-0.008-0.036-0.012-0.054-0.004-0.016-0.009-0.032-0.013-0.048-0.005-0.018-0.009-0.036-0.015-0.054-0.005-0.016-0.010-0.031-0.015-0.047-0.006-0.018-0.011-0.036-0.017-0.054-0.005-0.015-0.012-0.031-0.017-0.046-0.007-0.018-0.013-0.036-0.020-0.054-0.006-0.015-0.013-0.030-0.020-0.045-0.008-0.018-0.015-0.035-0.023-0.053-0.007-0.015-0.015-0.030-0.022-0.045-0.009-0.017-0.017-0.034-0.026-0.051-0.008-0.015-0.016-0.029-0.024-0.044-0.009-0.017-0.018-0.034-0.028-0.050-0.009-0.015-0.018-0.029-0.027-0.043-0.010-0.016-0.020-0.033-0.031-0.049-0.009-0.014-0.020-0.028-0.029-0.042-0.011-0.016-0.022-0.032-0.033-0.047-0.010-0.014-0.021-0.027-0.031-0.040-0.012-0.016-0.024-0.032-0.037-0.047-0.010-0.013-0.022-0.025-0.032-0.038-0.013-0.016-0.026-0.031-0.040-0.047-0.011-0.012-0.022-0.023-0.033-0.035-0.014-0.015-0.028-0.030-0.042-0.044-0.001-0.001-0.001-0.001-0.002-0.002s-0.001-0.001-0.001-0.002l-13.5-13.469c-0.855-0.853-2.24-0.852-3.094 0.004s-0.852 2.24 0.004 3.094l11.948 11.92-11.948 11.92c-0.855 0.853-0.857 2.238-0.004 3.094 0.427 0.428 0.988 0.642 1.549 0.642 0.559 0 1.118-0.213 1.545-0.639l13.5-13.469c0.001-0.001 0.001-0.001 0.002-0.002s0.001-0.001 0.002-0.002c0.012-0.012 0.024-0.026 0.036-0.038 0.013-0.014 0.027-0.027 0.040-0.042s0.023-0.027 0.035-0.041z"></path>
</svg>
