<?xml version="1.0" encoding="utf-8"?>
<!-- Generated by IcoMoon.io -->
<!DOCTYPE svg PUBLIC "-//W3C//DTD SVG 1.1//EN" "http://www.w3.org/Graphics/SVG/1.1/DTD/svg11.dtd">
<svg version="1.1" xmlns="http://www.w3.org/2000/svg" xmlns:xlink="http://www.w3.org/1999/xlink" width="32" height="32" viewBox="0 0 32 32">
<path fill="#444" d="M23.854 8.146c-2.010-2.010-4.787-3.253-7.854-3.253-4.761 0-8.822 2.996-10.402 7.206l2.601 0.975c1.184-3.157 4.23-5.404 7.801-5.404 2.301 0 4.383 0.933 5.891 2.44l-3.113 3.113h8.33v-8.33l-3.254 3.253zM16 24.33c-2.3 0-4.382-0.933-5.89-2.439l3.113-3.114h-8.33v8.33l3.254-3.254c2.010 2.011 4.786 3.254 7.853 3.254 4.762 0 8.822-2.996 10.402-7.206l-2.602-0.975c-1.183 3.157-4.23 5.404-7.8 5.404z"></path>
</svg>
