<?xml version="1.0" encoding="utf-8"?>
<!-- Generated by IcoMoon.io -->
<!DOCTYPE svg PUBLIC "-//W3C//DTD SVG 1.1//EN" "http://www.w3.org/Graphics/SVG/1.1/DTD/svg11.dtd">
<svg version="1.1" xmlns="http://www.w3.org/2000/svg" xmlns:xlink="http://www.w3.org/1999/xlink" width="32" height="32" viewBox="0 0 32 32">
<path fill="#444" d="M6.383 21.162l5.058-5.747 1.792 1.848 3.298-4.686 4.189 6.353-2.232 2.232h-12.106zM10.419 12.513c0-1.099-0.891-1.99-1.99-1.99s-1.99 0.891-1.99 1.99c0 1.099 0.891 1.99 1.99 1.99s1.99-0.891 1.99-1.99zM8.999 23.522h-6.004v-15.055h21.638v6.552l2.607-2.607v-6.552h-26.852v20.269h8.611v-2.607zM19.845 22.487l-0.75 3.653 3.717-0.686-2.967-2.967zM28.644 13.688l2.968 2.967-7.665 7.665-2.968-2.968 7.665-7.665zM13.207 23.522h-2.607v2.607h2.607v-2.607zM17.36 23.522h-2.607v2.607h2.607v-2.607z"></path>
</svg>
