<?xml version="1.0" encoding="utf-8"?>
<!-- Generated by IcoMoon.io -->
<!DOCTYPE svg PUBLIC "-//W3C//DTD SVG 1.1//EN" "http://www.w3.org/Graphics/SVG/1.1/DTD/svg11.dtd">
<svg version="1.1" xmlns="http://www.w3.org/2000/svg" xmlns:xlink="http://www.w3.org/1999/xlink" width="36" height="32" viewBox="0 0 36 32">
<path fill="#444" d="M33.978 28.154c0 1.421 0.813 2.652 1.999 3.254v0.498c-0.332 0.045-0.671 0.069-1.015 0.069-2.124 0-4.040-0.891-5.394-2.319-0.819 0.218-1.686 0.336-2.585 0.336-4.967 0-8.994-3.579-8.994-7.995s4.027-7.995 8.994-7.995c4.967 0 8.994 3.579 8.994 7.995 0 1.729-0.617 3.329-1.666 4.637-0.213 0.463-0.332 0.978-0.332 1.521zM7.204 6.918c-2.068 1.68-3.207 3.841-3.207 6.084 0 1.258 0.349 2.479 1.038 3.627 0.711 1.184 1.78 2.267 3.091 3.131 0.948 0.624 1.586 1.622 1.754 2.745 0.056 0.374 0.091 0.752 0.105 1.128 0.233-0.193 0.461-0.401 0.683-0.624 0.754-0.754 1.773-1.171 2.826-1.171 0.168 0 0.336 0.010 0.505 0.032 0.654 0.083 1.322 0.125 1.986 0.126v3.997c-0.847-0-1.679-0.054-2.49-0.157-3.435 3.435-7.534 4.051-11.498 4.141v-0.841c2.14-1.049 3.997-2.959 3.997-5.142 0-0.305-0.024-0.604-0.068-0.896-3.616-2.382-5.929-6.020-5.929-10.097 0-7.175 7.159-12.992 15.99-12.992 8.696 0 15.771 5.641 15.985 12.664-1.284-0.572-2.681-0.919-4.131-1.017-0.36-1.751-1.418-3.398-3.068-4.739-1.103-0.896-2.402-1.605-3.861-2.106-1.552-0.533-3.209-0.804-4.925-0.804s-3.372 0.271-4.925 0.804c-1.459 0.501-2.758 1.21-3.861 2.106z"></path>
</svg>
