<svg id="Слой_1" data-name="Слой 1" xmlns="http://www.w3.org/2000/svg" viewBox="0 0 160 160"><defs><style>.cls-1{fill:#303030;}</style></defs><title>ic_login-logout</title><path class="cls-1" d="M80,78.64c13.44,0,24.35-13.58,24.35-30.33S100.77,18,80,18,55.65,31.57,55.65,48.32,66.55,78.64,80,78.64Z"/><path class="cls-1" d="M34,125c0-1,0-.29,0,0Z"/><path class="cls-1" d="M126,125.75c0-.28,0-1.94,0,0Z"/><path class="cls-1" d="M125.93,123.73c-.45-29.18-4.17-37.49-32.6-42.76,0,0-4,5.23-13.33,5.23S66.67,81,66.67,81c-28.12,5.21-32.06,13.4-32.58,41.81,0,2.32-.06,2.44-.07,2.17,0,.5,0,1.44,0,3.07,0,0,6.77,14,46,14s46-14,46-14c0-1,0-1.77,0-2.27A18.47,18.47,0,0,1,125.93,123.73Z"/></svg>