<?xml version="1.0" encoding="utf-8"?>
<!-- Generated by IcoMoon.io -->
<!DOCTYPE svg PUBLIC "-//W3C//DTD SVG 1.1//EN" "http://www.w3.org/Graphics/SVG/1.1/DTD/svg11.dtd">
<svg version="1.1" xmlns="http://www.w3.org/2000/svg" xmlns:xlink="http://www.w3.org/1999/xlink" width="32" height="32" viewBox="0 0 32 32">
<path fill="#000" d="M16 15.728c2.688 0 4.87-2.716 4.87-6.066s-0.716-6.062-4.87-6.062-4.87 2.714-4.87 6.064 2.18 6.064 4.87 6.064z"></path>
<path fill="#000" d="M6.8 25c0-0.2 0-0.058 0 0z"></path>
<path fill="#000" d="M25.2 25.15c0-0.056 0-0.388 0 0z"></path>
<path fill="#000" d="M25.186 24.746c-0.090-5.836-0.834-7.498-6.52-8.552 0 0-0.8 1.046-2.666 1.046s-2.666-1.040-2.666-1.040c-5.624 1.042-6.412 2.68-6.516 8.362 0 0.464-0.012 0.488-0.014 0.434 0 0.1 0 0.288 0 0.614 0 0 1.354 2.8 9.2 2.8s9.2-2.8 9.2-2.8c0-0.2 0-0.354 0-0.454-0.012-0.11-0.018-0.238-0.018-0.367 0-0.015 0-0.030 0-0.046z"></path>
</svg>
