<?xml version="1.0" encoding="utf-8"?>
<!-- Generated by IcoMoon.io -->
<!DOCTYPE svg PUBLIC "-//W3C//DTD SVG 1.1//EN" "http://www.w3.org/Graphics/SVG/1.1/DTD/svg11.dtd">
<svg version="1.1" xmlns="http://www.w3.org/2000/svg" xmlns:xlink="http://www.w3.org/1999/xlink" width="32" height="32" viewBox="0 0 32 32">
<path fill="#444" d="M27.488 23.925c-4.478-1.033-8.646-1.937-6.628-5.743 0.521-0.983 0.964-1.926 1.337-2.831-1.127 0.645-2.387 1.144-3.071 1.314l-0.292-1.385c1.496-0.426 3.11-1.221 4.235-2.389 2.39-8.169-1.651-12.489-7.069-12.489-6.617 0-11.021 6.433-4.86 17.78 2.079 3.829-2.246 4.733-6.628 5.743-4.476 1.032-4.132 3.392-4.132 7.674h31.239c0-4.282 0.344-6.642-4.132-7.674zM16.010 17.715c-0.575 0.118-1.136-0.252-1.254-0.826s0.252-1.136 0.826-1.254l2.283-0.506 0.428 2.080-2.283 0.506z"></path>
</svg>
