<?xml version="1.0" encoding="utf-8"?>
<!-- Generated by IcoMoon.io -->
<!DOCTYPE svg PUBLIC "-//W3C//DTD SVG 1.1//EN" "http://www.w3.org/Graphics/SVG/1.1/DTD/svg11.dtd">
<svg version="1.1" xmlns="http://www.w3.org/2000/svg" xmlns:xlink="http://www.w3.org/1999/xlink" width="32" height="32" viewBox="0 0 32 32">
<path fill="#444" d="M8.974 14.405c-1.175 0-2.128-0.953-2.128-2.128s0.953-2.128 2.128-2.128c1.175 0 2.128 0.953 2.128 2.128s-0.953 2.128-2.128 2.128zM18.113 24.050h-14.951v-16.1h23.14v4.784c0.987 0.069 1.927 0.312 2.788 0.7v-8.272h-28.716v21.676h19.628c-0.808-0.783-1.456-1.731-1.889-2.788zM17.522 21.527c-0.163-2.296 0.629-4.485 2.129-6.129l-2.013-3.053-3.527 5.012-1.917-1.976-5.409 6.146h10.737zM31.625 20.938c0 3.259-2.642 5.901-5.901 5.901s-5.901-2.642-5.901-5.901c0-3.259 2.642-5.901 5.901-5.901s5.901 2.642 5.901 5.901zM29.351 20.037h-7.081v1.973h7.081v-1.973z"></path>
</svg>
