<?xml version="1.0" encoding="utf-8"?>
<!-- Generated by IcoMoon.io -->
<!DOCTYPE svg PUBLIC "-//W3C//DTD SVG 1.1//EN" "http://www.w3.org/Graphics/SVG/1.1/DTD/svg11.dtd">
<svg version="1.1" xmlns="http://www.w3.org/2000/svg" xmlns:xlink="http://www.w3.org/1999/xlink" width="23" height="32" viewBox="0 0 23 32">
<path fill="#444" d="M20.744 8.447l-3.448-3.448c-0.751-0.751-2.234-1.365-3.296-1.365h-11.584c-1.062 0-1.931 0.869-1.931 1.931v20.85c0 1.062 0.869 1.931 1.931 1.931l17.762 0c1.062 0 1.931-0.869 1.931-1.931v-14.673c0-1.062-0.614-2.545-1.365-3.296v0zM19.652 9.54c0.076 0.075 0.151 0.168 0.224 0.273h-3.945l-0-3.944c0.105 0.073 0.198 0.148 0.273 0.224l3.448 3.448zM20.564 26.416c0 0.209-0.177 0.386-0.386 0.386l-17.762-0c-0.209 0-0.386-0.177-0.386-0.386l0-20.851c0-0.209 0.177-0.386 0.386-0.386h11.584c0.117 0 0.248 0.015 0.386 0.041l0 6.137h6.137c0.027 0.139 0.041 0.269 0.041 0.386v14.673zM17.891 22.75l-3.541-3.011c-0.366-0.329-0.757-0.481-1.073-0.466 0.836-0.979 1.341-2.249 1.341-3.637 0-3.096-2.51-5.605-5.605-5.605s-5.606 2.51-5.606 5.605c0 3.096 2.51 5.605 5.606 5.605 1.388 0 2.658-0.505 3.637-1.341-0.015 0.316 0.137 0.708 0.466 1.074l3.011 3.541c0.516 0.573 1.358 0.621 1.872 0.107s0.465-1.356-0.108-1.871v0zM9.012 19.372c-2.064 0-3.737-1.673-3.737-3.737s1.673-3.737 3.737-3.737c2.064 0 3.737 1.673 3.737 3.737s-1.673 3.737-3.737 3.737v0z"></path>
</svg>
