<?xml version="1.0" encoding="utf-8"?>
<!-- Generated by IcoMoon.io -->
<!DOCTYPE svg PUBLIC "-//W3C//DTD SVG 1.1//EN" "http://www.w3.org/Graphics/SVG/1.1/DTD/svg11.dtd">
<svg version="1.1" xmlns="http://www.w3.org/2000/svg" xmlns:xlink="http://www.w3.org/1999/xlink" width="32" height="32" viewBox="0 0 32 32">
<path fill="#444" d="M12.010 31.493c4.564-0.514 7.008-4.246 17.209-4.246 0-3.517 0-12.628 0-12.628-8.839 0-12.541-5.962-13.95-10.473-0.537-1.72-1.082-4.226-3.143-3.634-2.386 0.686-2.045 6.894-0.574 10.997-1.67 1.208-4.311 2.48-8.77 1.923 0.102 1.504 0.271 2.749 1.387 3.065l1.376 0.364c0.484 0.146 0.757 0.657 0.61 1.14s-0.657 0.757-1.14 0.611l-1.433-0.43c0.293 1.921 0.434 2.98 1.732 3.374l1.032 0.328c0.483 0.146 0.756 0.657 0.611 1.14-0.147 0.484-0.657 0.758-1.141 0.611l-1.334-0.453c0.231 1.734 0.397 2.902 1.654 3.282l1.005 0.363c0.484 0.146 0.757 0.657 0.61 1.14s-0.657 0.757-1.14 0.61l-1.079-0.381c0.393 2.764 3.064 3.682 6.479 3.297z"></path>
</svg>
