<?xml version="1.0" encoding="utf-8"?>
<!-- Generated by IcoMoon.io -->
<!DOCTYPE svg PUBLIC "-//W3C//DTD SVG 1.1//EN" "http://www.w3.org/Graphics/SVG/1.1/DTD/svg11.dtd">
<svg version="1.1" xmlns="http://www.w3.org/2000/svg" xmlns:xlink="http://www.w3.org/1999/xlink" width="32" height="32" viewBox="0 0 32 32">
<path fill="#444" d="M26.469 3.804l-1.079-0.381c-0.483-0.147-0.993 0.127-1.14 0.61s0.127 0.994 0.61 1.14l1.005 0.363c1.257 0.38 1.424 1.549 1.654 3.282l-1.334-0.453c-0.484-0.147-0.994 0.127-1.141 0.611-0.146 0.483 0.127 0.994 0.611 1.14l1.032 0.328c1.299 0.393 1.44 1.453 1.732 3.374l-1.433-0.43c-0.483-0.146-0.994 0.127-1.14 0.611s0.126 0.994 0.61 1.14l1.376 0.364c1.116 0.317 1.285 1.561 1.387 3.065-4.46-0.557-7.1 0.714-8.77 1.923 1.471 4.103 1.812 10.311-0.574 10.997-2.061 0.592-2.606-1.914-3.143-3.634-1.409-4.51-5.111-10.473-13.95-10.473 0 0 0-9.111 0-12.628 10.2 0 12.644-3.732 17.209-4.246 3.415-0.385 6.086 0.533 6.479 3.297z"></path>
</svg>
