<?xml version="1.0" encoding="utf-8"?>
<!-- Generated by IcoMoon.io -->
<!DOCTYPE svg PUBLIC "-//W3C//DTD SVG 1.1//EN" "http://www.w3.org/Graphics/SVG/1.1/DTD/svg11.dtd">
<svg version="1.1" xmlns="http://www.w3.org/2000/svg" xmlns:xlink="http://www.w3.org/1999/xlink" width="32" height="32" viewBox="0 0 32 32">
<path fill="#444" d="M25.65 18.423c2.153 1.038 4.673 0.287 5.618-1.671 0.945-1.96-0.055-4.362-2.19-5.437-1.588-0.8-2.705-0.182-4.282-0.952-0.173-0.084-0.353-0.172-0.54-0.263 0.17-0.082 0.335-0.162 0.493-0.239 1.579-0.765 2.694-0.145 4.285-0.941 2.137-1.070 3.143-3.47 2.203-5.432s-3.459-2.718-5.614-1.685c-1.903 0.912-2.896 2.918-2.455 4.726 0.252 1.031-0.293 1.17-1.124 1.569l-0.964 0.462c-3.839-1.857-8.295-4-9.404-4.535-0.291-0.14-0.577-0.199-0.854-0.199-1.444 0-2.615 1.599-2.615 1.599l13.88 6.694c0.83 0.401 1.374 0.541 1.12 1.571-0.445 1.807 0.543 3.815 2.444 4.732zM25.209 13.829c0.481-0.996 1.838-1.34 3.027-0.766s1.765 1.85 1.285 2.846c-0.481 0.997-1.84 1.339-3.027 0.767-1.189-0.573-1.765-1.85-1.285-2.846zM26.462 3.553c1.191-0.571 2.547-0.223 3.025 0.774s-0.102 2.272-1.292 2.843c-1.191 0.571-2.547 0.223-3.025-0.774s0.101-2.273 1.292-2.843zM20.873 10.651c-0.398 0-0.721-0.323-0.721-0.721s0.323-0.721 0.721-0.721c0.398 0 0.721 0.323 0.721 0.721s-0.323 0.721-0.721 0.721zM19.424 12.425c-3.399 1.631-6.853 3.282-7.811 3.741-0.289 0.139-0.575 0.197-0.85 0.197-1.446 0-2.615-1.606-2.615-1.606l8.082-3.874 3.195 1.541zM6.003 26.028l-1.47 1.693c-1.302-1.13-2.367-2.554-3.079-4.118l2.041-0.929c0.58 1.273 1.447 2.433 2.508 3.354zM2.948 21.149l-2.166 0.578c-0.461-1.728-0.516-3.494-0.239-5.135l2.211 0.372c-0.231 1.375-0.171 2.815 0.195 4.184zM3.154 15.396l-2.119-0.733c0.562-1.623 1.489-3.141 2.682-4.388l1.621 1.549c-0.971 1.016-1.726 2.251-2.183 3.572zM6.55 10.747l-1.346-1.794c0.717-0.538 1.48-0.988 2.282-1.349l2.865 1.382 0.005 0.023c-1.386 0.299-2.667 0.884-3.806 1.739zM24.378 20.327c-0.11 0.769-0.293 1.525-0.55 2.26l-2.117-0.739c0.363-1.038 0.547-2.128 0.547-3.239 0-0.017-0.001-0.035-0.001-0.052 0.564 0.708 1.28 1.316 2.121 1.77zM7.31 26.987c1.212 0.743 2.541 1.205 3.952 1.373l-0.265 2.227c-1.735-0.207-3.369-0.775-4.859-1.689l1.172-1.911zM21.053 23.326l1.966 1.079c-0.827 1.507-1.994 2.848-3.375 3.878l-1.341-1.797c1.125-0.839 2.076-1.932 2.75-3.159zM16.928 27.345l1.027 1.993c-1.55 0.799-3.223 1.243-4.971 1.321l-0.1-2.24c1.423-0.064 2.784-0.425 4.044-1.075z"></path>
</svg>
