<?xml version="1.0" encoding="utf-8"?>
<!-- Generated by IcoMoon.io -->
<!DOCTYPE svg PUBLIC "-//W3C//DTD SVG 1.1//EN" "http://www.w3.org/Graphics/SVG/1.1/DTD/svg11.dtd">
<svg version="1.1" xmlns="http://www.w3.org/2000/svg" xmlns:xlink="http://www.w3.org/1999/xlink" width="45" height="32" viewBox="0 0 45 32">
<path d="M39.401 16.578c-0.047-0.094 0.007-0.182-0.1-0.207-0.113-0.026-0.369-0.001-0.369-0.001-0.185 0.014-0.1 0.212-0.223 0.257-0.142 0.052-0.492 0.133-0.643 0.102-0.081-0.017-0.411-0.044-0.411-0.044s-0.407-0.185-0.6-0.011c-0.074 0.066-0.076 0.343-0.369 0.398-0.233 0.044-0.217 0.038-0.751 0.142 0 0 0.452-0.671 0.62-0.897 0.188-0.253 0.262-0.644-0.077-0.667-0.139-0.009-0.466 0.002-0.466 0.002s-1.142-0.515-1.522-0.724c-0.095-0.052-0.221-0.104-0.315-0.227-0.070-0.091-0.138-0.277-0.037-0.403 0.090-0.113 0.282-0.259 0.398-0.365 0.164-0.15 0.175-0.014 0.291-0.124 0.096-0.090 0.083-0.084 0.183-0.172 0.155-0.136-0.007-0.157 0.118-0.275 0.533-0.504 1.513-1.398 2.044-1.879 0.061-0.056-0.022-0.237 0.090-0.332 0.195-0.164 0.566-0.485 0.744-0.636 0.065-0.055 0.108 0.029 0.231-0.083 0.268-0.243 0.839-0.766 1.241-1.091 0.148-0.12 0.12-0.31-0.031-0.463-0.105-0.106-0.253-0.263-0.392-0.384-0.133-0.116-0.435-0.042-0.525 0.033-0.379 0.317-1.258 1.131-1.258 1.131l-0.016 0.089-0.667 0.614c0 0-0.106 0.132-0.214 0l-0.665-0.584c0-0.017-0.121-0.031-0.27-0.031l-0.307 0.294c0 0.125 0 0.226 0 0.226s0.387 0.693 0.496 0.91c0.038 0.075-0.394 0.114-0.602 0.014-0.090-0.044-0.351-0.084-0.434-0.014-0.223 0.189-0.619 0.539-1.047 0.921-0.458-5.547-5.104-9.906-10.769-9.906-5.648 0-10.283 4.332-10.765 9.855-0.439-0.393-0.849-0.755-1.078-0.949-0.083-0.070-0.343-0.030-0.434 0.014-0.208 0.1-0.639 0.062-0.602-0.014 0.108-0.217 0.496-0.91 0.496-0.91s0-0.101 0-0.226l-0.307-0.294c-0.149 0-0.27 0.014-0.27 0.031l-0.665 0.584c-0.108 0.132-0.214 0-0.214 0l-0.667-0.614-0.016-0.089c0 0-0.878-0.814-1.258-1.131-0.090-0.075-0.392-0.148-0.525-0.033-0.139 0.121-0.287 0.279-0.392 0.384-0.151 0.152-0.179 0.343-0.031 0.463 0.402 0.324 0.973 0.847 1.241 1.091 0.123 0.112 0.166 0.028 0.231 0.083 0.177 0.152 0.549 0.473 0.744 0.636 0.113 0.095 0.029 0.277 0.090 0.332 0.532 0.481 1.512 1.375 2.045 1.879 0.125 0.119-0.036 0.139 0.118 0.275 0.1 0.088 0.087 0.082 0.183 0.172 0.117 0.109 0.127-0.026 0.291 0.124 0.116 0.106 0.307 0.252 0.398 0.365 0.1 0.125 0.033 0.312-0.037 0.403-0.094 0.123-0.22 0.174-0.315 0.227-0.38 0.209-1.522 0.724-1.522 0.724s-0.327-0.011-0.466-0.002c-0.339 0.023-0.265 0.414-0.077 0.667 0.168 0.226 0.62 0.897 0.62 0.897-0.534-0.104-0.518-0.099-0.751-0.142-0.293-0.055-0.295-0.332-0.369-0.398-0.193-0.174-0.6 0.011-0.6 0.011s-0.33 0.027-0.411 0.044c-0.151 0.032-0.5-0.050-0.643-0.102-0.123-0.045-0.038-0.243-0.223-0.257 0 0-0.256-0.025-0.369 0.001-0.107 0.025-0.053 0.113-0.1 0.207-0.227 0.451-0.276 0.747-0.172 1.049 0.090 0.262 0.069 0.674 0.221 0.745 0.356 0.167 1.088 0.234 1.493 0.309 0.032 0.006 0.094 0.12 0.126 0.127 0.579 0.131 1.845 0.468 1.845 0.468 0.577 0.135 0.608 0.681 0.514 1.018-0.059 0.212-0.087 0.427-0.008 0.531 0.217 0.285 1.033 0.544 1.669 0.444 0.199 0.001 0.231 0.454 0.246 0.574v0.077l-5.823 0.46v6.756h33.025v-6.709l-5.792-0.523c0.016-0.141 0.054-0.555 0.244-0.556 0.636 0.099 1.452-0.16 1.669-0.444 0.078-0.103 0.051-0.319-0.008-0.531-0.094-0.337-0.063-0.882 0.514-1.018 0 0 1.266-0.337 1.845-0.468 0.032-0.007 0.094-0.122 0.126-0.127 0.406-0.075 1.137-0.142 1.493-0.309 0.153-0.071 0.131-0.484 0.221-0.745 0.104-0.302 0.055-0.598-0.172-1.049zM22.706 7.506c3.19 0 5.776 2.586 5.776 5.776s-2.586 5.776-5.776 5.776-5.776-2.586-5.776-5.776c0-3.19 2.586-5.776 5.776-5.776z" fill="#444444"></path>
</svg>
