<?xml version="1.0" encoding="utf-8"?>
<!-- Generated by IcoMoon.io -->
<!DOCTYPE svg PUBLIC "-//W3C//DTD SVG 1.1//EN" "http://www.w3.org/Graphics/SVG/1.1/DTD/svg11.dtd">
<svg version="1.1" xmlns="http://www.w3.org/2000/svg" xmlns:xlink="http://www.w3.org/1999/xlink" width="32" height="32" viewBox="0 0 32 32">
<path d="M14.925 20.456h-3.432v-7.11h-6.969v7.11h-3.432v-17.111h3.432v7.357h6.969v-7.357h3.432v17.111z" fill="#444444"></path>
<path d="M18.075 20.456v-17.111h5.97c2.092 0 3.815 0.668 5.171 2.004s2.033 3.050 2.033 5.142v2.832c0 2.1-0.678 3.814-2.033 5.142s-3.079 1.992-5.171 1.992h-5.97zM21.506 5.989v11.835h2.538c1.128 0 2.037-0.421 2.726-1.263s1.034-1.922 1.034-3.238v-2.856c0-1.308-0.345-2.382-1.034-3.22s-1.598-1.257-2.726-1.257l-2.538 0z" fill="#444444"></path>
<path d="M16.198 24.445h-0.512v2.388h0.512c0.228 0 0.411-0.085 0.55-0.255s0.209-0.388 0.209-0.653v-0.577c0-0.264-0.070-0.481-0.209-0.65s-0.323-0.254-0.55-0.254z" fill="#444444"></path>
<path d="M13.138 24.86l-0.384 1.217h0.78l-0.382-1.217z" fill="#444444"></path>
<path d="M9.956 24.402c-0.234 0-0.416 0.086-0.547 0.259s-0.196 0.393-0.196 0.662v0.626c0 0.274 0.066 0.497 0.197 0.669s0.315 0.258 0.55 0.258c0.237 0 0.422-0.086 0.555-0.258s0.199-0.395 0.199-0.669v-0.626c0-0.269-0.067-0.489-0.202-0.662s-0.32-0.259-0.557-0.259z" fill="#444444"></path>
<path d="M4.003 25.244c0.1-0.076 0.149-0.187 0.149-0.332 0-0.16-0.050-0.278-0.151-0.353s-0.25-0.114-0.449-0.114h-0.439v0.913h0.462c0.185 0 0.327-0.038 0.427-0.114z" fill="#444444"></path>
<path d="M3.749 25.837h-0.636v0.996h0.643c0.183 0 0.323-0.040 0.42-0.12s0.145-0.198 0.145-0.355c0-0.168-0.047-0.296-0.142-0.387s-0.238-0.135-0.429-0.135z" fill="#444444"></path>
<path d="M6.711 24.445h-0.503v1.006h0.491c0.195 0 0.339-0.041 0.434-0.123s0.142-0.204 0.142-0.365c0-0.158-0.048-0.284-0.143-0.377s-0.236-0.14-0.421-0.14z" fill="#444444"></path>
<path d="M22.533 24.86l-0.384 1.217h0.78l-0.382-1.217z" fill="#444444"></path>
<path d="M30.383 21.763h-28.89c-0.266 0-0.482 0.216-0.482 0.481v6.804c0 0.266 0.216 0.481 0.482 0.481h28.89c0.266 0 0.482-0.215 0.482-0.481v-6.804c0-0.266-0.216-0.481-0.482-0.481zM4.683 27.109c-0.218 0.17-0.527 0.255-0.927 0.255h-1.335v-3.453h1.131c0.406 0 0.723 0.079 0.951 0.238s0.341 0.395 0.341 0.708c0 0.158-0.041 0.3-0.123 0.425s-0.202 0.219-0.361 0.282c0.215 0.039 0.377 0.133 0.486 0.28s0.164 0.319 0.164 0.515c0 0.331-0.109 0.581-0.327 0.751zM8.162 27.364h-0.714c-0.063-0.051-0.104-0.134-0.122-0.251s-0.027-0.23-0.027-0.339v-0.244c0-0.172-0.047-0.306-0.141-0.402s-0.227-0.143-0.4-0.143h-0.55v1.38h-0.693v-3.453h1.195c0.394 0 0.702 0.090 0.924 0.269s0.333 0.43 0.333 0.75c0 0.177-0.047 0.33-0.141 0.459s-0.231 0.233-0.412 0.312c0.204 0.060 0.351 0.16 0.44 0.301s0.134 0.315 0.134 0.522v0.254c0 0.096 0.013 0.197 0.039 0.302s0.071 0.183 0.134 0.234v0.050zM11.405 25.948c0 0.425-0.134 0.776-0.401 1.052s-0.615 0.414-1.044 0.414c-0.427 0-0.773-0.138-1.039-0.415s-0.398-0.627-0.398-1.051v-0.621c0-0.422 0.132-0.772 0.397-1.050s0.61-0.416 1.035-0.416c0.428 0 0.777 0.139 1.046 0.416s0.403 0.627 0.403 1.050v0.621zM13.938 27.364l-0.235-0.745h-1.119l-0.232 0.745h-0.723l1.165-3.453h0.709l1.16 3.453h-0.723zM17.652 25.924c0 0.424-0.137 0.77-0.41 1.038s-0.622 0.402-1.044 0.402h-1.205v-3.453h1.205c0.422 0 0.77 0.135 1.044 0.404s0.41 0.615 0.41 1.038v0.572zM20.802 25.052h-0.674c0-0.221-0.053-0.386-0.16-0.494s-0.271-0.163-0.494-0.163c-0.207 0-0.369 0.083-0.485 0.25s-0.174 0.382-0.174 0.646v0.69c0 0.266 0.061 0.482 0.184 0.65s0.293 0.251 0.511 0.251c0.207 0 0.362-0.054 0.464-0.163s0.153-0.275 0.153-0.499l0.671 0 0.005 0.014c0.006 0.368-0.106 0.657-0.337 0.866s-0.549 0.313-0.956 0.313c-0.414 0-0.749-0.133-1.003-0.4s-0.382-0.611-0.382-1.033v-0.685c0-0.421 0.124-0.765 0.372-1.033s0.574-0.402 0.977-0.402c0.42 0 0.75 0.103 0.987 0.308s0.353 0.495 0.346 0.868l-0.005 0.014zM23.332 27.364l-0.235-0.745h-1.119l-0.232 0.745h-0.723l1.165-3.453h0.709l1.16 3.453h-0.723zM26.534 27.158c-0.231 0.171-0.536 0.256-0.916 0.256-0.372 0-0.691-0.093-0.957-0.277s-0.396-0.461-0.388-0.828l0.005-0.014h0.671c0 0.204 0.060 0.354 0.18 0.451s0.283 0.145 0.489 0.145c0.185 0 0.326-0.039 0.423-0.116s0.146-0.181 0.146-0.311c0-0.133-0.046-0.239-0.139-0.32s-0.255-0.157-0.487-0.228c-0.399-0.12-0.701-0.262-0.907-0.425s-0.309-0.385-0.309-0.666c0-0.283 0.116-0.514 0.349-0.694s0.529-0.269 0.889-0.269c0.383 0 0.691 0.096 0.924 0.289s0.346 0.446 0.338 0.759l-0.005 0.014h-0.671c0-0.172-0.052-0.305-0.157-0.397s-0.251-0.139-0.439-0.139c-0.171 0-0.303 0.041-0.396 0.123s-0.14 0.187-0.14 0.315c0 0.117 0.051 0.213 0.152 0.288s0.276 0.155 0.524 0.238c0.379 0.108 0.669 0.248 0.868 0.421s0.299 0.401 0.299 0.684c0 0.296-0.115 0.529-0.346 0.7zM28.811 24.445v2.92h-0.693v-2.92h-0.973v-0.534h2.651v0.534h-0.986z" fill="#444444"></path>
</svg>
