<?xml version="1.0" encoding="utf-8"?>
<!-- Generated by IcoMoon.io -->
<!DOCTYPE svg PUBLIC "-//W3C//DTD SVG 1.1//EN" "http://www.w3.org/Graphics/SVG/1.1/DTD/svg11.dtd">
<svg version="1.1" xmlns="http://www.w3.org/2000/svg" xmlns:xlink="http://www.w3.org/1999/xlink" width="32" height="32" viewBox="0 0 32 32">
<path d="M14.925 24.49h-3.432v-7.11h-6.969v7.11h-3.432v-17.111h3.432v7.357h6.969v-7.357h3.432v17.111z" fill="#444444"></path>
<path d="M18.075 24.49v-17.111h5.97c2.092 0 3.815 0.668 5.171 2.004s2.033 3.050 2.033 5.142v2.832c0 2.1-0.678 3.814-2.033 5.142s-3.079 1.992-5.171 1.992h-5.97zM21.506 10.023v11.835h2.538c1.128 0 2.037-0.421 2.726-1.263s1.034-1.922 1.034-3.238v-2.856c0-1.308-0.345-2.382-1.034-3.22s-1.598-1.257-2.726-1.257h-2.538z" fill="#444444"></path>
</svg>
