<?xml version="1.0" encoding="utf-8"?>
<!-- Generated by IcoMoon.io -->
<!DOCTYPE svg PUBLIC "-//W3C//DTD SVG 1.1//EN" "http://www.w3.org/Graphics/SVG/1.1/DTD/svg11.dtd">
<svg version="1.1" xmlns="http://www.w3.org/2000/svg" xmlns:xlink="http://www.w3.org/1999/xlink" width="32" height="32" viewBox="0 0 32 32">
<path d="M15.933 0.067c-8.837 0-16 7.163-16 16s7.163 16 16 16c8.837 0 16-7.163 16-16s-7.163-16-16-16zM15.933 28.867c-7.069 0-12.8-5.731-12.8-12.8s5.731-12.8 12.8-12.8c7.069 0 12.8 5.731 12.8 12.8s-5.731 12.8-12.8 12.8zM17 15v-4.267h4.267v-2.133h-4.267v-2.133h-2.133v2.133h-4.267v8.533h4.267v4.267h-4.267v2.133h4.267v2.133h2.133v-2.133h4.267l-0-8.533h-4.267zM14.867 15h-2.133v-4.267h2.133v4.267zM19.133 21.4h-2.133v-4.267h2.133v4.267z" fill="#444444"></path>
</svg>
