<?xml version="1.0" encoding="utf-8"?>
<!-- Generated by IcoMoon.io -->
<!DOCTYPE svg PUBLIC "-//W3C//DTD SVG 1.1//EN" "http://www.w3.org/Graphics/SVG/1.1/DTD/svg11.dtd">
<svg version="1.1" xmlns="http://www.w3.org/2000/svg" xmlns:xlink="http://www.w3.org/1999/xlink" width="32" height="32" viewBox="0 0 32 32">
<path d="M19.422 12.676c-3.4 1.631-6.854 3.283-7.813 3.742-1.809 0.867-3.466-1.409-3.466-1.409l8.084-3.875 3.195 1.541zM31.268 17.004c-0.946 1.96-3.466 2.71-5.62 1.672-1.901-0.917-2.889-2.926-2.444-4.733 0.254-1.031-0.29-1.171-1.12-1.572l-13.883-6.696c0 0 1.663-2.272 3.47-1.4 1.11 0.535 5.566 2.679 9.406 4.536l0.964-0.462c0.831-0.399 1.376-0.538 1.124-1.569-0.441-1.808 0.553-3.815 2.456-4.727 2.155-1.033 4.674-0.277 5.615 1.686s-0.066 4.363-2.203 5.433c-1.591 0.796-2.706 0.176-4.286 0.941-0.158 0.077-0.324 0.157-0.494 0.239 0.187 0.091 0.367 0.179 0.54 0.263 1.578 0.769 2.695 0.152 4.283 0.952 2.135 1.076 3.136 3.478 2.19 5.439zM25.169 6.646c0.478 0.997 1.835 1.344 3.026 0.774s1.77-1.846 1.292-2.843c-0.478-0.997-1.835-1.345-3.026-0.774s-1.77 1.846-1.292 2.844zM21.591 10.181c0-0.398-0.323-0.721-0.721-0.721s-0.721 0.323-0.721 0.721c0 0.398 0.323 0.721 0.721 0.721s0.721-0.323 0.721-0.721zM28.235 13.313c-1.189-0.573-2.547-0.229-3.028 0.767s0.096 2.273 1.285 2.847c1.189 0.573 2.547 0.23 3.028-0.767s-0.096-2.273-1.285-2.847zM2.679 14.252h-2.304v3.725h2.304v-3.725zM7.622 8.038v2.302h4.916l-4.916-2.302zM2.679 10.34h3.011v-2.304h-5.315v4.284h2.304v-1.98zM2.679 25.568h-2.304v4.843h5.315v-2.304h-3.011v-2.539zM2.679 19.91h-2.304v3.726h2.304v-3.726zM22.981 28.107h-2.456v2.304h4.76v-4.843h-2.304v2.539zM22.981 19.421v4.215h2.304v-2.773c-0.913-0.33-1.635-0.826-2.304-1.442zM7.622 30.411h4.598v-2.304h-4.598v2.304zM14.153 30.411h4.439v-2.304h-4.439v2.304z" fill="#444444"></path>
</svg>
