<?xml version="1.0" encoding="utf-8"?>
<!-- Generated by IcoMoon.io -->
<!DOCTYPE svg PUBLIC "-//W3C//DTD SVG 1.1//EN" "http://www.w3.org/Graphics/SVG/1.1/DTD/svg11.dtd">
<svg version="1.1" xmlns="http://www.w3.org/2000/svg" xmlns:xlink="http://www.w3.org/1999/xlink" width="32" height="32" viewBox="0 0 32 32">
<path d="M23.998 10.876v1.041h-3.269v-1.041h3.269zM8.004 11.917h4.136c0.044-0.347 0.088-0.693 0.133-1.041h-4.269v1.041zM8.004 13.971h3.872c0.046-0.353 0.090-0.699 0.134-1.041h-4.006v1.041zM27.285 4.768v10.682c0 0.908-0.736 1.643-1.643 1.643h-3.563c-0.034 0.461-0.113 0.972-0.237 1.563-0.485 2.301-1.757 5.496-0.891 9.032-2.482 0.383-3.918 0.562-6.43 1.186-0.293-4.359-2.43-5.304-1.935-9.087 0.581-4.438 0.905-6.933 1.283-9.93 0.119-0.943 0.785-1.402 1.435-1.402 0.677 0 1.337 0.498 1.343 1.465 0.023 3.544 0.116 7.074 0.348 7.932 0.157 0.579 1.166 0.684 1.166-0.549 0-0.138-0.002-1.854-0.002-1.854h6.935c0.303 0 0.548-0.245 0.548-0.548v-5.487h-7.58c-0.228-1.463-1.398-2.414-2.757-2.415-0 0-0 0-0 0-1.328 0-2.535 0.919-2.835 2.415h-6.109v5.487c0 0.303 0.245 0.548 0.548 0.548h4.778c-0.068 0.522-0.139 1.067-0.214 1.643h-5.112c-0.908 0-1.643-0.736-1.643-1.643v-10.682c0-0.908 0.736-1.643 1.643-1.643h19.282c0.908 0 1.643 0.736 1.643 1.643zM25.641 5.316c0-0.303-0.245-0.548-0.548-0.548h-18.187c-0.303 0-0.548 0.245-0.548 0.548v1.159h19.282v-1.159zM8.96 21.878c0.912-0.228 1.819-0.508 2.087-0.593-0.014-0.5 0.013-1.055 0.096-1.687 0.050-0.381 0.098-0.747 0.144-1.102l-3.486 1.239c-0.663 0.241-0.881 0.692-0.704 1.229 0.213 0.646 0.928 1.148 1.863 0.914zM11.143 22.314l-2.175 0.705c-0.494 0.179-0.657 0.516-0.525 0.916 0.159 0.481 0.692 0.856 1.389 0.681 0.651-0.163 1.511-0.425 1.825-0.522-0.217-0.542-0.405-1.11-0.514-1.78z" fill="#444444"></path>
</svg>
