<?xml version="1.0" encoding="utf-8"?>
<!-- Generated by IcoMoon.io -->
<!DOCTYPE svg PUBLIC "-//W3C//DTD SVG 1.1//EN" "http://www.w3.org/Graphics/SVG/1.1/DTD/svg11.dtd">
<svg version="1.1" xmlns="http://www.w3.org/2000/svg" xmlns:xlink="http://www.w3.org/1999/xlink" width="25" height="32" viewBox="0 0 25 32">
<path d="M16.888 8.869h-7.932c-4.283 0-7.755 3.472-7.755 7.755s3.472 7.755 7.755 7.755c3.431 0 5.825-2.072 7.609-4.547h-5.348c-0.614 0.668-1.421 1.075-2.305 1.075-1.383 0-2.578-0.993-3.139-2.431h11.693c0.978-1.59 1.751-3.221 2.419-4.496 1.172-2.237-0.176-5.111-2.996-5.111zM5.619 15.235c0.469-1.683 1.766-2.894 3.293-2.894s2.824 1.211 3.293 2.894h-6.586zM17.479 15.418h-1.34l-0.812-2.835h-0.502l-0.181 1.396c-0.022 0.168-0.020 0.279 0.005 0.333 0.039 0.084 0.12 0.126 0.243 0.126 0.111 0 0.271-0.032 0.48-0.096l-0.024 1.043c-0.384 0.082-0.738 0.123-1.063 0.123-0.376 0-0.647-0.048-0.813-0.145s-0.278-0.243-0.338-0.439c-0.060-0.197-0.061-0.515-0.004-0.954l0.18-1.386h-0.557l0.143-1.106h0.557l0.094-0.724 1.615-0.776-0.194 1.499h1.613l0.441 2.498 1.117-2.498h1.524l-2.186 3.941z" fill="#444444"></path>
<path d="M18.298 7.811c0 0 3.966 0.881 3.173 5.288 1.763-3.261-0.705-5.728-3.173-5.288z" fill="#444444"></path>
<path d="M18.21 6.401c4.671 0 6.521 3.966 4.406 7.227 3.701-3.173 1.234-8.813-4.406-7.226z" fill="#444444"></path>
</svg>
