<?xml version="1.0" encoding="utf-8"?>
<!-- Generated by IcoMoon.io -->
<!DOCTYPE svg PUBLIC "-//W3C//DTD SVG 1.1//EN" "http://www.w3.org/Graphics/SVG/1.1/DTD/svg11.dtd">
<svg version="1.1" xmlns="http://www.w3.org/2000/svg" xmlns:xlink="http://www.w3.org/1999/xlink" width="32" height="32" viewBox="0 0 32 32">
<path d="M16.031 23.509c-5.1 0-9.879-3.497-12.906-7.934 3.368-4.721 8.338-7.083 12.906-7.083 4.587 0 9.595 2.337 12.844 7.057-2.786 4.643-7.562 7.961-12.844 7.961zM5.85 15.611c2.486 3.071 6.158 5.71 10.181 5.71 5.48 0 9.027-4.106 10.188-5.686-2.473-2.91-6.11-4.956-10.188-4.956-5.301 0-8.914 3.489-10.181 4.932zM16.147 16.005l-3.649-2.358c-0.44 0.679-0.695 1.489-0.695 2.358 0 2.399 1.945 4.344 4.344 4.344s4.345-1.945 4.345-4.344-1.945-4.344-4.345-4.344c-0.806 0-1.561 0.22-2.208 0.602l2.208 3.742z" fill="#444444"></path>
</svg>
