<?xml version="1.0" encoding="utf-8"?>
<!-- Generated by IcoMoon.io -->
<!DOCTYPE svg PUBLIC "-//W3C//DTD SVG 1.1//EN" "http://www.w3.org/Graphics/SVG/1.1/DTD/svg11.dtd">
<svg version="1.1" xmlns="http://www.w3.org/2000/svg" xmlns:xlink="http://www.w3.org/1999/xlink" width="32" height="32" viewBox="0 0 32 32">
<path d="M19.172 8.23c0.875 0 1.584-0.709 1.584-1.584s-0.709-1.584-1.584-1.584h-5.050c-0.533 0-1.005 0.264-1.292 0.668-0.020 0.028-0.040 0.057-0.058 0.087-0.019 0.031-0.037 0.063-0.054 0.095-0.044 0.084-0.081 0.172-0.109 0.263-0.020 0.064-0.035 0.129-0.047 0.196-0.016 0.089-0.024 0.181-0.024 0.275v9.597c0 0.875 0.709 1.584 1.584 1.584v0c0.875 0 1.584-0.709 1.584-1.584v-2.973h2.474c0.875 0 1.584-0.709 1.584-1.584s-0.709-1.584-1.584-1.584h-2.473v-1.871l3.466 0z" fill="#444444"></path>
<path d="M6.456 26.815c0.080-0.062 0.209-0.093 0.385-0.093 0.342 0 0.747 0.108 1.217 0.323l0.416-1.049c-0.541-0.241-1.072-0.361-1.592-0.361-0.589 0-1.052 0.13-1.389 0.389s-0.505 0.62-0.505 1.083c0 0.248 0.039 0.462 0.119 0.643s0.201 0.342 0.364 0.481c0.164 0.14 0.41 0.284 0.738 0.433 0.362 0.163 0.585 0.271 0.669 0.323s0.144 0.105 0.182 0.157c0.038 0.052 0.057 0.112 0.057 0.18 0 0.11-0.047 0.2-0.141 0.27s-0.242 0.105-0.444 0.105c-0.234 0-0.491-0.037-0.77-0.112s-0.549-0.178-0.808-0.311v1.21c0.245 0.117 0.481 0.199 0.708 0.246s0.508 0.071 0.842 0.071c0.401 0 0.751-0.067 1.049-0.201s0.526-0.322 0.684-0.564c0.158-0.242 0.237-0.519 0.237-0.831 0-0.339-0.084-0.621-0.253-0.844s-0.469-0.433-0.903-0.628c-0.452-0.206-0.729-0.349-0.83-0.427s-0.153-0.166-0.153-0.265c-0-0.091 0.040-0.168 0.12-0.23z" fill="#444444"></path>
<path d="M10.982 25.629c-0.798 0-1.406 0.221-1.824 0.662s-0.628 1.080-0.628 1.917c0 0.846 0.21 1.49 0.631 1.933s1.025 0.664 1.814 0.664c0.8 0 1.408-0.22 1.823-0.66s0.622-1.083 0.622-1.929c0-0.848-0.206-1.491-0.619-1.929s-1.019-0.657-1.819-0.657zM11.741 29.319c-0.166 0.236-0.421 0.354-0.765 0.354-0.676 0-1.014-0.486-1.014-1.458 0-0.981 0.34-1.472 1.021-1.472 0.335 0 0.586 0.12 0.755 0.359s0.253 0.61 0.253 1.113c0 0.5-0.083 0.868-0.249 1.104z" fill="#444444"></path>
<path d="M16.032 26.75c0.213 0 0.413 0.030 0.598 0.089s0.371 0.133 0.557 0.22l0.416-1.070c-0.495-0.236-1.014-0.354-1.558-0.354-0.497 0-0.93 0.106-1.298 0.318s-0.65 0.515-0.846 0.91c-0.196 0.394-0.294 0.852-0.294 1.372 0 0.832 0.202 1.468 0.607 1.909s0.986 0.66 1.745 0.66c0.53 0 1.004-0.093 1.424-0.279v-1.148c-0.211 0.087-0.421 0.162-0.629 0.224s-0.424 0.093-0.646 0.093c-0.736 0-1.104-0.484-1.104-1.451 0-0.465 0.091-0.831 0.272-1.095s0.433-0.397 0.756-0.397z" fill="#444444"></path>
<path d="M17.828 25.708h1.365v5.028h-1.365v-5.028z" fill="#444444"></path>
<path d="M20.842 25.687l-1.64 5.048h1.492l0.254-0.942h1.633l0.248 0.942h1.486l-1.661-5.048h-1.813zM21.23 28.679c0.209-0.788 0.343-1.317 0.404-1.585s0.101-0.461 0.122-0.578c0.023 0.126 0.071 0.335 0.143 0.626s0.134 0.528 0.184 0.712l0.217 0.825-1.069 0z" fill="#444444"></path>
<path d="M25.681 25.708h-1.358v5.028h3.294v-1.097h-1.936z" fill="#444444"></path>
<path d="M29.28 22.548c0.535-0.43 0.936-1.043 0.903-1.695-0.026-0.517-0.234-0.983-0.559-1.338 0.54-1.505 0.836-3.127 0.836-4.818 0-7.875-6.384-14.26-14.26-14.26s-14.26 6.384-14.26 14.26c0 3.973 1.625 7.565 4.246 10.151h2.161c-3.030-2.348-4.982-6.021-4.982-10.151 0-7.088 5.746-12.834 12.834-12.834s12.834 5.746 12.834 12.834c0 1.45-0.242 2.844-0.686 4.144-0.135-0.019-0.273-0.026-0.414-0.019-1 0.051-1.76 0.726-1.942 1.649-0.195-0.049-0.414-0.073-0.657-0.073-0.074 0-0.151 0.002-0.234 0.006-0.050 0.003-0.099 0.007-0.147 0.013 1.076-1.644 1.703-3.609 1.703-5.72 0-2.703-1.029-5.168-2.712-7.024-0.466-0.523-1.256-0.593-1.787-0.137l-0.962 0.825c-0.521 0.447-0.589 1.223-0.163 1.754 0.008 0.012 0.016 0.023 0.026 0.033 1.113 1.19 1.797 2.791 1.797 4.549 0 3.675-2.979 6.655-6.655 6.655s-6.655-2.979-6.655-6.655c0-1.758 0.684-3.359 1.797-4.549 0.012-0.013 0.023-0.028 0.033-0.043 0.417-0.531 0.347-1.301-0.171-1.744l-0.962-0.825c-0.531-0.456-1.323-0.386-1.787 0.137-1.682 1.856-2.712 4.322-2.712 7.024 0 4.907 3.38 9.024 7.939 10.151h5.037c1.636-0.405 3.121-1.195 4.352-2.268 0 0.024 0.001 0.048 0.002 0.072 0.057 1.116 0.96 1.95 2.197 2.030 0.222 0.014 0.476-0.023 0.719-0.097 0.222 0.952 1.074 1.651 2.084 1.651 0.037 0 0.073-0.001 0.11-0.003 0.572-0.029 1.097-0.279 1.481-0.704s0.578-0.973 0.549-1.545c-0.030-0.597-0.433-1.087-0.933-1.437zM29 24.93c-0.223 0.247-0.53 0.393-0.862 0.41-0.692 0.035-1.275-0.497-1.31-1.182-0.003-0.068-0.003-0.068 0.011-0.131 0.004-0.018 0.009-0.038 0.014-0.062l0.3-1.376-1.039 0.951c-0.116 0.106-0.508 0.268-0.787 0.25-0.629-0.040-1.323-0.428-1.361-1.183-0.035-0.687 0.495-1.275 1.182-1.31 0.068-0.003 0.129-0.005 0.188-0.005 0.372 0 0.616 0.069 0.769 0.216l1.060 1.023-0.313-1.44c-0.001-0.004-0.002-0.008-0.002-0.011v-0.008c0-0.025 0-0.054-0.002-0.097-0.035-0.694 0.441-1.224 1.132-1.259 0.693-0.034 1.274 0.497 1.31 1.183 0.024 0.469-0.539 1.030-1.079 1.26l-0.994 0.422 1.001 0.404c0.515 0.208 1.080 0.624 1.101 1.046 0.017 0.333-0.097 0.652-0.32 0.9z" fill="#444444"></path>
</svg>
