<?xml version="1.0" encoding="utf-8"?>
<!-- Generated by IcoMoon.io -->
<!DOCTYPE svg PUBLIC "-//W3C//DTD SVG 1.1//EN" "http://www.w3.org/Graphics/SVG/1.1/DTD/svg11.dtd">
<svg version="1.1" xmlns="http://www.w3.org/2000/svg" xmlns:xlink="http://www.w3.org/1999/xlink" width="32" height="32" viewBox="0 0 32 32">
<path d="M4.873 3.18l-0.641 0.209c0.144 0.444-0.089 0.919-0.518 1.060l8.266 25.67c0.429-0.141 0.894 0.106 1.036 0.55l0.641-0.209c-0.143-0.444 0.089-0.919 0.518-1.060l-8.266-25.669c-0.429 0.14-0.894-0.107-1.037-0.551zM22.293 9.811c0 0 2.885-8.332 2.377-8.321-3.783 0.24-5.728 1.795-8.29 2.513-2.073 0.837-7.32-0.838-7.32-0.838l5.247 17.618c0 0 4.183-1.634 6.887-2.96 2.704-1.327 1.779-2.577 4.182-2.872 0.376-0.046 3.494 0.090 3.87 0.179l-6.953-5.319z" fill="#444444"></path>
</svg>
