<?xml version="1.0" encoding="utf-8"?>
<!-- Generated by IcoMoon.io -->
<!DOCTYPE svg PUBLIC "-//W3C//DTD SVG 1.1//EN" "http://www.w3.org/Graphics/SVG/1.1/DTD/svg11.dtd">
<svg version="1.1" xmlns="http://www.w3.org/2000/svg" xmlns:xlink="http://www.w3.org/1999/xlink" width="32" height="32" viewBox="0 0 32 32">
<path d="M30.649 17.973v-3.946l-2.132-0.758c-0.813-0.289-1.467-0.91-1.797-1.707-0-0-0-0.001-0-0.001-0.331-0.799-0.308-1.701 0.063-2.482l0.971-2.043-2.79-2.79-2.042 0.971c-0.781 0.371-1.684 0.394-2.482 0.063-0-0-0.001-0-0.001-0-0.797-0.331-1.417-0.984-1.707-1.797l-0.758-2.132h-3.946l-0.758 2.132c-0.289 0.813-0.91 1.467-1.707 1.797-0 0-0.001 0-0.001 0-0.799 0.331-1.701 0.308-2.482-0.063l-2.043-0.971-2.79 2.79 0.971 2.042c0.371 0.781 0.394 1.684 0.063 2.482-0 0-0 0.001-0 0.001-0.331 0.797-0.984 1.417-1.797 1.707l-2.132 0.758v3.946l2.132 0.758c0.813 0.289 1.467 0.91 1.797 1.707 0 0 0 0.001 0 0.001 0.331 0.799 0.308 1.701-0.063 2.482l-0.971 2.043 2.79 2.79 2.042-0.971c0.781-0.371 1.684-0.394 2.482-0.063 0 0 0.001 0 0.001 0 0.797 0.331 1.417 0.984 1.707 1.797l0.758 2.132h3.946l0.753-2.118c0.292-0.82 0.918-1.481 1.722-1.815 0-0 0.001-0 0.001-0 0.791-0.329 1.685-0.307 2.459 0.061l2.055 0.977 2.79-2.79-0.971-2.044c-0.371-0.78-0.394-1.682-0.063-2.48 0-0 0-0.001 0-0.001 0.331-0.798 0.985-1.419 1.799-1.708l2.131-0.758zM16 21.372c-2.967 0-5.372-2.405-5.372-5.372s2.405-5.372 5.372-5.372c2.967 0 5.372 2.405 5.372 5.372s-2.405 5.372-5.372 5.372z" fill="#444444"></path>
</svg>
