<?xml version="1.0" encoding="utf-8"?>
<!-- Generated by IcoMoon.io -->
<!DOCTYPE svg PUBLIC "-//W3C//DTD SVG 1.1//EN" "http://www.w3.org/Graphics/SVG/1.1/DTD/svg11.dtd">
<svg version="1.1" xmlns="http://www.w3.org/2000/svg" xmlns:xlink="http://www.w3.org/1999/xlink" width="32" height="32" viewBox="0 0 32 32">
<path d="M25.511 9.721l-8.829-5.098c-0.623-0.36-1.42-0.146-1.779 0.476l-8.891 15.399c-0.36 0.624-0.147 1.42 0.476 1.78l8.829 5.097c0.623 0.36 1.42 0.146 1.78-0.477l8.891-15.399c0.359-0.623 0.146-1.42-0.477-1.78zM13.085 23.2c-0.353 0.612-1.136 0.822-1.748 0.468s-0.822-1.136-0.468-1.748c0.353-0.613 1.136-0.822 1.748-0.469s0.822 1.136 0.468 1.748zM17.367 22.929l-8.036-4.64 6.8-11.778 8.036 4.64-6.8 11.778z" fill="#444444"></path>
</svg>
