<?xml version="1.0" encoding="utf-8"?>
<!-- Generated by IcoMoon.io -->
<!DOCTYPE svg PUBLIC "-//W3C//DTD SVG 1.1//EN" "http://www.w3.org/Graphics/SVG/1.1/DTD/svg11.dtd">
<svg version="1.1" xmlns="http://www.w3.org/2000/svg" xmlns:xlink="http://www.w3.org/1999/xlink" width="32" height="32" viewBox="0 0 32 32">
<path d="M28.838 11.358v14.257h-20.698v-14.257h20.698zM31.625 8.57h-26.274v19.833h26.274v-19.833zM19.423 20.98c-1.459-0.337-2.817-0.631-2.159-1.871 2.002-3.774 0.531-5.793-1.583-5.793-2.156 0-3.591 2.096-1.583 5.793 0.677 1.247-0.732 1.542-2.159 1.871-1.458 0.336-1.346 1.105-1.346 2.5h10.177c0-1.395 0.112-2.164-1.346-2.5zM26.498 13.49h-5.194v2.091h5.194v-2.091zM26.498 17.439h-5.194v2.091h5.194v-2.091zM26.498 21.389h-3.051v2.091h3.051v-2.091zM26.952 3.597h-26.577v20.212h2.788v-17.424h23.789v-2.788z" fill="#444444"></path>
</svg>
