<?xml version="1.0" encoding="utf-8"?>
<!-- Generated by IcoMoon.io -->
<!DOCTYPE svg PUBLIC "-//W3C//DTD SVG 1.1//EN" "http://www.w3.org/Graphics/SVG/1.1/DTD/svg11.dtd">
<svg version="1.1" xmlns="http://www.w3.org/2000/svg" xmlns:xlink="http://www.w3.org/1999/xlink" width="32" height="32" viewBox="0 0 32 32">
<path d="M11.267 5.077h-3.277c-2.002 0-2.913 0.91-2.913 2.913v3.277c0 2.002 0.91 2.913 2.913 2.913h3.277c2.002 0 2.913-0.91 2.913-2.913v-3.277c0-2.002-0.91-2.913-2.913-2.913zM24.010 5.077h-3.277c-2.003 0-2.913 0.91-2.913 2.913v3.277c0 2.002 0.91 2.913 2.913 2.913h3.277c2.003 0 2.913-0.91 2.913-2.913v-3.277c0-2.002-0.91-2.913-2.913-2.913zM11.267 17.82h-3.277c-2.002 0-2.913 0.91-2.913 2.913v3.277c0 2.003 0.91 2.913 2.913 2.913h3.277c2.002 0 2.913-0.91 2.913-2.913v-3.277c0-2.003-0.91-2.913-2.913-2.913zM24.010 17.82h-3.277c-2.003 0-2.913 0.91-2.913 2.913v3.277c0 2.003 0.91 2.913 2.913 2.913h3.277c2.003 0 2.913-0.91 2.913-2.913v-3.277c0-2.003-0.91-2.913-2.913-2.913z" fill="#444444"></path>
</svg>
