<?xml version="1.0" encoding="utf-8"?>
<!-- Generated by IcoMoon.io -->
<!DOCTYPE svg PUBLIC "-//W3C//DTD SVG 1.1//EN" "http://www.w3.org/Graphics/SVG/1.1/DTD/svg11.dtd">
<svg version="1.1" xmlns="http://www.w3.org/2000/svg" xmlns:xlink="http://www.w3.org/1999/xlink" width="32" height="32" viewBox="0 0 32 32">
<path d="M15.79 0.3c-8.67 0.116-15.606 7.238-15.49 15.91 0.116 8.673 7.24 15.606 15.91 15.491 8.672-0.116 15.607-7.24 15.49-15.91-0.116-8.673-7.24-15.607-15.91-15.491zM15.819 2.347c2.338-0.032 4.547 0.529 6.485 1.538l-2.113 3.523c-1.266-0.616-2.688-0.964-4.192-0.964-1.502 0-2.924 0.348-4.19 0.966l-2.111-3.521c1.833-0.956 3.912-1.51 6.12-1.541zM7.409 20.19l-3.519 2.109c-0.956-1.831-1.51-3.91-1.539-6.117-0.032-2.34 0.529-4.548 1.538-6.485l3.521 2.115c-0.618 1.265-0.966 2.685-0.966 4.188 0 1.502 0.348 2.924 0.966 4.19zM16.183 29.652c-2.338 0.032-4.548-0.529-6.485-1.538l2.113-3.523c1.266 0.618 2.688 0.966 4.19 0.966 1.504 0 2.925-0.346 4.19-0.964l2.111 3.519c-1.833 0.954-3.91 1.509-6.118 1.539zM16 23.508c-4.147 0-7.508-3.362-7.508-7.508 0-4.147 3.362-7.509 7.508-7.509 4.149 0 7.509 3.362 7.509 7.509s-3.36 7.508-7.509 7.508zM24.591 20.19c0.618-1.266 0.966-2.688 0.966-4.19 0-1.504-0.348-2.924-0.966-4.19l3.519-2.113c0.956 1.833 1.512 3.91 1.541 6.118 0.031 2.34-0.531 4.548-1.539 6.485l-3.521-2.111z" fill="#444444"></path>
</svg>
