<?xml version="1.0" encoding="utf-8"?>
<!-- Generated by IcoMoon.io -->
<!DOCTYPE svg PUBLIC "-//W3C//DTD SVG 1.1//EN" "http://www.w3.org/Graphics/SVG/1.1/DTD/svg11.dtd">
<svg version="1.1" xmlns="http://www.w3.org/2000/svg" xmlns:xlink="http://www.w3.org/1999/xlink" width="32" height="32" viewBox="0 0 32 32">
<path d="M14.207 19.166c-0.399 0.399-0.399 1.049 0 1.449 0.193 0.193 0.45 0.3 0.724 0.3s0.53-0.106 0.725-0.3l3.725-3.724c0.093-0.095 0.166-0.205 0.221-0.336 0.051-0.125 0.076-0.255 0.076-0.387s-0.026-0.262-0.080-0.396c-0.053-0.125-0.127-0.235-0.221-0.328l-3.722-3.722c-0.193-0.194-0.451-0.3-0.725-0.3s-0.531 0.107-0.724 0.3c-0.399 0.399-0.399 1.049 0 1.449l1.974 1.974h-13.54c-0.565 0-1.024 0.46-1.024 1.024s0.459 1.024 1.024 1.024h13.54l-1.974 1.974z" fill="#444444"></path>
<path d="M21.884 6.997h-11.516c-1.883 0-3.414 1.531-3.414 3.413l0.002 3.621h0.205c0.187 0.25 0.486 0.413 0.818 0.413 0.342 0 0.642-0.164 0.827-0.418l0.197-0.003v-3.613c0-0.752 0.612-1.364 1.365-1.364h11.516c0.752 0 1.365 0.612 1.365 1.364v11.516c0 0.753-0.613 1.364-1.365 1.364h-11.516c-0.753 0-1.365-0.612-1.365-1.364l-0.002-3.623h-0.205c-0.187-0.25-0.486-0.412-0.817-0.412-0.334 0-0.634 0.165-0.821 0.418l-0.203 0.003v3.614c0 1.882 1.531 3.413 3.414 3.413h11.516c1.882 0 3.413-1.531 3.413-3.413v-11.516c0-1.882-1.531-3.413-3.413-3.413z" fill="#444444"></path>
</svg>
