<?xml version="1.0" encoding="utf-8"?>
<!-- Generated by IcoMoon.io -->
<!DOCTYPE svg PUBLIC "-//W3C//DTD SVG 1.1//EN" "http://www.w3.org/Graphics/SVG/1.1/DTD/svg11.dtd">
<svg version="1.1" xmlns="http://www.w3.org/2000/svg" xmlns:xlink="http://www.w3.org/1999/xlink" width="32" height="32" viewBox="0 0 32 32">
<path d="M28.327 10.93c-2.702-6.289-7.052-11.078-9.252-10.182-3.736 1.519 2.227 8.813-16.121 16.271-1.585 0.643-1.987 3.222-1.323 4.763 0.662 1.541 2.83 3.075 4.415 2.432 0.273-0.111 1.282-0.435 1.282-0.435 1.132 1.519 2.316 0.618 2.737 1.584 0.505 1.161 1.603 3.681 1.975 4.538 0.375 0.857 1.222 1.652 1.836 1.418 0.611-0.234 2.698-1.029 3.497-1.331s0.99-1.015 0.746-1.577c-0.263-0.604-1.341-0.782-1.649-1.488-0.309-0.707-1.314-2.968-1.603-3.681-0.393-0.969 0.442-1.758 1.655-1.884 8.352-0.87 9.914 4.289 12.757 3.132 2.195-0.898 1.748-7.27-0.954-13.559zM27.387 21.13c-0.488 0.198-3.775-2.393-5.876-7.282-2.099-4.888-1.835-9.356-1.348-9.554 0.488-0.2 3.695 2.929 5.796 7.817 2.098 4.886 1.917 8.822 1.428 9.020z" fill="#444444"></path>
</svg>
