<?xml version="1.0" encoding="utf-8"?>
<!-- Generated by IcoMoon.io -->
<!DOCTYPE svg PUBLIC "-//W3C//DTD SVG 1.1//EN" "http://www.w3.org/Graphics/SVG/1.1/DTD/svg11.dtd">
<svg version="1.1" xmlns="http://www.w3.org/2000/svg" xmlns:xlink="http://www.w3.org/1999/xlink" width="32" height="32" viewBox="0 0 32 32">
<path d="M27.031 13.876c-1.75 1.75-3.727 1.786-4.15 1.852l-6.608-6.608c0.082-0.511 0.131-2.427 1.853-4.149 2.459-2.459 6.446-2.459 8.905 0s2.459 6.446 0 8.905zM15.361 25.27l-2.083-2.082-7.3 5.686-2.853-2.853 5.682-7.302-2.116-2.116 7.064-7.064 8.671 8.667-7.064 7.064zM15.361 21.821l3.614-3.614-5.219-5.219-3.614 3.614 5.219 5.219zM14.047 15.862l-0.582 0.582 0.819 0.43-1.44 1.44 1.906 0.655 1.884-1.884-2.587-1.223z" fill="#444444"></path>
</svg>
