<?xml version="1.0" encoding="utf-8"?>
<!-- Generated by IcoMoon.io -->
<!DOCTYPE svg PUBLIC "-//W3C//DTD SVG 1.1//EN" "http://www.w3.org/Graphics/SVG/1.1/DTD/svg11.dtd">
<svg version="1.1" xmlns="http://www.w3.org/2000/svg" xmlns:xlink="http://www.w3.org/1999/xlink" width="32" height="32" viewBox="0 0 32 32">
<path d="M30.838 3.43c-0.585 0.207-29.561 10.416-30.131 10.617-0.485 0.171-0.594 0.589-0.017 0.818 0.684 0.275 6.479 2.596 6.479 2.596h-0.002l3.842 1.539c0 0 18.495-13.583 18.746-13.766 0.251-0.184 0.543 0.162 0.36 0.36-0.183 0.2-13.433 14.531-13.433 14.531-0.002 0-0.002 0-0.002 0l-0.771 0.86 1.022 0.55c0 0 7.936 4.272 8.501 4.577 0.495 0.266 1.14 0.044 1.283-0.572 0.169-0.727 4.855-20.927 4.96-21.374 0.137-0.585-0.249-0.942-0.836-0.736zM10.974 28.223c0 0.422 0.237 0.538 0.565 0.241 0.427-0.389 4.862-4.369 4.862-4.369l-5.427-2.809v6.938z" fill="#444444"></path>
</svg>
