<?xml version="1.0" encoding="utf-8"?>
<!-- Generated by IcoMoon.io -->
<!DOCTYPE svg PUBLIC "-//W3C//DTD SVG 1.1//EN" "http://www.w3.org/Graphics/SVG/1.1/DTD/svg11.dtd">
<svg version="1.1" xmlns="http://www.w3.org/2000/svg" xmlns:xlink="http://www.w3.org/1999/xlink" width="32" height="32" viewBox="0 0 32 32">
<path d="M31.625 18.36l-7.719 7.719c-1.792 1.792-4.708 1.792-6.5 0s-1.792-4.708 0-6.5l7.582-7.582c1.332-1.332 3.499-1.332 4.83 0s1.332 3.499 0 4.831l-6.732 6.732c-0.867 0.867-2.278 0.867-3.146 0s-0.867-2.278 0-3.146l5.434-5.434 1.133 1.133-5.434 5.434c-0.243 0.242-0.243 0.637 0 0.88s0.637 0.242 0.88 0l6.732-6.732c0.707-0.707 0.707-1.857 0-2.564s-1.857-0.707-2.564 0l-7.582 7.582c-1.167 1.167-1.167 3.066 0 4.234s3.066 1.167 4.234 0l7.719-7.719 1.133 1.133zM10.426 11.243c0-1.101-0.893-1.994-1.994-1.994s-1.994 0.893-1.994 1.994c0 1.101 0.893 1.994 1.994 1.994s1.994-0.893 1.994-1.994zM14.855 19.91c0.303-0.604 0.705-1.17 1.208-1.673l3.048-3.048-2.56-3.882-3.305 4.696-1.796-1.851-5.068 5.758h8.474zM14.189 22.275h-11.202v-15.086h21.683v2.665c0.783-0.471 1.677-0.73 2.612-0.751v-4.526h-26.907v20.311h14.123c-0.28-0.844-0.384-1.734-0.309-2.612z" fill="#444444"></path>
</svg>
