<?xml version="1.0" encoding="utf-8"?>
<!-- Generated by IcoMoon.io -->
<!DOCTYPE svg PUBLIC "-//W3C//DTD SVG 1.1//EN" "http://www.w3.org/Graphics/SVG/1.1/DTD/svg11.dtd">
<svg version="1.1" xmlns="http://www.w3.org/2000/svg" xmlns:xlink="http://www.w3.org/1999/xlink" width="32" height="32" viewBox="0 0 32 32">
<path d="M22.98 2.746c-1.947-1.405-4.39-2.106-7.332-2.106-2.239 0-4.127 0.495-5.661 1.481-2.435 1.546-3.729 4.171-3.886 7.875h5.642c0-1.079 0.314-2.118 0.944-3.118s1.698-1.5 3.205-1.5c1.531 0 2.587 0.406 3.164 1.217 0.579 0.814 0.867 1.713 0.867 2.7 0 0.858-0.43 1.644-0.949 2.359-0.285 0.416-0.662 0.799-1.128 1.15 0 0-3.060 1.963-4.405 3.54-0.78 0.915-0.85 2.284-0.918 4.248-0.005 0.14 0.048 0.428 0.538 0.428s3.954 0 4.39 0 0.526-0.323 0.532-0.464c0.031-0.715 0.111-1.080 0.242-1.493 0.247-0.78 0.916-1.461 1.671-2.046l1.553-1.072c1.401-1.092 2.521-1.988 3.014-2.691 0.843-1.157 1.435-2.58 1.435-4.268 0-2.756-0.974-4.835-2.918-6.238zM15.558 24.404c-1.946-0.058-3.55 1.287-3.611 3.396-0.061 2.108 1.464 3.5 3.41 3.558 2.031 0.060 3.593-1.242 3.654-3.35 0.060-2.109-1.422-3.545-3.453-3.604z" fill="#444444"></path>
</svg>
