<?xml version="1.0" encoding="utf-8"?>
<!-- Generated by IcoMoon.io -->
<!DOCTYPE svg PUBLIC "-//W3C//DTD SVG 1.1//EN" "http://www.w3.org/Graphics/SVG/1.1/DTD/svg11.dtd">
<svg version="1.1" xmlns="http://www.w3.org/2000/svg" xmlns:xlink="http://www.w3.org/1999/xlink" width="32" height="32" viewBox="0 0 32 32">
<path d="M19.862 20.383c0 0 12.047-8.692 10.711-18.642-0.031-0.218-0.102-0.362-0.191-0.459-0.094-0.090-0.234-0.166-0.449-0.196-9.723-1.364-18.217 10.964-18.217 10.964-7.369-0.884-6.833 0.587-10.196 8.661-0.643 1.539 0.399 2.070 1.543 1.637 1.143-0.43 3.668-1.384 3.668-1.384l4.419 4.521c0 0-0.932 2.582-1.353 3.751-0.422 1.172 0.096 2.239 1.601 1.582 7.892-3.442 9.329-2.895 8.465-10.435zM21.582 10.286c-1.021-1.044-1.021-2.737 0-3.782 1.021-1.043 2.674-1.043 3.695 0 1.022 1.043 1.022 2.737 0 3.782-1.019 1.046-2.674 1.046-3.695 0z" fill="#444444"></path>
</svg>
