<?xml version="1.0" encoding="utf-8"?>
<!-- Generated by IcoMoon.io -->
<!DOCTYPE svg PUBLIC "-//W3C//DTD SVG 1.1//EN" "http://www.w3.org/Graphics/SVG/1.1/DTD/svg11.dtd">
<svg version="1.1" xmlns="http://www.w3.org/2000/svg" xmlns:xlink="http://www.w3.org/1999/xlink" width="32" height="32" viewBox="0 0 32 32">
<path d="M24.533 21.12c-1.174 0-2.249 0.398-3.113 1.062l-8.907-5.344c0.043-0.273 0.073-0.553 0.073-0.838 0-0.287-0.031-0.565-0.073-0.838l8.907-5.344c0.864 0.664 1.939 1.062 3.113 1.062 2.826 0 5.12-2.292 5.12-5.12s-2.294-5.12-5.12-5.12-5.12 2.292-5.12 5.12c0 0.285 0.031 0.565 0.075 0.838l-8.907 5.345c-0.864-0.666-1.94-1.063-3.115-1.063-2.828 0-5.12 2.292-5.12 5.12 0 2.826 2.292 5.12 5.12 5.12 1.174 0 2.251-0.398 3.115-1.062l8.907 5.344c-0.044 0.273-0.075 0.551-0.075 0.838 0 2.826 2.294 5.12 5.12 5.12s5.12-2.294 5.12-5.12-2.294-5.12-5.12-5.12z" fill="#444444"></path>
</svg>
