<?xml version="1.0" encoding="utf-8"?>
<!-- Generated by IcoMoon.io -->
<!DOCTYPE svg PUBLIC "-//W3C//DTD SVG 1.1//EN" "http://www.w3.org/Graphics/SVG/1.1/DTD/svg11.dtd">
<svg version="1.1" xmlns="http://www.w3.org/2000/svg" xmlns:xlink="http://www.w3.org/1999/xlink" width="32" height="32" viewBox="0 0 32 32">
<path d="M0 5v22h32v-22h-32zM12 19v-4h8v4h-8zM20 21v4h-8v-4h8zM20 9v4h-8v-4h8zM10 9v4h-8v-4h8zM2 15h8v4h-8v-4zM22 15h8v4h-8v-4zM22 13v-4h8v4h-8zM2 21h8v4h-8v-4zM22 25v-4h8v4h-8z" fill="#444444"></path>
</svg>
