<?xml version="1.0" encoding="utf-8"?>
<!-- Generated by IcoMoon.io -->
<!DOCTYPE svg PUBLIC "-//W3C//DTD SVG 1.1//EN" "http://www.w3.org/Graphics/SVG/1.1/DTD/svg11.dtd">
<svg version="1.1" xmlns="http://www.w3.org/2000/svg" xmlns:xlink="http://www.w3.org/1999/xlink" width="32" height="32" viewBox="0 0 32 32">
<path d="M0.103 15.982c0 4.585 3.717 8.303 8.303 8.303s8.303-3.717 8.303-8.303c0-4.585-3.717-8.303-8.303-8.303s-8.303 3.717-8.303 8.303zM23.68 7.68c-0.891 0-1.748 0.142-2.552 0.401 3.336 1.077 5.751 4.207 5.751 7.901s-2.414 6.824-5.751 7.901c0.804 0.26 1.661 0.401 2.552 0.401 4.585 0 8.302-3.717 8.302-8.303s-3.717-8.302-8.303-8.302zM16.221 7.68c-0.891 0-1.748 0.142-2.552 0.401 3.336 1.077 5.751 4.207 5.751 7.901s-2.414 6.824-5.751 7.901c0.804 0.26 1.661 0.401 2.552 0.401 4.585 0 8.302-3.717 8.302-8.303s-3.717-8.302-8.303-8.302z" fill="#444444"></path>
</svg>
