<?xml version="1.0" encoding="utf-8"?>
<!-- Generated by IcoMoon.io -->
<!DOCTYPE svg PUBLIC "-//W3C//DTD SVG 1.1//EN" "http://www.w3.org/Graphics/SVG/1.1/DTD/svg11.dtd">
<svg version="1.1" xmlns="http://www.w3.org/2000/svg" xmlns:xlink="http://www.w3.org/1999/xlink" width="32" height="32" viewBox="0 0 32 32">
<path d="M32 13.091v5.818l-3.568 1.188c-0.204 0.617-0.465 1.201-0.753 1.775l1.692 3.385-4.115 4.113-3.388-1.695c-0.57 0.287-1.155 0.548-1.769 0.751l-1.19 3.574h-5.818l-1.191-3.574c-0.614-0.202-1.199-0.463-1.767-0.751l-3.389 1.695-4.115-4.113 1.693-3.385c-0.288-0.573-0.55-1.158-0.753-1.775l-3.568-1.188v-5.818l3.568-1.188c0.204-0.617 0.465-1.201 0.753-1.775l-1.692-3.385 4.115-4.113 3.389 1.695c0.57-0.287 1.153-0.548 1.767-0.751l1.19-3.574h5.818l1.19 3.574c0.614 0.202 1.199 0.463 1.769 0.751l3.388-1.695 4.115 4.113-1.692 3.385c0.287 0.573 0.55 1.158 0.753 1.775l3.568 1.188zM26.045 14.512c-0.252-1.692-0.924-3.242-1.897-4.55l1.62-2.704-1.027-1.030-2.705 1.623c-1.309-0.967-2.855-1.633-4.545-1.884l-0.764-3.059h-1.455l-0.765 3.060c-1.689 0.249-3.235 0.915-4.544 1.882l-2.705-1.623-1.028 1.028 1.622 2.704c-0.974 1.309-1.645 2.858-1.897 4.551l-3.046 0.761v1.455l3.046 0.761c0.25 1.692 0.922 3.242 1.895 4.55l-1.622 2.704 1.028 1.028 2.705-1.623c1.308 0.967 2.855 1.633 4.544 1.884l0.767 3.060h1.455l0.764-3.060c1.69-0.25 3.236-0.916 4.545-1.884l2.704 1.623 1.028-1.028-1.62-2.704c0.973-1.308 1.645-2.858 1.897-4.55l3.046-0.761v-1.455l-3.046-0.761zM16 20.364c-2.41 0-4.364-1.953-4.364-4.364s1.953-4.364 4.364-4.364c2.409 0 4.364 1.953 4.364 4.364s-1.955 4.364-4.364 4.364zM16 14.545c-0.803 0-1.455 0.65-1.455 1.455s0.652 1.455 1.455 1.455c0.804 0 1.455-0.65 1.455-1.455s-0.65-1.455-1.455-1.455z" fill="#444444"></path>
</svg>
