<?xml version="1.0" encoding="utf-8"?>
<!-- Generated by IcoMoon.io -->
<!DOCTYPE svg PUBLIC "-//W3C//DTD SVG 1.1//EN" "http://www.w3.org/Graphics/SVG/1.1/DTD/svg11.dtd">
<svg version="1.1" xmlns="http://www.w3.org/2000/svg" xmlns:xlink="http://www.w3.org/1999/xlink" width="32" height="32" viewBox="0 0 32 32">
<path d="M11 12h4v4h-4zM17 12h4v4h-4zM23 12h4v4h-4zM5 24h4v4h-4zM11 24h4v4h-4zM17 24h4v4h-4zM11 18h4v4h-4zM17 18h4v4h-4zM23 18h4v4h-4zM5 18h4v4h-4zM27 0v2h-4v-2h-14v2h-4v-2h-4v32h30v-32h-4zM29 30h-26v-22h26v22z" fill="#444444"></path>
</svg>
