<?xml version="1.0" encoding="utf-8"?>
<!-- Generated by IcoMoon.io -->
<!DOCTYPE svg PUBLIC "-//W3C//DTD SVG 1.1//EN" "http://www.w3.org/Graphics/SVG/1.1/DTD/svg11.dtd">
<svg version="1.1" xmlns="http://www.w3.org/2000/svg" xmlns:xlink="http://www.w3.org/1999/xlink" width="36" height="32" viewBox="0 0 36 32">
<path d="M14.991 4.008c-1.582 0-3.11 0.248-4.54 0.738-1.341 0.459-2.533 1.107-3.545 1.925-1.875 1.517-2.908 3.46-2.908 5.471 0 1.124 0.314 2.216 0.934 3.245 0.646 1.072 1.621 2.055 2.819 2.841 0.951 0.624 1.591 1.622 1.76 2.747 0.028 0.187 0.051 0.375 0.068 0.563 0.085-0.079 0.169-0.16 0.253-0.243 0.754-0.751 1.77-1.165 2.821-1.165 0.167 0 0.335 0.011 0.503 0.032 0.605 0.077 1.222 0.115 1.835 0.115 1.582 0 3.11-0.248 4.54-0.738 1.341-0.459 2.533-1.107 3.545-1.925 1.875-1.517 2.908-3.46 2.908-5.471s-1.033-3.953-2.908-5.471c-1.011-0.819-2.204-1.466-3.545-1.925-1.431-0.49-2.958-0.738-4.54-0.738zM14.991 0.010v0c8.279 0 14.99 5.431 14.99 12.131s-6.711 12.131-14.99 12.131c-0.795 0-1.575-0.051-2.337-0.147-3.22 3.207-6.938 3.782-10.655 3.867v-0.785c2.007-0.979 3.623-2.763 3.623-4.801 0-0.284-0.022-0.564-0.063-0.837-3.39-2.224-5.558-5.621-5.558-9.428 0-6.7 6.712-12.131 14.991-12.131zM31.105 27.202c0 1.747 1.134 3.276 2.873 4.115v0.673c-3.221-0.072-6.177-0.565-8.968-3.314-0.66 0.083-1.336 0.126-2.026 0.126-2.982 0-5.728-0.804-7.92-2.156 4.518-0.016 8.784-1.463 12.018-4.081 1.63-1.32 2.917-2.868 3.823-4.602 0.961-1.838 1.448-3.797 1.448-5.821 0-0.326-0.014-0.651-0.039-0.973 2.266 1.872 3.662 4.423 3.662 7.235 0 3.263-1.879 6.175-4.817 8.081-0.036 0.234-0.055 0.473-0.055 0.717z" fill="#444444"></path>
</svg>
