<?xml version="1.0" encoding="utf-8"?>
<!-- Generated by IcoMoon.io -->
<!DOCTYPE svg PUBLIC "-//W3C//DTD SVG 1.1//EN" "http://www.w3.org/Graphics/SVG/1.1/DTD/svg11.dtd">
<svg version="1.1" xmlns="http://www.w3.org/2000/svg" xmlns:xlink="http://www.w3.org/1999/xlink" width="32" height="32" viewBox="0 0 32 32">
<path d="M30.008 20.551v2.243c0 1.594-3.585 2.886-8.008 2.886s-8.008-1.292-8.008-2.886v-2.243c0.496 0.356 1.118 0.67 1.855 0.936 1.666 0.6 3.851 0.931 6.153 0.931s4.487-0.331 6.153-0.931c0.738-0.266 1.359-0.58 1.855-0.936zM28.153 16.8c-1.666 0.6-3.851 0.931-6.153 0.931s-4.487-0.331-6.153-0.931c-0.737-0.266-1.359-0.58-1.855-0.936v2.222c0 1.594 3.585 2.886 8.008 2.886s8.008-1.292 8.008-2.886v-2.222c-0.496 0.356-1.118 0.67-1.855 0.936zM22 5.82c-4.422 0-8.008 1.292-8.008 2.886s3.585 2.886 8.008 2.886 8.008-1.292 8.008-2.886c0-1.594-3.585-2.886-8.008-2.886zM28.153 12.107c-1.666 0.6-3.851 0.931-6.153 0.931s-4.487-0.331-6.153-0.931c-0.737-0.266-1.359-0.58-1.855-0.936v2.228c0 1.594 3.585 2.886 8.008 2.886s8.008-1.292 8.008-2.886v-2.228c-0.496 0.356-1.118 0.67-1.855 0.936zM11.148 17.009c-0.54-0.936-0.215-2.135 0.726-2.68l-1.012-1.753c-0.289 0.169-0.625 0.267-0.984 0.267-1.081 0-1.958-0.882-1.958-1.971h-2.024c0.003 0.336-0.081 0.677-0.261 0.988-0.54 0.936-1.741 1.254-2.683 0.712l-1.012 1.753c0.291 0.166 0.544 0.408 0.723 0.719 0.539 0.934 0.216 2.131-0.721 2.677l1.012 1.753c0.288-0.168 0.623-0.264 0.979-0.264 1.078 0 1.952 0.877 1.958 1.96h2.024c-0.001-0.333 0.083-0.669 0.261-0.978 0.539-0.934 1.737-1.253 2.679-0.714l1.012-1.753c-0.289-0.166-0.54-0.407-0.718-0.716zM6.906 18.106c-1.151 0-2.085-0.933-2.085-2.085s0.933-2.085 2.085-2.085c1.151 0 2.085 0.933 2.085 2.085s-0.933 2.085-2.085 2.085z" fill="#444444"></path>
</svg>
