<?xml version="1.0" encoding="utf-8"?>
<!-- Generated by IcoMoon.io -->
<!DOCTYPE svg PUBLIC "-//W3C//DTD SVG 1.1//EN" "http://www.w3.org/Graphics/SVG/1.1/DTD/svg11.dtd">
<svg version="1.1" xmlns="http://www.w3.org/2000/svg" xmlns:xlink="http://www.w3.org/1999/xlink" width="32" height="32" viewBox="0 0 32 32">
<path d="M10.338 7.178c0-1.058-0.647-2.396-3.368-2.396-1.118 0-4.191 0-4.191 0l-1.191 5.511c0 0 2.265 0 4.368 0 3.411 0 4.382-1.614 4.382-3.115zM21.626 7.178c0-1.058-0.646-2.396-3.367-2.396-1.117 0-4.191 0-4.191 0l-1.19 5.51c0 0 2.264 0 4.366 0 3.413 0.001 4.382-1.614 4.382-3.114zM8.827 15.472c0-1.057-0.648-2.399-3.369-2.399-1.117 0-4.19 0-4.19 0l-1.191 5.514c0 0 2.265 0 4.367 0 3.412 0 4.384-1.619 4.384-3.116zM20.115 15.472c0-1.057-0.649-2.399-3.368-2.399-1.119 0-4.19 0-4.19 0l-1.193 5.514c0 0 2.265 0 4.368 0 3.412 0 4.382-1.619 4.382-3.115zM31.924 12.108c0-1.058-0.648-2.399-3.367-2.399-1.119 0-4.19 0-4.19 0l-1.194 5.514c0 0 2.266 0 4.367 0 3.412 0 4.383-1.615 4.383-3.115zM30.296 20.744c0-1.058-0.647-2.396-3.367-2.396-1.117 0-4.19 0-4.19 0l-1.191 5.511c0 0 2.263 0 4.367 0 3.412 0 4.382-1.619 4.382-3.115zM18.492 24.109c0-1.064-0.645-2.404-3.364-2.404-1.12 0-4.193 0-4.193 0l-1.191 5.513c0 0 2.264 0 4.367 0 3.413 0.002 4.382-1.613 4.382-3.109z" fill="#444444"></path>
</svg>
