<?xml version="1.0" encoding="utf-8"?>
<!-- Generated by IcoMoon.io -->
<!DOCTYPE svg PUBLIC "-//W3C//DTD SVG 1.1//EN" "http://www.w3.org/Graphics/SVG/1.1/DTD/svg11.dtd">
<svg version="1.1" xmlns="http://www.w3.org/2000/svg" xmlns:xlink="http://www.w3.org/1999/xlink" width="32" height="32" viewBox="0 0 32 32">
<path d="M17.487 24.503c-0.015 0.013-0.029 0.025-0.044 0.038-0.014 0.011-0.028 0.022-0.042 0.032-0.015 0.012-0.030 0.024-0.046 0.035-0.014 0.010-0.029 0.020-0.043 0.030-0.016 0.011-0.031 0.022-0.047 0.033s-0.030 0.019-0.045 0.028c-0.016 0.010-0.031 0.020-0.047 0.029s-0.031 0.017-0.047 0.026c-0.016 0.009-0.031 0.018-0.047 0.026s-0.032 0.016-0.048 0.024c-0.016 0.008-0.032 0.016-0.048 0.024s-0.034 0.015-0.050 0.022c-0.016 0.007-0.032 0.014-0.048 0.021-0.017 0.007-0.035 0.013-0.052 0.020-0.016 0.006-0.032 0.012-0.048 0.018-0.017 0.006-0.035 0.011-0.052 0.017-0.016 0.005-0.032 0.011-0.049 0.016-0.017 0.005-0.035 0.010-0.053 0.014-0.016 0.004-0.033 0.009-0.049 0.013-0.018 0.004-0.036 0.008-0.054 0.012-0.016 0.004-0.033 0.008-0.049 0.011-0.018 0.004-0.036 0.006-0.054 0.009-0.017 0.003-0.033 0.006-0.049 0.008-0.018 0.003-0.036 0.004-0.054 0.006-0.017 0.002-0.034 0.004-0.050 0.006s-0.036 0.003-0.053 0.004c-0.017 0.001-0.034 0.003-0.051 0.004s-0.035 0.001-0.053 0.001c-0.017 0-0.035 0.001-0.052 0.001s-0.035-0.001-0.052-0.001c-0.018-0-0.035-0-0.053-0.001s-0.034-0.002-0.051-0.004c-0.018-0.001-0.036-0.002-0.053-0.004s-0.034-0.004-0.050-0.006c-0.018-0.002-0.036-0.004-0.054-0.006-0.016-0.002-0.033-0.006-0.049-0.008-0.018-0.003-0.037-0.006-0.055-0.009-0.016-0.003-0.032-0.007-0.049-0.011-0.018-0.004-0.036-0.008-0.054-0.012-0.016-0.004-0.032-0.009-0.048-0.013-0.018-0.005-0.036-0.009-0.054-0.015-0.016-0.005-0.031-0.010-0.047-0.015-0.018-0.006-0.036-0.011-0.054-0.017-0.015-0.005-0.031-0.012-0.046-0.017-0.018-0.007-0.036-0.013-0.054-0.020-0.015-0.006-0.030-0.013-0.045-0.020-0.018-0.008-0.035-0.015-0.053-0.023-0.015-0.007-0.030-0.015-0.045-0.022-0.017-0.009-0.034-0.017-0.051-0.026-0.015-0.008-0.029-0.016-0.044-0.024-0.017-0.009-0.034-0.018-0.050-0.028-0.015-0.009-0.029-0.018-0.043-0.027-0.016-0.010-0.033-0.020-0.049-0.031-0.014-0.009-0.028-0.020-0.042-0.029-0.016-0.011-0.032-0.022-0.047-0.033-0.014-0.010-0.027-0.021-0.040-0.031-0.016-0.012-0.032-0.024-0.047-0.037-0.013-0.010-0.025-0.022-0.038-0.032-0.016-0.013-0.031-0.026-0.047-0.040-0.012-0.011-0.023-0.022-0.035-0.033-0.015-0.014-0.030-0.028-0.044-0.042-0.001-0.001-0.001-0.001-0.002-0.002s-0.001-0.001-0.002-0.001l-13.469-13.5c-0.853-0.855-0.852-2.24 0.004-3.094s2.24-0.852 3.094 0.004l11.92 11.948 11.92-11.948c0.853-0.855 2.238-0.857 3.094-0.004 0.428 0.427 0.642 0.988 0.642 1.549 0 0.559-0.213 1.118-0.639 1.545l-13.469 13.5c-0.001 0.001-0.001 0.001-0.002 0.002s-0.001 0.001-0.002 0.002c-0.012 0.012-0.026 0.024-0.038 0.036-0.014 0.013-0.027 0.027-0.042 0.040s-0.027 0.023-0.041 0.035z" fill="#444444"></path>
</svg>
