<?xml version="1.0" encoding="utf-8"?>
<!-- Generated by IcoMoon.io -->
<!DOCTYPE svg PUBLIC "-//W3C//DTD SVG 1.1//EN" "http://www.w3.org/Graphics/SVG/1.1/DTD/svg11.dtd">
<svg version="1.1" xmlns="http://www.w3.org/2000/svg" xmlns:xlink="http://www.w3.org/1999/xlink" width="32" height="32" viewBox="0 0 32 32">
<path d="M26.822 8.856l-10.046-5.8c-0.709-0.41-1.615-0.166-2.024 0.542l-10.116 17.521c-0.409 0.71-0.167 1.616 0.542 2.025l10.045 5.799c0.709 0.41 1.616 0.166 2.025-0.543l10.116-17.52c0.409-0.709 0.166-1.616-0.543-2.025zM12.683 24.192c-0.402 0.697-1.292 0.935-1.989 0.533s-0.935-1.293-0.533-1.989c0.402-0.697 1.293-0.936 1.989-0.533s0.935 1.293 0.533 1.989zM17.556 23.884l-9.144-5.279 7.737-13.401 9.144 5.279-7.737 13.401z" fill="#444444"></path>
</svg>
