<?xml version="1.0" encoding="utf-8"?>
<!-- Generated by IcoMoon.io -->
<!DOCTYPE svg PUBLIC "-//W3C//DTD SVG 1.1//EN" "http://www.w3.org/Graphics/SVG/1.1/DTD/svg11.dtd">
<svg version="1.1" xmlns="http://www.w3.org/2000/svg" xmlns:xlink="http://www.w3.org/1999/xlink" width="32" height="32" viewBox="0 0 32 32">
<path d="M11.309 10.756c0-2.497-2.024-4.521-4.521-4.521s-4.521 2.024-4.521 4.521 2.024 4.521 4.521 4.521c2.497 0 4.521-2.024 4.521-4.521zM17.898 17.304c0.763 0 1.495-0.132 2.177-0.372v6.306c0 1.396-1.132 2.528-2.528 2.528h-10.476c-1.396 0-2.528-1.132-2.528-2.528v-6.33c0.7 0.256 1.456 0.396 2.244 0.396 2.34 0 4.397-1.234 5.555-3.086 1.158 1.851 3.215 3.086 5.555 3.086zM17.898 6.235c-2.497 0-4.521 2.024-4.521 4.521s2.024 4.521 4.521 4.521c2.497 0 4.521-2.024 4.521-4.521s-2.024-4.521-4.521-4.521zM29.733 13.81v11.955l-7.632-3.884v-4.12l7.632-3.951z" fill="#444444"></path>
</svg>
