<?xml version="1.0" encoding="utf-8"?>
<!-- Generated by IcoMoon.io -->
<!DOCTYPE svg PUBLIC "-//W3C//DTD SVG 1.1//EN" "http://www.w3.org/Graphics/SVG/1.1/DTD/svg11.dtd">
<svg version="1.1" xmlns="http://www.w3.org/2000/svg" xmlns:xlink="http://www.w3.org/1999/xlink" width="32" height="32" viewBox="0 0 32 32">
<path d="M19.482 4.135c-1.422 1.635-5.014 6.391-4.965 12.422h5.138l-0.042 0.954-0.212 4.514c2.086-0.228 4.204-0.801 6.14-1.931l0.92 1.576c-2.283 1.334-4.75 1.979-7.145 2.216l-0.182 3.942-1.821-0.084 0.173-3.754c-5.549 0.097-10.256-1.746-10.554-1.864l-0.733-0.294 0.184-0.765 0.394-1.667 1.777 0.424-0.205 0.867c1.51 0.5 5.162 1.533 9.223 1.45l0.17-3.759h-4.977l-0.056-0.852c-0.395-5.995 2.481-10.853 4.413-13.395h-15.726v23.73h29.206v-23.73h-11.121zM22.428 11.437h-1.507v-2.699h1.507v2.699zM8.778 8.658h1.43v2.779h-1.43v-2.779z" fill="#444444"></path>
</svg>
