<?xml version="1.0" encoding="utf-8"?>
<!-- Generated by IcoMoon.io -->
<!DOCTYPE svg PUBLIC "-//W3C//DTD SVG 1.1//EN" "http://www.w3.org/Graphics/SVG/1.1/DTD/svg11.dtd">
<svg version="1.1" xmlns="http://www.w3.org/2000/svg" xmlns:xlink="http://www.w3.org/1999/xlink" width="32" height="32" viewBox="0 0 32 32">
<path d="M19.298 28.806c-3.773-0.425-5.793-3.51-14.224-3.51 0-2.907 0-10.438 0-10.438 7.306 0 10.366-4.928 11.531-8.656 0.444-1.421 0.894-3.493 2.598-3.004 1.972 0.567 1.69 5.698 0.474 9.090 1.381 0.999 3.563 2.049 7.249 1.589-0.084 1.243-0.224 2.272-1.146 2.533l-1.137 0.301c-0.4 0.121-0.625 0.543-0.504 0.942s0.543 0.625 0.942 0.505l1.185-0.355c-0.242 1.588-0.358 2.463-1.432 2.788l-0.853 0.271c-0.4 0.121-0.625 0.543-0.505 0.942s0.543 0.626 0.943 0.505l1.103-0.375c-0.191 1.433-0.328 2.399-1.367 2.713l-0.831 0.3c-0.4 0.121-0.625 0.543-0.505 0.943s0.543 0.625 0.942 0.504l0.892-0.315c-0.325 2.284-2.532 3.043-5.355 2.725z" fill="#444444"></path>
</svg>
