<?xml version="1.0" encoding="utf-8"?>
<!-- Generated by IcoMoon.io -->
<!DOCTYPE svg PUBLIC "-//W3C//DTD SVG 1.1//EN" "http://www.w3.org/Graphics/SVG/1.1/DTD/svg11.dtd">
<svg version="1.1" xmlns="http://www.w3.org/2000/svg" xmlns:xlink="http://www.w3.org/1999/xlink" width="32" height="32" viewBox="0 0 32 32">
<path d="M27.544 24.486c0.851-1.026 1.331-2.347 1.331-3.693 0-2.204-1.241-4.063-3.090-5.235 0.262-0.816 0.4-1.662 0.4-2.517 0-5.638-5.478-9.707-11.53-9.707-6.090 0-11.53 4.1-11.53 9.707 0 1.989 0.71 3.942 1.967 5.457 0.053 1.776-0.982 4.322-1.915 6.178 2.5-0.456 6.054-1.463 7.666-2.46 0.946 0.232 1.864 0.377 2.75 0.444 1.117 3.162 5.013 5.582 10.059 4.343 1.091 0.674 3.496 1.356 5.189 1.665-0.631-1.256-1.332-2.98-1.296-4.181zM10.777 19.878c-2.162 1.263-4.065 1.767-4.065 1.767s0.644-1.735 0.912-3.731c-1.319-1.344-2.253-2.707-2.253-4.873 0-4.114 4.165-7.462 9.285-7.462s9.285 3.347 9.285 7.462c-0 4.259-4.895 9.030-13.163 6.837zM26.178 26.344c0 0-1.224-0.324-2.614-1.136-4.107 1.089-6.916-0.492-7.984-2.529 4.401-0.255 7.798-2.501 9.467-5.442 1.223 0.879 1.994 2.156 1.994 3.575 0 1.392-0.601 2.269-1.449 3.133 0.172 1.283 0.586 2.399 0.586 2.399z" fill="#444444"></path>
</svg>
