<?xml version="1.0" encoding="utf-8"?>
<!-- Generated by IcoMoon.io -->
<!DOCTYPE svg PUBLIC "-//W3C//DTD SVG 1.1//EN" "http://www.w3.org/Graphics/SVG/1.1/DTD/svg11.dtd">
<svg version="1.1" xmlns="http://www.w3.org/2000/svg" xmlns:xlink="http://www.w3.org/1999/xlink" width="32" height="32" viewBox="0 0 32 32">
<path d="M28.875 17.734v-3.468l-1.874-0.666c-0.714-0.254-1.289-0.8-1.58-1.5-0-0-0-0.001-0-0.001-0.291-0.702-0.271-1.495 0.056-2.181l0.853-1.795-2.452-2.452-1.795 0.853c-0.686 0.326-1.48 0.347-2.182 0.056-0-0-0.001-0-0.001-0-0.701-0.291-1.246-0.865-1.5-1.58l-0.666-1.874h-3.468l-0.666 1.874c-0.254 0.714-0.8 1.289-1.5 1.58-0 0-0.001 0-0.001 0-0.702 0.291-1.495 0.271-2.182-0.056l-1.795-0.853-2.452 2.452 0.853 1.795c0.326 0.686 0.347 1.48 0.056 2.182-0 0-0 0.001-0 0.001-0.291 0.701-0.865 1.246-1.579 1.5l-1.874 0.666v3.468l1.874 0.666c0.714 0.254 1.289 0.8 1.58 1.5 0 0 0 0.001 0 0.001 0.291 0.702 0.271 1.495-0.056 2.182l-0.853 1.795 2.452 2.452 1.795-0.853c0.686-0.326 1.48-0.347 2.182-0.056 0 0 0.001 0 0.001 0 0.701 0.291 1.246 0.865 1.5 1.579l0.666 1.874h3.468l0.662-1.862c0.256-0.721 0.807-1.302 1.514-1.595 0-0 0.001-0 0.001-0 0.695-0.289 1.481-0.269 2.161 0.054l1.806 0.859 2.452-2.452-0.854-1.796c-0.326-0.686-0.346-1.479-0.055-2.18 0-0 0-0.001 0-0.001 0.291-0.702 0.866-1.247 1.581-1.501l1.873-0.666zM16 20.722c-2.608 0-4.722-2.114-4.722-4.722s2.114-4.722 4.722-4.722c2.608 0 4.722 2.114 4.722 4.722s-2.114 4.722-4.722 4.722z" fill="#444444"></path>
</svg>
