<?xml version="1.0" encoding="utf-8"?>
<!-- Generated by IcoMoon.io -->
<!DOCTYPE svg PUBLIC "-//W3C//DTD SVG 1.1//EN" "http://www.w3.org/Graphics/SVG/1.1/DTD/svg11.dtd">
<svg version="1.1" xmlns="http://www.w3.org/2000/svg" xmlns:xlink="http://www.w3.org/1999/xlink" width="32" height="32" viewBox="0 0 32 32">
<path d="M23.934 21c-1.092 0-2.092 0.386-2.892 1.036l-8.284-5.218c0.040-0.266 0.070-0.54 0.070-0.818 0-0.282-0.030-0.552-0.068-0.82l8.282-5.218c0.8 0.648 1.8 1.038 2.892 1.038 2.626 0 4.758-2.238 4.758-5 0-2.76-2.13-5-4.758-5s-4.76 2.24-4.76 5c0 0.28 0.026 0.552 0.070 0.82l-8.282 5.218c-0.802-0.65-1.804-1.038-2.894-1.038-2.63 0-4.76 2.238-4.76 5s2.13 5 4.76 5c1.090 0 2.092-0.388 2.896-1.038l8.282 5.218c-0.044 0.266-0.070 0.538-0.070 0.816 0 2.762 2.13 5.002 4.76 5.002 2.626 0 4.758-2.24 4.758-5.002-0.002-2.756-2.134-4.996-4.76-4.996z" fill="#444444"></path>
</svg>
