<?xml version="1.0" encoding="utf-8"?>
<!-- Generated by IcoMoon.io -->
<!DOCTYPE svg PUBLIC "-//W3C//DTD SVG 1.1//EN" "http://www.w3.org/Graphics/SVG/1.1/DTD/svg11.dtd">
<svg version="1.1" xmlns="http://www.w3.org/2000/svg" xmlns:xlink="http://www.w3.org/1999/xlink" width="26" height="32" viewBox="0 0 26 32">
<path d="M17.314 8.197h-8.679c-4.687 0-8.486 3.799-8.486 8.486s3.799 8.486 8.486 8.486c3.754 0 6.374-2.267 8.326-4.976h-5.852c-0.672 0.731-1.555 1.176-2.522 1.176-1.514 0-2.821-1.086-3.435-2.66h12.795c1.070-1.74 1.915-3.524 2.646-4.919 1.282-2.448-0.193-5.593-3.279-5.593zM4.984 15.163c0.513-1.842 1.932-3.166 3.603-3.166s3.090 1.325 3.603 3.166h-7.206zM17.961 15.363h-1.466l-0.888-3.103h-0.549l-0.198 1.528c-0.024 0.184-0.022 0.305 0.006 0.365 0.042 0.092 0.131 0.138 0.266 0.138 0.122 0 0.297-0.035 0.525-0.105l-0.026 1.141c-0.421 0.089-0.808 0.134-1.163 0.134-0.412 0-0.708-0.053-0.889-0.158s-0.305-0.266-0.37-0.481c-0.066-0.215-0.067-0.563-0.005-1.044l0.197-1.517h-0.609l0.157-1.21h0.609l0.103-0.792 1.767-0.849-0.213 1.641h1.765l0.482 2.733 1.222-2.733h1.668l-2.392 4.313zM18.857 7.040c0 0 4.339 0.964 3.471 5.786 1.929-3.568-0.771-6.268-3.471-5.786zM18.761 5.497c5.111 0 7.136 4.339 4.822 7.907 4.050-3.471 1.35-9.643-4.822-7.907z" fill="#444444"></path>
</svg>
