<?xml version="1.0" encoding="utf-8"?>
<!-- Generated by IcoMoon.io -->
<!DOCTYPE svg PUBLIC "-//W3C//DTD SVG 1.1//EN" "http://www.w3.org/Graphics/SVG/1.1/DTD/svg11.dtd">
<svg version="1.1" xmlns="http://www.w3.org/2000/svg" xmlns:xlink="http://www.w3.org/1999/xlink" width="32" height="32" viewBox="0 0 32 32">
<path d="M16 1.35l-8.875 8.329h5.632v8.738h6.485v-8.738h5.634l-8.876-8.329zM31.94 21.048l-5.434-3.656h-3.35l5.803 4.451h-6.050c-0.174 0-0.329 0.089-0.41 0.227l-1.393 3.814h-10.213l-1.394-3.814c-0.077-0.138-0.236-0.227-0.41-0.227h-6.048l5.804-4.451h-3.352l-5.432 3.656c-0.809 0.483-1.292 1.597-1.075 2.473l0.957 5.246c0.217 0.877 1.179 1.596 2.135 1.596h27.841c0.959 0 1.92-0.718 2.137-1.596l0.957-5.246c0.22-0.877-0.265-1.99-1.073-2.473z" fill="#444444"></path>
</svg>
