<?xml version="1.0" encoding="utf-8"?>
<!-- Generated by IcoMoon.io -->
<!DOCTYPE svg PUBLIC "-//W3C//DTD SVG 1.1//EN" "http://www.w3.org/Graphics/SVG/1.1/DTD/svg11.dtd">
<svg version="1.1" xmlns="http://www.w3.org/2000/svg" xmlns:xlink="http://www.w3.org/1999/xlink" width="32" height="32" viewBox="0 0 32 32">
<path d="M24.226 23.591c-4.207-1.533-5.552-2.826-5.552-5.596 0-1.662 1.285-1.12 1.848-4.164 0.234-1.263 1.369-0.020 1.587-2.903 0-1.149-0.62-1.435-0.62-1.435s0.316-1.702 0.439-3.009c0.15-1.632-0.942-5.844-6.782-5.844-5.838 0-6.934 4.212-6.781 5.844 0.123 1.307 0.439 3.009 0.439 3.009s-0.621 0.285-0.621 1.435c0.217 2.883 1.352 1.64 1.585 2.903 0.565 3.045 1.85 2.502 1.85 4.164 0 2.77-1.345 4.064-5.552 5.596-4.222 1.536-6.963 3.104-6.963 4.175 0 1.068 0 3.593 0 3.593h32.085c0 0 0-2.524 0-3.593s-2.743-2.637-6.963-4.175z" fill="#444444"></path>
</svg>
