<?xml version="1.0" encoding="utf-8"?>
<!-- Generated by IcoMoon.io -->
<!DOCTYPE svg PUBLIC "-//W3C//DTD SVG 1.1//EN" "http://www.w3.org/Graphics/SVG/1.1/DTD/svg11.dtd">
<svg version="1.1" xmlns="http://www.w3.org/2000/svg" xmlns:xlink="http://www.w3.org/1999/xlink" width="32" height="32" viewBox="0 0 32 32">
<path d="M19.795 31.599h-19.414c0-4.282-0.344-6.642 4.132-7.674 4.382-1.011 8.707-1.914 6.628-5.743-6.161-11.347-1.757-17.78 4.86-17.78 6.489 0 11.505 6.4 4.86 17.78-1.614 2.764-3.341 5.141-3.341 7.683 0 2.217 0.865 4.235 2.276 5.735zM31.625 25.864c0 3.162-2.564 5.726-5.726 5.726s-5.726-2.564-5.726-5.726 2.564-5.726 5.726-5.726c3.162 0 5.726 2.564 5.726 5.726zM29.419 24.99h-2.479v-2.479h-1.914v2.479h-2.479v1.914h2.479v2.478h1.914v-2.478h2.479v-1.914z" fill="#444444"></path>
</svg>
