<?xml version="1.0" encoding="utf-8"?>
<!-- Generated by IcoMoon.io -->
<!DOCTYPE svg PUBLIC "-//W3C//DTD SVG 1.1//EN" "http://www.w3.org/Graphics/SVG/1.1/DTD/svg11.dtd">
<svg version="1.1" xmlns="http://www.w3.org/2000/svg" xmlns:xlink="http://www.w3.org/1999/xlink" width="32" height="32" viewBox="0 0 32 32">
<path d="M31.623 23.84h-6.063c-0-6.599-3.299-3.462-3.299-9.245 0-2.087 1.367-3.22 3.121-3.22 2.593 0 4.397 2.475 1.942 7.104-0.807 1.521 0.859 1.882 2.648 2.295s1.651 1.355 1.651 3.066zM2.028 20.774c1.789-0.413 3.455-0.774 2.648-2.295-2.455-4.629-0.651-7.104 1.942-7.104 1.755 0 3.121 1.133 3.121 3.22 0 5.783-3.299 2.646-3.299 9.245h-6.063c0-1.711-0.138-2.654 1.651-3.066zM21.773 19.983c-2.251-0.519-4.346-0.974-3.331-2.887 3.088-5.823 0.819-8.936-2.443-8.936-3.325 0-5.539 3.233-2.442 8.936 1.045 1.924-1.129 2.378-3.331 2.887-2.25 0.519-2.077 1.705-2.077 3.857h15.7c0-2.152 0.173-3.338-2.077-3.857z" fill="#444444"></path>
</svg>
