<?xml version="1.0" encoding="utf-8"?>
<!-- Generated by IcoMoon.io -->
<!DOCTYPE svg PUBLIC "-//W3C//DTD SVG 1.1//EN" "http://www.w3.org/Graphics/SVG/1.1/DTD/svg11.dtd">
<svg version="1.1" xmlns="http://www.w3.org/2000/svg" xmlns:xlink="http://www.w3.org/1999/xlink" width="32" height="32" viewBox="0 0 32 32">
<path d="M11.602 11.084c0-2.341-1.898-4.239-4.239-4.239s-4.239 1.898-4.239 4.239c0 2.341 1.898 4.239 4.239 4.239s4.239-1.898 4.239-4.239zM17.779 17.222c0.715 0 1.402-0.123 2.041-0.349v5.912c0 1.309-1.061 2.37-2.37 2.37h-9.821c-1.309 0-2.37-1.061-2.37-2.37v-5.934c0.657 0.24 1.365 0.372 2.104 0.372 2.194 0 4.122-1.157 5.208-2.893 1.086 1.736 3.014 2.893 5.208 2.893zM17.779 6.845c-2.341 0-4.239 1.898-4.239 4.239s1.898 4.239 4.239 4.239c2.341 0 4.239-1.898 4.239-4.239s-1.898-4.239-4.239-4.239zM28.875 13.947v11.208l-7.155-3.641v-3.863l7.155-3.704z" fill="#444444"></path>
</svg>
