<?xml version="1.0" encoding="utf-8"?>
<!-- Generated by IcoMoon.io -->
<!DOCTYPE svg PUBLIC "-//W3C//DTD SVG 1.1//EN" "http://www.w3.org/Graphics/SVG/1.1/DTD/svg11.dtd">
<svg version="1.1" xmlns="http://www.w3.org/2000/svg" xmlns:xlink="http://www.w3.org/1999/xlink" width="32" height="32" viewBox="0 0 32 32">
<path d="M13.814 13.172c0-1.205 0.981-2.186 2.186-2.186s2.186 0.981 2.186 2.186c0 1.206-0.981 2.186-2.186 2.186s-2.186-0.981-2.186-2.186zM5.953 13.172c0-5.549 4.498-10.047 10.047-10.047s10.047 4.498 10.047 10.047c0 5.549-4.498 10.047-10.047 10.047s-10.047-4.498-10.047-10.047zM11.316 13.172c0 2.583 2.101 4.685 4.684 4.685s4.684-2.102 4.684-4.685c0-2.583-2.102-4.684-4.684-4.684s-4.684 2.101-4.684 4.684zM24.207 26.491l-2.508-2.846c-3.544 1.929-7.84 1.931-11.388 0l-2.508 2.846c-0.959 1.087 0.009 2.555 1.382 2.368 1.713-0.234 3.088-1.624 6.82-1.624s5.107 1.39 6.82 1.624c1.373 0.187 2.341-1.28 1.382-2.368z" fill="#444444"></path>
</svg>
