<?xml version="1.0" encoding="utf-8"?>
<!-- Generated by IcoMoon.io -->
<!DOCTYPE svg PUBLIC "-//W3C//DTD SVG 1.1//EN" "http://www.w3.org/Graphics/SVG/1.1/DTD/svg11.dtd">
<svg version="1.1" xmlns="http://www.w3.org/2000/svg" xmlns:xlink="http://www.w3.org/1999/xlink" width="32" height="32" viewBox="0 0 32 32">
<path fill="#444" d="M2.97 22.419c-0.097-0.078-0.145-0.15-0.145-0.213 0-0.043 0.015-0.082 0.048-0.116 0.053-0.062 0.121-0.097 0.193-0.097 0.068 0 0.141 0.020 0.213 0.068 1.828 1.035 3.844 1.846 6.048 2.432 2.204 0.584 4.491 0.88 6.85 0.88 1.499 0 3.026-0.136 4.588-0.402 1.557-0.27 3.114-0.681 4.67-1.232 0.105-0.043 0.217-0.082 0.323-0.115 0.111-0.035 0.228-0.078 0.348-0.131 0.106-0.043 0.218-0.053 0.329-0.033 0.106 0.024 0.184 0.072 0.228 0.15 0.033 0.053 0.053 0.116 0.062 0.178 0 0.131-0.062 0.233-0.193 0.31-0.178 0.126-0.363 0.248-0.551 0.349-0.193 0.106-0.372 0.213-0.546 0.318-1.412 0.76-2.954 1.33-4.641 1.707-1.688 0.377-3.326 0.562-4.912 0.562-2.513 0-4.868-0.407-7.053-1.224-2.186-0.812-4.139-1.943-5.86-3.388zM18.289 10.257c0-0.324-0.005-0.653-0.015-0.991-0.014-0.343-0.115-0.647-0.31-0.908-0.178-0.256-0.406-0.436-0.69-0.547-0.286-0.111-0.566-0.165-0.852-0.165h-0.213c-0.492 0.045-0.937 0.194-1.339 0.456-0.396 0.256-0.657 0.647-0.778 1.164-0.018 0.111-0.067 0.208-0.14 0.304-0.077 0.092-0.178 0.16-0.304 0.208l-2.688-0.343c-0.107-0.020-0.208-0.068-0.309-0.145-0.106-0.073-0.13-0.199-0.092-0.372 0.155-0.71 0.421-1.31 0.798-1.798 0.381-0.484 0.83-0.88 1.353-1.189 0.522-0.304 1.088-0.532 1.702-0.677 0.614-0.15 1.232-0.241 1.851-0.286h0.57c0.682 0 1.417 0.098 2.2 0.286 0.778 0.183 1.459 0.522 2.035 1.010 0.334 0.286 0.59 0.605 0.759 0.943 0.169 0.343 0.281 0.695 0.349 1.068 0.067 0.373 0.097 0.764 0.097 1.171v5.404c0 0.629 0.111 1.111 0.324 1.45 0.217 0.343 0.459 0.667 0.724 0.977 0.083 0.106 0.126 0.216 0.126 0.338 0 0.116-0.053 0.218-0.16 0.304-0.271 0.238-0.619 0.512-1.044 0.832-0.429 0.319-0.787 0.599-1.073 0.836-0.198 0.121-0.439 0.135-0.725 0.029-0.449-0.363-0.758-0.642-0.938-0.84l-0.671-0.778c-0.45 0.424-0.885 0.763-1.316 1.020-0.426 0.251-0.86 0.444-1.316 0.57-0.594 0.121-1.261 0.188-1.996 0.188-1.16 0-2.136-0.328-2.919-0.981-0.788-0.652-1.179-1.633-1.179-2.939 0-1.078 0.27-1.976 0.812-2.701 0.541-0.72 1.261-1.262 2.166-1.625 0.464-0.198 0.962-0.353 1.489-0.454 0.527-0.106 1.083-0.193 1.653-0.256 0.377-0.043 0.735-0.078 1.083-0.102 0.343-0.020 0.672-0.053 0.976-0.096v-0.363zM18.289 12.751c-0.358 0-0.72 0.010-1.073 0.030-0.353 0.024-0.692 0.068-1.006 0.135-0.579 0.174-1.078 0.45-1.494 0.822-0.416 0.377-0.624 0.928-0.624 1.653 0 0.585 0.155 1.054 0.46 1.407 0.309 0.348 0.729 0.527 1.261 0.527 0.087 0 0.17-0.010 0.228-0.025 0.067-0.014 0.12-0.023 0.168-0.023 0.687-0.155 1.204-0.547 1.557-1.176 0.314-0.473 0.484-0.928 0.499-1.367 0.018-0.439 0.023-0.923 0.023-1.44v-0.542zM27.324 25.924c-0.116 0.111-0.218 0.145-0.314 0.101-0.092-0.043-0.116-0.13-0.073-0.261l0.314-0.749c0.121-0.31 0.228-0.61 0.334-0.91 0.101-0.3 0.173-0.57 0.203-0.817 0.033-0.246 0.005-0.421-0.083-0.532-0.13-0.173-0.424-0.27-0.884-0.29h-0.276c-0.372 0-0.745 0.015-1.116 0.048-0.199 0.043-0.387 0.063-0.57 0.063-0.184 0-0.353 0.024-0.508 0.068-0.131 0-0.208-0.040-0.232-0.116-0.020-0.078 0.033-0.16 0.164-0.246 0.338-0.218 0.72-0.397 1.146-0.537 0.381-0.087 0.769-0.145 1.145-0.179 0.243-0.019 0.464-0.033 0.672-0.033 0.15 0 0.304 0.005 0.455 0.015 0.363 0.023 0.662 0.063 0.893 0.116 0.238 0.057 0.392 0.115 0.474 0.178 0.025 0.043 0.048 0.102 0.073 0.175 0.019 0.067 0.033 0.16 0.033 0.266v0.135c0 0.213-0.043 0.484-0.13 0.797-0.083 0.314-0.199 0.634-0.339 0.953-0.135 0.324-0.324 0.643-0.56 0.957-0.236 0.314-0.512 0.585-0.822 0.798z"></path>
</svg>
