<?xml version="1.0" encoding="utf-8"?>
<!-- Generated by IcoMoon.io -->
<!DOCTYPE svg PUBLIC "-//W3C//DTD SVG 1.1//EN" "http://www.w3.org/Graphics/SVG/1.1/DTD/svg11.dtd">
<svg version="1.1" xmlns="http://www.w3.org/2000/svg" xmlns:xlink="http://www.w3.org/1999/xlink" width="38" height="32" viewBox="0 0 38 32">
<path fill="#444" d="M36.207 16.979c-0.048-0.096 0.007-0.187-0.103-0.213-0.116-0.027-0.379-0.001-0.379-0.001-0.19 0.014-0.103 0.218-0.229 0.264-0.146 0.053-0.505 0.137-0.66 0.104-0.083-0.017-0.422-0.045-0.422-0.045s-0.417-0.189-0.616-0.011c-0.076 0.068-0.078 0.352-0.379 0.408-0.239 0.045-0.223 0.040-0.771 0.146 0 0 0.464-0.688 0.636-0.921 0.193-0.26 0.269-0.662-0.080-0.685-0.143-0.009-0.478 0.002-0.478 0.002s-1.173-0.529-1.563-0.744c-0.098-0.054-0.227-0.107-0.324-0.233-0.072-0.094-0.141-0.285-0.038-0.414 0.093-0.116 0.289-0.266 0.408-0.375 0.169-0.154 0.179-0.015 0.299-0.127 0.098-0.092 0.086-0.086 0.188-0.176 0.159-0.14-0.007-0.161 0.122-0.283 0.547-0.518 1.553-1.436 2.099-1.929 0.063-0.057-0.023-0.244 0.093-0.341 0.2-0.168 0.582-0.498 0.764-0.653 0.066-0.057 0.111 0.029 0.237-0.085 0.275-0.25 0.862-0.787 1.274-1.12 0.152-0.123 0.124-0.319-0.032-0.475-0.108-0.108-0.26-0.27-0.403-0.394-0.137-0.119-0.447-0.043-0.539 0.033-0.389 0.325-1.291 1.161-1.291 1.161l-0.017 0.091-0.685 0.631c0 0-0.109 0.135-0.219 0l-0.683-0.599c0-0.017-0.124-0.031-0.277-0.031l-0.316 0.302c0 0.128 0 0.232 0 0.232s0.398 0.712 0.509 0.934c0.039 0.077-0.404 0.117-0.618 0.014-0.093-0.045-0.36-0.086-0.445-0.014-0.229 0.194-0.636 0.554-1.075 0.946-0.47-5.695-5.241-10.17-11.057-10.17-5.798 0-10.557 4.448-11.052 10.118-0.451-0.403-0.872-0.775-1.107-0.974-0.085-0.072-0.352-0.031-0.445 0.014-0.214 0.103-0.657 0.063-0.618-0.014 0.111-0.223 0.509-0.934 0.509-0.934s0-0.104 0-0.232l-0.316-0.302c-0.153 0-0.277 0.014-0.277 0.031l-0.683 0.599c-0.111 0.135-0.219 0-0.219 0l-0.685-0.631-0.017-0.091c0 0-0.902-0.836-1.291-1.161-0.092-0.077-0.402-0.152-0.539-0.033-0.143 0.124-0.295 0.286-0.403 0.394-0.155 0.156-0.184 0.352-0.032 0.475 0.412 0.333 0.999 0.87 1.274 1.12 0.126 0.115 0.171 0.028 0.237 0.085 0.182 0.156 0.564 0.485 0.764 0.653 0.116 0.097 0.030 0.284 0.093 0.341 0.546 0.494 1.552 1.412 2.099 1.929 0.129 0.122-0.037 0.143 0.122 0.283 0.102 0.090 0.090 0.084 0.188 0.176 0.12 0.112 0.13-0.027 0.299 0.127 0.119 0.109 0.315 0.259 0.408 0.375 0.103 0.129 0.033 0.32-0.038 0.414-0.097 0.126-0.226 0.179-0.324 0.233-0.391 0.214-1.563 0.744-1.563 0.744s-0.335-0.011-0.478-0.002c-0.348 0.023-0.272 0.425-0.080 0.685 0.172 0.232 0.636 0.921 0.636 0.921-0.548-0.107-0.532-0.101-0.771-0.146-0.301-0.057-0.303-0.341-0.379-0.408-0.199-0.178-0.616 0.011-0.616 0.011s-0.339 0.028-0.422 0.045c-0.155 0.032-0.514-0.051-0.66-0.104-0.127-0.046-0.039-0.25-0.229-0.264 0 0-0.263-0.026-0.379 0.001-0.11 0.026-0.054 0.116-0.103 0.213-0.233 0.463-0.283 0.767-0.176 1.077 0.093 0.269 0.070 0.692 0.227 0.765 0.366 0.171 1.116 0.24 1.533 0.317 0.033 0.006 0.097 0.123 0.129 0.131 0.594 0.135 1.895 0.481 1.895 0.481 0.593 0.139 0.624 0.699 0.528 1.045-0.061 0.218-0.089 0.439-0.009 0.545 0.222 0.292 1.060 0.558 1.713 0.456 0.204 0.001 0.237 0.466 0.253 0.589v0.079l-5.978 0.472v6.937h33.907v-6.888l-5.947-0.537c0.017-0.145 0.055-0.57 0.251-0.571 0.653 0.102 1.491-0.164 1.713-0.456 0.081-0.106 0.052-0.327-0.009-0.545-0.096-0.346-0.065-0.906 0.528-1.045 0 0 1.3-0.346 1.895-0.481 0.032-0.007 0.096-0.125 0.129-0.131 0.416-0.077 1.167-0.145 1.533-0.317 0.157-0.073 0.134-0.496 0.227-0.765 0.107-0.31 0.056-0.614-0.176-1.077zM19.066 7.665c3.275 0 5.93 2.655 5.93 5.93s-2.655 5.93-5.93 5.93-5.93-2.655-5.93-5.93c0-3.275 2.655-5.93 5.93-5.93z"></path>
</svg>
