<?xml version="1.0" encoding="utf-8"?>
<!-- Generated by IcoMoon.io -->
<!DOCTYPE svg PUBLIC "-//W3C//DTD SVG 1.1//EN" "http://www.w3.org/Graphics/SVG/1.1/DTD/svg11.dtd">
<svg version="1.1" xmlns="http://www.w3.org/2000/svg" xmlns:xlink="http://www.w3.org/1999/xlink" width="32" height="32" viewBox="0 0 32 32">
<path fill="#444" d="M8.655 13.499l-0.602 1.905h1.222l-0.598-1.905z"></path>
<path fill="#444" d="M12.832 14.277c-0.116 0.071-0.208 0.171-0.275 0.303v0.66l1.007-1.007c-0.088-0.040-0.189-0.062-0.305-0.062-0.168 0-0.311 0.035-0.427 0.106z"></path>
<path fill="#444" d="M25.846 5.641l-6.627 6.627c0.064 0.042 0.126 0.087 0.183 0.137 0.352 0.313 0.521 0.731 0.509 1.253l-0.007 0.022h-1.021c0-0.287-0.083-0.511-0.249-0.67-0.027-0.026-0.056-0.049-0.087-0.070l-1.744 1.744v0.597c0 0.408 0.104 0.741 0.312 0.999s0.486 0.386 0.836 0.386c0.257 0 0.461-0.026 0.611-0.078s0.265-0.117 0.347-0.197v-1.047h-1.040v-0.75h2.128v2.087c-0.168 0.22-0.42 0.412-0.754 0.574s-0.765 0.243-1.292 0.243c-0.654 0-1.188-0.206-1.604-0.616-0.317-0.313-0.513-0.697-0.588-1.153l-0.84 0.84c-0.059 0.143-0.13 0.274-0.218 0.391-0.166 0.222-0.377 0.376-0.634 0.46l-12.015 12.015c3.118-0.624 7.19-1.82 9.105-3.004 11.275 2.769 19.493-4.197 19.493-11.656 0-3.739-1.897-6.934-4.803-9.135zM24.456 12.849h-2.455v1.489h2.076v0.836h-2.076v2.247h-1.084v-5.407h3.539v0.836zM26.231 17.42h-1.084v-0.951h1.084v0.951zM26.231 15.556h-1.084v-3.543h1.084v3.543z"></path>
<path fill="#444" d="M9.906 17.42l-0.368-1.166h-1.753l-0.364 1.166h-1.133l1.823-5.407h1.11l1.65 4.912 0.605-0.605v-4.693h1.081v2.202c0.116-0.161 0.256-0.285 0.418-0.371s0.348-0.13 0.559-0.13c0.289 0 0.539 0.062 0.75 0.185l9.289-9.289c-2.253-1.141-4.867-1.782-7.573-1.782-7.738 0-14.649 5.209-14.649 12.333 0 2.527 0.902 5.008 2.498 6.933 0.023 0.776-0.117 1.667-0.359 2.598l6.887-6.887h-0.471z"></path>
</svg>
