<?xml version="1.0" encoding="utf-8"?>
<!-- Generated by IcoMoon.io -->
<!DOCTYPE svg PUBLIC "-//W3C//DTD SVG 1.1//EN" "http://www.w3.org/Graphics/SVG/1.1/DTD/svg11.dtd">
<svg version="1.1" xmlns="http://www.w3.org/2000/svg" xmlns:xlink="http://www.w3.org/1999/xlink" width="32" height="32" viewBox="0 0 32 32">
<path fill="#444" d="M31.659 16l-2.68-2.963 1.132-3.833-3.704-1.503-0.644-3.944-3.987 0.247-2.291-3.274-3.485 1.959-3.485-1.959-2.291 3.274-3.988-0.247-0.644 3.944-3.704 1.503 1.132 3.833-2.68 2.963 2.68 2.963-1.132 3.833 3.704 1.503 0.644 3.944 3.988-0.248 2.291 3.274 3.486-1.959 3.485 1.959 2.291-3.274 3.987 0.248 0.644-3.944 3.704-1.503-1.132-3.833 2.68-2.963zM16 27.852c-6.545 0-11.852-5.306-11.852-11.852s5.306-11.851 11.852-11.851 11.851 5.306 11.851 11.851c-0 6.545-5.306 11.852-11.852 11.852z"></path>
<path fill="#444" d="M16.541 5.584c-6.188-0.313-11.27 4.771-10.957 10.959 0.268 5.299 4.573 9.604 9.872 9.873 6.189 0.314 11.274-4.771 10.959-10.96-0.269-5.299-4.575-9.604-9.874-9.872zM13.386 21.725l-2.146-1.129-2.151 1.129 0.411-2.392-1.74-1.693 2.403-0.352 1.072-2.175 1.076 2.175 2.403 0.349-1.74 1.696 0.411 2.392zM13.899 13.863l0.411-2.392-1.74-1.693 2.403-0.352 1.072-2.175 1.076 2.175 2.403 0.349-1.739 1.696 0.411 2.392-2.146-1.129-2.151 1.129zM22.5 19.333l0.411 2.392-2.146-1.129-2.151 1.129 0.411-2.392-1.74-1.693 2.403-0.352 1.072-2.175 1.076 2.175 2.403 0.349-1.74 1.696z"></path>
</svg>
