<?xml version="1.0" encoding="utf-8"?>
<!-- Generated by IcoMoon.io -->
<!DOCTYPE svg PUBLIC "-//W3C//DTD SVG 1.1//EN" "http://www.w3.org/Graphics/SVG/1.1/DTD/svg11.dtd">
<svg version="1.1" xmlns="http://www.w3.org/2000/svg" xmlns:xlink="http://www.w3.org/1999/xlink" width="32" height="32" viewBox="0 0 32 32">
<path fill="#444" d="M23.66 17.551c-0.679 0-1.229 0.55-1.229 1.229s0.55 1.229 1.229 1.229c0.678 0 1.229-0.55 1.229-1.229s-0.55-1.229-1.229-1.229zM24.252 20.459c-0.186 0.065-0.384 0.102-0.592 0.102h-0.001c-0.636 0-1.195-0.336-1.51-0.839-0.315 0.504-0.874 0.839-1.51 0.839-0.214 0-0.42-0.038-0.61-0.108v1.721c0 0.38 0.308 0.687 0.687 0.687h2.848c0.38 0 0.687-0.308 0.687-0.687v-1.715zM19.412 18.78c0 0.679 0.55 1.229 1.229 1.229s1.229-0.55 1.229-1.229c0-0.679-0.55-1.229-1.229-1.229s-1.229 0.55-1.229 1.229zM26.877 19.61l-2.074 1.075v1.12l2.074 1.056zM16.136 4.004c-6.082 0-11.012 4.932-11.012 11.015 0 3.069 1.255 5.844 3.279 7.841h1.669c-2.34-1.813-3.847-4.651-3.847-7.841 0-5.475 4.437-9.914 9.911-9.914s9.911 4.439 9.911 9.914c0 1.229-0.224 2.406-0.633 3.492l0.946 0.606c0.508-1.267 0.788-2.65 0.788-4.098-0-6.084-4.93-11.015-11.012-11.015zM20.737 9.488l-0.743 0.637c-0.402 0.345-0.455 0.945-0.126 1.355 0.006 0.009 0.012 0.018 0.020 0.026 0.86 0.919 1.387 2.156 1.387 3.514 0 0.688-0.136 1.345-0.381 1.944 0.52 0.072 0.971 0.363 1.256 0.777 0.331-0.48 0.884-0.796 1.51-0.796 0.107 0 0.211 0.010 0.312 0.027 0.155-0.626 0.238-1.28 0.238-1.953 0-2.088-0.795-3.992-2.095-5.426-0.36-0.404-0.97-0.458-1.38-0.106zM19.426 22.174v-2.022c-0.24-0.213-0.423-0.487-0.526-0.798-0.798 0.51-1.746 0.806-2.764 0.806-2.838 0-5.139-2.302-5.139-5.141 0-1.358 0.528-2.595 1.387-3.514 0.010-0.010 0.018-0.022 0.026-0.033 0.322-0.41 0.268-1.005-0.132-1.347l-0.743-0.637c-0.41-0.352-1.022-0.299-1.38 0.106-1.299 1.433-2.094 3.339-2.094 5.426 0 3.79 2.61 6.971 6.13 7.841h3.892c0.472-0.117 0.927-0.275 1.362-0.471-0.012-0.070-0.018-0.143-0.018-0.216zM18.43 7.577h-3.9c-0.412 0-0.776 0.204-0.998 0.516-0.016 0.022-0.031 0.044-0.045 0.067s-0.028 0.048-0.042 0.073c-0.034 0.065-0.062 0.132-0.084 0.203-0.015 0.049-0.027 0.1-0.036 0.151-0.012 0.069-0.019 0.14-0.019 0.213v7.413c0 0.676 0.548 1.224 1.223 1.224s1.223-0.548 1.223-1.224v-2.296h1.91c0.676 0 1.224-0.548 1.224-1.224s-0.548-1.224-1.224-1.224h-1.91v-1.445h2.676c0.676 0 1.224-0.548 1.224-1.224s-0.548-1.224-1.224-1.224zM9.277 25.093c-0.349-0.159-0.563-0.269-0.641-0.329s-0.118-0.128-0.118-0.204c0-0.071 0.031-0.13 0.093-0.178s0.161-0.072 0.297-0.072c0.264 0 0.577 0.083 0.94 0.25l0.321-0.81c-0.418-0.186-0.828-0.279-1.23-0.279-0.455 0-0.813 0.1-1.073 0.3s-0.39 0.479-0.39 0.837c0 0.191 0.031 0.357 0.092 0.497s0.155 0.264 0.281 0.372 0.316 0.22 0.57 0.335c0.28 0.126 0.452 0.209 0.517 0.25s0.111 0.081 0.141 0.121 0.044 0.086 0.044 0.139c0 0.085-0.036 0.155-0.109 0.209s-0.187 0.081-0.343 0.081c-0.181 0-0.379-0.029-0.595-0.086s-0.424-0.138-0.624-0.241v0.935c0.189 0.090 0.372 0.154 0.547 0.19s0.392 0.055 0.651 0.055c0.31 0 0.58-0.052 0.81-0.155s0.406-0.249 0.528-0.436c0.122-0.187 0.183-0.401 0.183-0.642 0-0.262-0.065-0.479-0.195-0.652s-0.362-0.334-0.697-0.485zM13.989 25.462c0-0.655-0.159-1.152-0.478-1.49s-0.787-0.507-1.405-0.507c-0.616 0-1.086 0.17-1.409 0.511s-0.485 0.835-0.485 1.481c0 0.654 0.162 1.151 0.487 1.493s0.792 0.513 1.401 0.513c0.618 0 1.087-0.17 1.408-0.51s0.481-0.837 0.481-1.49zM12.101 26.588c-0.522 0-0.783-0.375-0.783-1.126 0-0.758 0.263-1.137 0.789-1.137 0.258 0 0.453 0.092 0.583 0.277s0.195 0.472 0.195 0.859c0 0.386-0.064 0.67-0.193 0.853s-0.325 0.274-0.591 0.274zM16.064 26.604c-0.568 0-0.853-0.374-0.853-1.121 0-0.36 0.070-0.642 0.21-0.846s0.335-0.307 0.584-0.307c0.165 0 0.319 0.023 0.462 0.069s0.287 0.103 0.43 0.17l0.321-0.826c-0.382-0.182-0.783-0.274-1.203-0.274-0.384 0-0.718 0.082-1.002 0.246s-0.502 0.398-0.653 0.703c-0.151 0.305-0.227 0.658-0.227 1.060 0 0.643 0.156 1.134 0.469 1.474s0.762 0.51 1.348 0.51c0.409 0 0.775-0.072 1.099-0.215v-0.887c-0.163 0.067-0.325 0.125-0.486 0.173s-0.328 0.072-0.499 0.072zM17.393 23.526h1.054v3.884h-1.054v-3.884zM21.119 23.51h-1.399l-1.267 3.9h1.153l0.196-0.728h1.261l0.191 0.728h1.147l-1.283-3.9zM20.020 25.821c0.161-0.609 0.265-1.017 0.312-1.225s0.078-0.356 0.094-0.446c0.018 0.097 0.054 0.259 0.11 0.483s0.103 0.408 0.142 0.55l0.167 0.638h-0.826zM23.457 23.526h-1.049v3.884h2.544v-0.848h-1.495z"></path>
</svg>
