<?xml version="1.0" encoding="utf-8"?>
<!-- Generated by IcoMoon.io -->
<!DOCTYPE svg PUBLIC "-//W3C//DTD SVG 1.1//EN" "http://www.w3.org/Graphics/SVG/1.1/DTD/svg11.dtd">
<svg version="1.1" xmlns="http://www.w3.org/2000/svg" xmlns:xlink="http://www.w3.org/1999/xlink" width="32" height="32" viewBox="0 0 32 32">
<path fill="#444" d="M18.45 9.998c0.676 0 1.224-0.548 1.224-1.224s-0.548-1.224-1.224-1.224h-3.901c-0.412 0-0.776 0.204-0.998 0.516-0.016 0.022-0.031 0.044-0.045 0.067s-0.028 0.048-0.042 0.073c-0.034 0.065-0.062 0.133-0.085 0.203-0.015 0.049-0.027 0.1-0.036 0.151-0.012 0.069-0.019 0.14-0.019 0.213v7.413c0 0.676 0.548 1.224 1.224 1.224v0c0.676 0 1.224-0.548 1.224-1.224v-2.296h1.911c0.676 0 1.224-0.548 1.224-1.224s-0.548-1.224-1.224-1.224h-1.911v-1.445l2.677 0zM8.627 24.354c0.062-0.048 0.161-0.072 0.297-0.072 0.264 0 0.577 0.083 0.94 0.25l0.322-0.81c-0.418-0.186-0.828-0.279-1.23-0.279-0.455 0-0.813 0.1-1.073 0.3s-0.39 0.479-0.39 0.837c0 0.191 0.030 0.357 0.092 0.497s0.155 0.264 0.282 0.372c0.127 0.108 0.316 0.22 0.57 0.335 0.28 0.126 0.452 0.209 0.517 0.25s0.112 0.081 0.141 0.121c0.029 0.040 0.044 0.086 0.044 0.139 0 0.085-0.036 0.155-0.109 0.209s-0.187 0.081-0.343 0.081c-0.181 0-0.379-0.029-0.595-0.086s-0.424-0.138-0.624-0.24v0.935c0.189 0.090 0.372 0.154 0.547 0.19s0.392 0.055 0.651 0.055c0.31 0 0.58-0.052 0.81-0.155s0.406-0.249 0.529-0.436c0.122-0.187 0.183-0.401 0.183-0.642 0-0.262-0.065-0.48-0.195-0.652s-0.363-0.334-0.697-0.485c-0.349-0.159-0.563-0.269-0.642-0.329s-0.118-0.128-0.118-0.204c-0-0.071 0.031-0.13 0.093-0.178zM12.124 23.438c-0.616 0-1.086 0.171-1.409 0.511s-0.485 0.835-0.485 1.481c0 0.654 0.162 1.151 0.487 1.493s0.792 0.513 1.401 0.513c0.618 0 1.087-0.17 1.408-0.51s0.481-0.837 0.481-1.49c0-0.655-0.159-1.152-0.478-1.49s-0.787-0.507-1.405-0.507zM12.71 26.288c-0.128 0.182-0.325 0.274-0.591 0.274-0.522 0-0.784-0.375-0.784-1.126 0-0.758 0.263-1.137 0.789-1.137 0.259 0 0.453 0.093 0.583 0.278s0.195 0.472 0.195 0.859c0 0.386-0.064 0.67-0.193 0.853zM16.025 24.304c0.165 0 0.319 0.023 0.462 0.069s0.287 0.103 0.43 0.17l0.321-0.826c-0.383-0.182-0.784-0.274-1.203-0.274-0.384 0-0.719 0.082-1.003 0.246s-0.502 0.398-0.653 0.703c-0.151 0.305-0.227 0.658-0.227 1.060 0 0.643 0.156 1.134 0.469 1.474s0.762 0.51 1.348 0.51c0.409 0 0.776-0.072 1.1-0.215v-0.887c-0.163 0.067-0.325 0.125-0.486 0.173s-0.328 0.072-0.499 0.072c-0.568 0-0.853-0.374-0.853-1.121 0-0.36 0.070-0.642 0.21-0.846s0.335-0.307 0.584-0.307zM17.412 23.499h1.055v3.884h-1.055v-3.884zM19.74 23.483l-1.267 3.9h1.153l0.197-0.728h1.262l0.191 0.728h1.148l-1.283-3.9h-1.4zM20.040 25.794c0.161-0.609 0.265-1.017 0.312-1.225s0.078-0.356 0.094-0.446c0.018 0.097 0.055 0.259 0.11 0.483s0.103 0.408 0.142 0.55l0.167 0.637-0.826 0zM23.479 23.499h-1.049v3.884h2.545v-0.847h-1.496zM26.258 21.058c0.413-0.332 0.723-0.806 0.698-1.309-0.020-0.399-0.181-0.759-0.431-1.033 0.418-1.163 0.646-2.415 0.646-3.722 0-6.084-4.932-11.015-11.015-11.015s-11.015 4.932-11.015 11.015c0 3.069 1.255 5.844 3.28 7.842h1.67c-2.341-1.813-3.848-4.651-3.848-7.842 0-5.475 4.439-9.914 9.914-9.914s9.914 4.439 9.914 9.914c0 1.12-0.187 2.197-0.53 3.201-0.104-0.015-0.211-0.020-0.32-0.014-0.772 0.039-1.36 0.561-1.5 1.273-0.151-0.038-0.32-0.057-0.508-0.057-0.057 0-0.116 0.002-0.18 0.005-0.038 0.002-0.076 0.006-0.114 0.010 0.831-1.27 1.315-2.788 1.315-4.419 0-2.088-0.795-3.992-2.095-5.426-0.36-0.404-0.97-0.458-1.381-0.106l-0.744 0.637c-0.402 0.345-0.455 0.945-0.126 1.355 0.006 0.009 0.012 0.018 0.020 0.025 0.86 0.919 1.388 2.156 1.388 3.514 0 2.839-2.302 5.141-5.14 5.141s-5.14-2.302-5.14-5.141c0-1.358 0.528-2.595 1.388-3.514 0.010-0.010 0.018-0.022 0.026-0.033 0.322-0.41 0.268-1.005-0.132-1.348l-0.743-0.637c-0.411-0.352-1.022-0.298-1.381 0.106-1.299 1.434-2.095 3.339-2.095 5.426 0 3.791 2.611 6.971 6.133 7.842h3.891c1.264-0.313 2.411-0.923 3.362-1.752 0 0.018 0 0.037 0.001 0.056 0.044 0.862 0.742 1.506 1.697 1.568 0.172 0.011 0.368-0.018 0.555-0.075 0.172 0.735 0.83 1.276 1.61 1.276 0.028 0 0.057-0.001 0.085-0.002 0.441-0.022 0.848-0.215 1.144-0.544s0.447-0.752 0.424-1.193c-0.023-0.462-0.335-0.84-0.72-1.11zM26.042 22.898c-0.172 0.191-0.409 0.303-0.666 0.317-0.535 0.027-0.985-0.384-1.012-0.913-0.003-0.053-0.003-0.053 0.008-0.101 0.003-0.014 0.007-0.029 0.011-0.048l0.231-1.063-0.802 0.734c-0.090 0.082-0.393 0.207-0.608 0.193-0.486-0.031-1.022-0.33-1.051-0.914-0.027-0.531 0.383-0.985 0.913-1.012 0.052-0.003 0.1-0.004 0.145-0.004 0.287 0 0.476 0.053 0.594 0.167l0.819 0.79-0.242-1.112c-0.001-0.003-0.001-0.006-0.002-0.009v-0.006c0-0.019 0-0.042-0.002-0.075-0.027-0.536 0.341-0.946 0.875-0.973 0.535-0.026 0.985 0.384 1.012 0.913 0.018 0.363-0.416 0.796-0.834 0.973l-0.768 0.326 0.774 0.312c0.398 0.161 0.834 0.482 0.851 0.808 0.013 0.257-0.075 0.504-0.247 0.695z"></path>
</svg>
