<?xml version="1.0" encoding="utf-8"?>
<!-- Generated by IcoMoon.io -->
<!DOCTYPE svg PUBLIC "-//W3C//DTD SVG 1.1//EN" "http://www.w3.org/Graphics/SVG/1.1/DTD/svg11.dtd">
<svg version="1.1" xmlns="http://www.w3.org/2000/svg" xmlns:xlink="http://www.w3.org/1999/xlink" width="32" height="32" viewBox="0 0 32 32">
<path fill="#444" d="M28 0h-24c-2.208 0-4 1.792-4 4v24c0 2.208 1.792 4 4 4h24c2.208 0 4-1.792 4-4v-24c0-2.208-1.792-4-4-4zM16 12c3.684 0 4 4 4 4s0.118 4-4 4c-4.116 0-4-4-4-4s0.316-4 4-4zM28 26c0 1.106-0.894 2-2 2h-20c-1.106 0-2-0.894-2-2v-10c0-1.106 0.894-2 2-2h2.284c-0.168 0.642-0.284 1.304-0.284 2 0 4.418 3.582 8 8 8s8-3.582 8-8c0-0.696-0.118-1.358-0.284-2h2.284c1.106 0 2 0.894 2 2v10zM28 8c0 1.104-0.894 2-2 2h-2c-1.104 0-2-0.896-2-2v-2c0-1.104 0.896-2 2-2h2c1.106 0 2 0.896 2 2v2z"></path>
</svg>
