<?xml version="1.0" encoding="utf-8"?>
<!-- Generated by IcoMoon.io -->
<!DOCTYPE svg PUBLIC "-//W3C//DTD SVG 1.1//EN" "http://www.w3.org/Graphics/SVG/1.1/DTD/svg11.dtd">
<svg version="1.1" xmlns="http://www.w3.org/2000/svg" xmlns:xlink="http://www.w3.org/1999/xlink" width="32" height="32" viewBox="0 0 32 32">
<path fill="#444" d="M3.254 27.095c-0.273-0.237-0.681-0.351-1.225-0.351h-1.607v4.315h1.295v-1.381h0.312c0.522 0 0.925-0.162 1.209-0.424s0.426-0.642 0.426-1.123c0-0.438-0.137-0.799-0.409-1.037zM2.331 28.552c-0.103 0.098-0.242 0.178-0.417 0.178h-0.197v-0.863h0.286c0.322 0 0.483 0.067 0.483 0.357 0 0.173-0.052 0.23-0.155 0.328z"></path>
<path fill="#444" d="M7.818 28.015c0-0.848-0.585-1.27-1.756-1.27h-1.498v4.315h1.036v-1.64h0.509l0.913 1.64h1.32l-1.255-1.882c0.487-0.273 0.731-0.664 0.731-1.163zM6.033 28.73h-0.432v-1.036h0.444c0.399 0 0.598 0.174 0.598 0.471-0 0.359-0.203 0.565-0.61 0.565z"></path>
<path fill="#444" d="M8.88 31.060h2.503v-0.863h-1.295v-0.777h1.295v-1.036h-1.295v-0.69h1.295v-0.949h-2.503z"></path>
<path fill="#444" d="M15.119 29.765h-0.023l-0.898-3.021h-1.606v4.315h0.863v-1.884c0-0.293 0.204-0.532 0.163-0.964h0.027l0.881 2.848h1.108l0.869-2.848h0.027c-0.024 0.432-0.041 0.63-0.044 0.75s-0.009 0.098-0.009 0.196v1.902h0.949v-4.315h-1.424l-0.881 3.021z"></path>
<path fill="#444" d="M18.719 26.745h1.295v4.315h-1.295v-4.315z"></path>
<path fill="#444" d="M23.551 29.261c0 0.31 0.011 0.534-0.096 0.67s-0.247 0.205-0.485 0.205c-0.222 0-0.496-0.069-0.61-0.206s-0.277-0.358-0.277-0.663v-2.522h-1.036v2.613c0 0.564 0.213 0.995 0.528 1.296s0.794 0.451 1.381 0.451c0.601 0 0.989-0.155 1.308-0.464s0.407-0.746 0.407-1.309v-2.587h-1.122v2.516z"></path>
<path fill="#444" d="M28.521 29.765h-0.023l-0.898-3.021h-1.718v4.315h1.208v-1.884c0-0.293-0.029-0.532-0.071-0.964h0.027l0.881 2.848h1.108l0.869-2.848h0.027c-0.024 0.432-0.054 0.63-0.056 0.75s-0.021 0.098-0.021 0.196v1.902h1.122v-4.315h-1.571l-0.881 3.021z"></path>
<path fill="#444" d="M2.946 19.219l-1.136 3.846 3.716 1.612 0.095 0.687h2.476c-2.464-2.244-4.020-5.465-4.020-9.013 0-6.567 5.324-11.943 11.891-11.943s11.89 5.401 11.89 11.968c0 3.548-1.556 6.744-4.020 8.987h2.476l0.095-0.687 3.716-1.56-1.136-3.872 2.689-2.985-2.689-2.979 1.136-3.849-3.716-1.51-0.646-3.958-4.001 0.248-2.299-3.285-3.497 1.965-3.497-1.966-2.298 3.285-4.001-0.248-0.646 3.957-3.716 1.508 1.136 3.846-2.689 2.973 2.688 2.973z"></path>
<path fill="#444" d="M21.453 25.364c3.131-2.071 5.169-5.567 4.966-9.56-0.27-5.316-4.59-9.687-9.907-9.956-6.208-0.314-11.308 4.865-10.993 11.073 0.178 3.522 2.136 6.631 4.982 8.443h10.951zM20.744 15.358l1.080 2.182 2.411 0.35-1.745 1.701 0.412 2.4-2.154-1.132-2.158 1.132 0.413-2.4-1.745-1.698 2.411-0.353 1.075-2.182zM14.94 9.651l1.075-2.182 1.080 2.182 2.411 0.35-1.745 1.701 0.412 2.4-2.154-1.132-2.158 1.132 0.412-2.4-1.745-1.698 2.411-0.353zM7.703 17.893l2.411-0.353 1.075-2.182 1.080 2.182 2.411 0.35-1.745 1.701 0.412 2.4-2.153-1.132-2.158 1.132 0.412-2.4-1.745-1.698z"></path>
</svg>
