<?xml version="1.0" encoding="utf-8"?>
<!-- Generated by IcoMoon.io -->
<!DOCTYPE svg PUBLIC "-//W3C//DTD SVG 1.1//EN" "http://www.w3.org/Graphics/SVG/1.1/DTD/svg11.dtd">
<svg version="1.1" xmlns="http://www.w3.org/2000/svg" xmlns:xlink="http://www.w3.org/1999/xlink" width="32" height="32" viewBox="0 0 32 32">
<path fill="#444" d="M28.468 3.81h-24.936c-1.524 0-2.77 1.219-2.77 2.709v18.963c0 1.489 1.246 2.709 2.77 2.709h24.936c1.522 0 2.77-1.22 2.77-2.709v-18.963c0-1.49-1.248-2.709-2.77-2.709zM28.468 25.495h-24.936v-18.99h24.936v18.99zM14.996 21.893l1.004 0.876 1.004-0.87c3.567-3.108 5.922-5.152 5.922-7.662 0-2.045-1.675-3.652-3.81-3.652-1.595 0-2.362 1.173-3.117 2.022-0.755-0.85-1.565-2.022-3.117-2.022-2.133 0-3.81 1.607-3.81 3.652 0 2.51 2.355 4.555 5.922 7.656z"></path>
</svg>
